<svg aria-hidden="true" style="position: absolute; width: 0; height: 0; overflow: hidden;" version="1.1"
     xmlns="http://www.w3.org/2000/svg" xmlns:xlink="http://www.w3.org/1999/xlink">
    <defs>
        <symbol id="checkmark-circle" viewBox="0 0 32 32">
            <title>checkmark-circle</title>
            <path fill="#30c902" style="fill: var(--color1, #30c902)"
                  d="M31 16c0 8.284-6.716 15-15 15s-15-6.716-15-15 6.716-15 15-15 15 6.716 15 15z"></path>
            <path fill="#fff" style="fill: var(--color2, #fff)" d="M22 10l-8 8-4-4-3 3 6 6h2l10-10z"></path>
            <path fill="#209102" style="fill: var(--color3, #209102)"
                  d="M16 32c8.837 0 16-7.163 16-16s-7.163-16-16-16-16 7.163-16 16c0.010 8.832 7.168 15.99 16 16zM16 2c7.732 0 14 6.268 14 14s-6.268 14-14 14-14-6.268-14-14c0.009-7.729 6.271-13.991 14-14z"></path>
            <path fill="#209102" style="fill: var(--color3, #209102)"
                  d="M12.293 23.707c0.188 0.188 0.442 0.293 0.707 0.293h2c0.265 0 0.52-0.105 0.707-0.293l10-10c0.39-0.391 0.39-1.023 0-1.414l-3-3c-0.391-0.39-1.023-0.39-1.414 0l-7.293 7.292-3.293-3.292c-0.391-0.39-1.023-0.39-1.414 0l-3 3c-0.39 0.391-0.39 1.023 0 1.414zM10 15.415l3.293 3.292c0.391 0.39 1.023 0.39 1.414 0l7.293-7.292 1.586 1.585-9 9h-1.172l-5-5z"></path>
        </symbol>
        <symbol id="expert" viewBox="0 0 32 32">
            <title>expert</title>
            <path fill="#ebeef2" style="fill: var(--color1, #ebeef2)"
                  d="M26.578 5.754v21.197c0 0.837-0.679 1.516-1.516 1.516h-18.125c-0.837 0-1.516-0.679-1.516-1.516v-24.966c0-0.837 0.679-1.516 1.516-1.516h14.356l5.285 5.285z"></path>
            <path fill="#48cfb7" style="fill: var(--color2, #48cfb7)"
                  d="M26.91 5.422l-5.285-5.285c-0.088-0.088-0.207-0.137-0.331-0.137h-14.356c-1.094 0-1.985 0.89-1.985 1.985v24.966c0 1.094 0.89 1.985 1.985 1.985h18.125c1.094 0 1.985-0.89 1.985-1.985v-21.197c0-0.124-0.049-0.244-0.137-0.332zM24.678 4.923v19.090c0 0.158-0.12 0.287-0.277 0.307-1.029 0.126-1.845 0.941-1.97 1.97-0.019 0.157-0.148 0.277-0.307 0.277h-12.249c-0.158 0-0.287-0.12-0.307-0.277-0.126-1.029-0.941-1.845-1.97-1.97-0.157-0.019-0.277-0.148-0.277-0.307v-19.090c0-0.158 0.12-0.287 0.277-0.307 1.029-0.125 1.845-0.941 1.97-1.97 0.019-0.157 0.148-0.277 0.307-0.277h12.249c0.158 0 0.287 0.12 0.307 0.277 0.125 1.029 0.941 1.845 1.97 1.97 0.157 0.019 0.277 0.148 0.277 0.307z"></path>
            <path fill="#35b5a0" style="fill: var(--color3, #35b5a0)"
                  d="M26.91 5.422l-3.505-3.505v1.531l1.974 1.974c0.088 0.088 0.137 0.207 0.137 0.332v21.197c0 1.094-0.89 1.985-1.985 1.985h1.531c1.094 0 1.985-0.89 1.985-1.985v-21.197c-0-0.124-0.049-0.244-0.137-0.332z"></path>
            <path fill="#d1d6de" style="fill: var(--color4, #d1d6de)"
                  d="M26.91 5.422l-5.285-5.285c-0.134-0.134-0.336-0.174-0.511-0.102s-0.289 0.243-0.289 0.433v3.769c0 1.094 0.89 1.985 1.985 1.985h3.769c0.19 0 0.36-0.114 0.433-0.289s0.032-0.377-0.102-0.511z"></path>
            <path fill="#1b3d66" style="fill: var(--color5, #1b3d66)"
                  d="M19.781 6.955h-7.562c-0.259 0-0.469-0.21-0.469-0.469s0.21-0.469 0.469-0.469h7.562c0.259 0 0.469 0.21 0.469 0.469s-0.21 0.469-0.469 0.469z"></path>
            <path fill="#656d88" style="fill: var(--color6, #656d88)"
                  d="M21.882 11.92h-11.763c-0.259 0-0.469-0.21-0.469-0.469s0.21-0.469 0.469-0.469h11.763c0.259 0 0.469 0.21 0.469 0.469s-0.21 0.469-0.469 0.469z"></path>
            <path fill="#656d88" style="fill: var(--color6, #656d88)"
                  d="M21.882 14.936h-11.763c-0.259 0-0.469-0.21-0.469-0.469s0.21-0.469 0.469-0.469h11.763c0.259 0 0.469 0.21 0.469 0.469s-0.21 0.469-0.469 0.469z"></path>
            <path fill="#656d88" style="fill: var(--color6, #656d88)"
                  d="M21.882 17.953h-11.763c-0.259 0-0.469-0.21-0.469-0.469s0.21-0.469 0.469-0.469h11.763c0.259 0 0.469 0.21 0.469 0.469s-0.21 0.469-0.469 0.469z"></path>
            <path fill="#656d88" style="fill: var(--color6, #656d88)"
                  d="M21.882 20.97h-11.763c-0.259 0-0.469-0.21-0.469-0.469s0.21-0.469 0.469-0.469h11.763c0.259 0 0.469 0.21 0.469 0.469s-0.21 0.469-0.469 0.469z"></path>
            <path fill="#5c9cee" style="fill: var(--color7, #5c9cee)"
                  d="M20.444 24.661v6.871c0 0.224-0.159 0.418-0.379 0.46-0.030 0.006-0.060 0.009-0.089 0.009-0.188 0-0.363-0.114-0.435-0.294-0.27-0.67-0.651-1.142-1.069-1.346-0.152-0.075-0.31-0.114-0.469-0.114s-0.316 0.039-0.469 0.113c-0.419 0.204-0.8 0.676-1.070 1.346-0.084 0.208-0.304 0.327-0.524 0.285s-0.38-0.236-0.38-0.46v-6.871c0-0.259 0.21-0.469 0.469-0.469h3.947c0.259 0 0.469 0.21 0.469 0.469z"></path>
            <path fill="#ffce65" style="fill: var(--color8, #ffce65)"
                  d="M18.471 24.845v5.516c-0.152-0.075-0.31-0.114-0.469-0.114s-0.316 0.039-0.469 0.113v-5.515c0-0.259 0.209-0.469 0.469-0.469s0.469 0.209 0.469 0.469z"></path>
            <path fill="#ed5575" style="fill: var(--color9, #ed5575)"
                  d="M22.024 21.949l-0.385-0.308c-0.096-0.077-0.146-0.197-0.132-0.319l0.054-0.49c0.043-0.393-0.092-0.779-0.372-1.058s-0.665-0.415-1.058-0.372l-0.49 0.054c-0.123 0.014-0.242-0.036-0.319-0.132l-0.308-0.384c-0.247-0.309-0.616-0.485-1.011-0.485s-0.764 0.177-1.011 0.485l-0.308 0.384c-0.077 0.096-0.197 0.145-0.319 0.132l-0.49-0.054c-0.393-0.043-0.779 0.092-1.059 0.372s-0.415 0.665-0.372 1.058l0.054 0.49c0.014 0.123-0.036 0.242-0.132 0.319l-0.385 0.308c-0.309 0.247-0.485 0.616-0.485 1.012s0.177 0.764 0.486 1.011l0.384 0.308c0.096 0.077 0.146 0.197 0.132 0.319l-0.054 0.49c-0.043 0.393 0.092 0.779 0.372 1.058s0.666 0.415 1.059 0.372l0.49-0.054c0.122-0.014 0.242 0.036 0.319 0.132l0.308 0.384c0.247 0.308 0.616 0.485 1.011 0.485v0c0.395 0 0.764-0.177 1.011-0.485l0.308-0.384c0.077-0.096 0.197-0.146 0.319-0.132l0.49 0.054c0.393 0.043 0.779-0.092 1.058-0.372s0.415-0.665 0.372-1.058l-0.054-0.49c-0.014-0.123 0.036-0.242 0.132-0.319l0.385-0.308c0.308-0.247 0.485-0.616 0.485-1.011s-0.177-0.764-0.485-1.012z"></path>
            <path fill="#cc3a60" style="fill: var(--color10, #cc3a60)"
                  d="M22.024 21.949l-0.385-0.308c-0.096-0.077-0.146-0.197-0.132-0.319l0.054-0.49c0.043-0.393-0.092-0.779-0.372-1.058-0.234-0.234-0.544-0.367-0.869-0.379 0.053 0.039 0.103 0.081 0.15 0.129 0.28 0.28 0.415 0.665 0.372 1.058l-0.054 0.49c-0.014 0.123 0.036 0.242 0.132 0.319l0.385 0.308c0.309 0.247 0.485 0.616 0.485 1.012s-0.177 0.764-0.485 1.011l-0.385 0.308c-0.096 0.077-0.146 0.197-0.132 0.319l0.054 0.49c0.043 0.393-0.092 0.779-0.372 1.058s-0.665 0.415-1.058 0.372l-0.49-0.054c-0.122-0.014-0.242 0.036-0.319 0.132l-0.308 0.384c-0.247 0.309-0.616 0.485-1.011 0.485v0c-0.016 0-0.032-0.001-0.048-0.001 0.22 0.162 0.487 0.251 0.767 0.251v0c0.395 0 0.764-0.177 1.011-0.485l0.308-0.384c0.077-0.096 0.197-0.146 0.319-0.132l0.49 0.054c0.393 0.043 0.779-0.092 1.058-0.372s0.415-0.665 0.372-1.058l-0.054-0.49c-0.014-0.123 0.036-0.242 0.132-0.319l0.385-0.308c0.308-0.247 0.485-0.616 0.485-1.011s-0.177-0.764-0.485-1.012z"></path>
            <path fill="#fcab29" style="fill: var(--color11, #fcab29)"
                  d="M19.887 22.96c0 1.041-0.844 1.885-1.885 1.885s-1.885-0.844-1.885-1.885c0-1.041 0.844-1.885 1.885-1.885s1.885 0.844 1.885 1.885z"></path>
        </symbol>
        <symbol id="intermediate" viewBox="0 0 32 32">
            <title>intermediate</title>
            <path fill="#ebeef2" style="fill: var(--color1, #ebeef2)"
                  d="M8.397 21.16h-3.742c-2.571 0-4.655 2.084-4.655 4.655v4.207c0 0.362 0.294 0.656 0.656 0.656h11.739c0.362 0 0.656-0.294 0.656-0.656v-4.207c0-2.571-2.084-4.655-4.655-4.655z"></path>
            <path fill="#d1d6de" style="fill: var(--color4, #d1d6de)"
                  d="M8.397 21.16h-2.016c2.571 0 4.655 2.084 4.655 4.655v4.864h1.36c0.362 0 0.656-0.294 0.656-0.656v-4.207c0-2.571-2.084-4.655-4.655-4.655z"></path>
            <path fill="#ed5575" style="fill: var(--color9, #ed5575)"
                  d="M7.081 21.16h-1.111l-1.433 4.87c-0.064 0.218-0.006 0.453 0.153 0.615l1.387 1.42c0.246 0.252 0.651 0.252 0.897 0l1.387-1.42c0.158-0.162 0.217-0.398 0.153-0.615l-1.433-4.87z"></path>
            <path fill="#f9c295" style="fill: var(--color12, #f9c295)"
                  d="M6.526 5.95v0c-2.934 0-5.313 2.379-5.313 5.313v2.562c0 2.934 2.379 5.313 5.313 5.313v0c2.934 0 5.313-2.379 5.313-5.313v-2.562c0-2.934-2.379-5.313-5.313-5.313z"></path>
            <path fill="#e59f6a" style="fill: var(--color13, #e59f6a)"
                  d="M5.978 5.978c2.177 0.274 3.874 2.536 3.874 5.285v2.562c0 2.749-1.698 5.011-3.874 5.285 0.18 0.018 0.363 0.028 0.548 0.028 2.934 0 5.313-2.379 5.313-5.313v-2.562c0-3.134-2.707-5.608-5.861-5.285z"></path>
            <path fill="#444966" style="fill: var(--color14, #444966)"
                  d="M9.983 7.231c0-0 0-0 0-0.001-3.424-2.934-8.77-0.511-8.77 4.033v0.491c0.782 0.345 1.647 0.538 2.557 0.538 1.869 0 3.548-0.809 4.709-2.096 0.734 1.131 1.952 1.919 3.361 2.069-0.076-0.429 0.459-3.050-1.856-5.035z"></path>
            <path fill="#2e344c" style="fill: var(--color15, #2e344c)"
                  d="M9.983 7.231c0-0 0-0 0-0.001-0.044-0.025-1.588-1.5-4.005-1.252 2.177 0.274 3.875 2.536 3.875 5.285v0.301c0.585 0.376 1.26 0.625 1.987 0.702-0.073-0.425 0.452-3.056-1.856-5.035z"></path>
            <path fill="#e59f6a" style="fill: var(--color13, #e59f6a)"
                  d="M7.153 15.846h-0.628c-0.272 0-0.492-0.22-0.492-0.492v-1.64c0-0.272 0.22-0.492 0.492-0.492s0.492 0.22 0.492 0.492v1.148h0.135c0.272 0 0.492 0.22 0.492 0.492s-0.22 0.492-0.492 0.492z"></path>
            <path fill="#ed5575" style="fill: var(--color9, #ed5575)"
                  d="M28.356 27.91c-0.035-0.143-0.136-0.262-0.272-0.319l-5.21-2.209c-0.224-0.095-0.484-0.002-0.598 0.213-0.824 1.564-1.908 2.959-3.222 4.146-0.144 0.13-0.193 0.335-0.123 0.516s0.244 0.3 0.438 0.3h6.506c0.111 0 0.219-0.040 0.304-0.112 0.759-0.647 1.46-1.363 2.084-2.127 0.093-0.114 0.128-0.266 0.092-0.409z"></path>
            <path fill="#9fd479" style="fill: var(--color16, #9fd479)"
                  d="M14.782 1.323c-0.454 0.019-0.907 0.056-1.347 0.11-1.683 0.207-3.313 0.666-4.845 1.365-0.202 0.092-0.312 0.313-0.263 0.53s0.241 0.368 0.466 0.365c1.676-0.030 3.335 0.221 4.927 0.747 0.049 0.016 0.098 0.024 0.147 0.024 0.184 0 0.356-0.108 0.432-0.286l0.934-2.204c0.063-0.148 0.045-0.318-0.046-0.45s-0.244-0.21-0.405-0.201z"></path>
            <path fill="#9fd479" style="fill: var(--color16, #9fd479)"
                  d="M25.341 4.587c-2.275-1.696-4.958-2.783-7.757-3.144-0.208-0.027-0.409 0.088-0.491 0.282l-1.308 3.085c-0.095 0.224-0.002 0.484 0.213 0.598 1.587 0.836 2.999 1.938 4.196 3.275 0.092 0.103 0.22 0.156 0.35 0.156 0.099 0 0.198-0.031 0.282-0.095l4.518-3.407c0.118-0.089 0.187-0.228 0.186-0.376s-0.070-0.286-0.189-0.375z"></path>
            <path fill="#f2df33" style="fill: var(--color17, #f2df33)"
                  d="M31.984 17.137c-0.006-0.131-0.066-0.253-0.166-0.337s-0.23-0.123-0.36-0.107l-7.067 0.87c-0.242 0.030-0.421 0.241-0.411 0.484 0.073 1.797-0.174 3.571-0.735 5.27-0.076 0.232 0.038 0.483 0.262 0.579l5.691 2.413c0.059 0.025 0.122 0.037 0.183 0.037 0.163 0 0.32-0.085 0.406-0.234 1.576-2.728 2.335-5.832 2.196-8.976z"></path>
            <path fill="#f2df33" style="fill: var(--color17, #f2df33)"
                  d="M24.136 15.965c0.019 0 0.038-0.001 0.058-0.004l7.067-0.87c0.13-0.016 0.247-0.085 0.323-0.191s0.105-0.239 0.079-0.367c-0.628-3.083-2.118-5.91-4.309-8.174-0.165-0.17-0.43-0.191-0.619-0.048l-4.936 3.722c-0.195 0.147-0.244 0.419-0.114 0.625 0.957 1.513 1.627 3.173 1.992 4.935 0.046 0.22 0.239 0.374 0.459 0.374z"></path>
            <path fill="#5c9cee" style="fill: var(--color7, #5c9cee)"
                  d="M27.735 22.017c0.119-0.148 0.096-0.364-0.051-0.483-0.026-0.021-0.055-0.036-0.084-0.048l0-0.002c-0.634-0.265-9.174-3.835-11.63-4.862l-0 0.001c-0.531-0.222-1.167-0.080-1.547 0.39-0.462 0.571-0.374 1.409 0.197 1.871 0.158 0.128 0.336 0.212 0.522 0.257l-0 0.001c2.586 0.632 11.578 2.829 12.245 2.992l0-0.001c0.125 0.030 0.262-0.010 0.348-0.117z"></path>
            <path fill="#ebeef2" style="fill: var(--color1, #ebeef2)"
                  d="M17.812 17.851c0 1.301-1.054 2.355-2.355 2.355s-2.355-1.054-2.355-2.355c0-1.301 1.054-2.355 2.355-2.355s2.355 1.054 2.355 2.355z"></path>
        </symbol>
        <symbol id="beginner" viewBox="0 0 32 32">
            <title>beginner</title>
            <path fill="#5c9cee" style="fill: var(--color7, #5c9cee)"
                  d="M14.084 17.741h-4.307c-3.212 0-5.825 2.613-5.825 5.826v6.597c0 0.259 0.21 0.469 0.469 0.469h15.020c0.259 0 0.469-0.21 0.469-0.469v-6.597c0-3.212-2.613-5.825-5.825-5.825z"></path>
            <path fill="#3580d3" style="fill: var(--color18, #3580d3)"
                  d="M14.084 17.741h-1.708c3.212 0 5.826 2.613 5.826 5.826v6.597c0 0.259-0.21 0.469-0.469 0.469h1.708c0.259 0 0.469-0.21 0.469-0.469v-6.597c0-3.212-2.613-5.825-5.825-5.825z"></path>
            <path fill="#444966" style="fill: var(--color14, #444966)"
                  d="M12.599 17.741h-1.336l-1.785 6.067c-0.038 0.13-0.003 0.271 0.091 0.368l2.093 2.144c0.147 0.151 0.389 0.151 0.537 0l2.093-2.144c0.095-0.097 0.13-0.238 0.091-0.368l-1.785-6.067z"></path>
            <path fill="#f9c295" style="fill: var(--color12, #f9c295)"
                  d="M11.93 0v0c-3.586 0-6.492 2.907-6.492 6.492v3.13c0 3.586 2.907 6.492 6.492 6.492v0c3.586 0 6.492-2.907 6.492-6.492v-3.13c0-3.586-2.907-6.492-6.492-6.492z"></path>
            <path fill="#e59f6a" style="fill: var(--color13, #e59f6a)"
                  d="M11.93 0c-0.146 0-0.29 0.005-0.434 0.015 2.96 0.223 5.3 3.038 5.3 6.478v3.13c0 3.44-2.34 6.255-5.3 6.478 0.143 0.009 0.288 0.015 0.434 0.015 3.586 0 6.492-2.907 6.492-6.492v-3.13c0-3.586-2.907-6.492-6.492-6.492z"></path>
            <path fill="#444966" style="fill: var(--color14, #444966)"
                  d="M16.155 1.565c0-0 0-0 0-0.001-0.012-0.010-0.024-0.020-0.037-0.030-0.050-0.042-0.1-0.083-0.151-0.124-0.023-0.018-0.047-0.037-0.070-0.055-0.047-0.036-0.094-0.072-0.142-0.107-0.028-0.020-0.056-0.040-0.084-0.060-0.044-0.031-0.088-0.061-0.132-0.091-0.033-0.022-0.065-0.044-0.099-0.065-0.040-0.026-0.080-0.051-0.121-0.076-0.038-0.024-0.077-0.047-0.116-0.070-0.034-0.020-0.069-0.039-0.104-0.059-0.046-0.026-0.091-0.051-0.138-0.076-0.024-0.013-0.048-0.024-0.072-0.037-0.888-0.456-1.893-0.716-2.96-0.716-3.586 0-6.492 2.907-6.492 6.492v0.6c0.956 0.422 2.012 0.658 3.125 0.658 2.284 0 4.336-0.989 5.754-2.561 0.897 1.382 2.385 2.345 4.106 2.528v-1.226c0-1.972-0.88-3.737-2.268-4.927z"></path>
            <path fill="#2e344c" style="fill: var(--color15, #2e344c)"
                  d="M18.413 6.14c-0.001-0.021-0.003-0.043-0.004-0.064-0.002-0.037-0.005-0.074-0.008-0.111-0.002-0.022-0.004-0.044-0.006-0.065-0.003-0.037-0.007-0.073-0.011-0.109-0.002-0.021-0.005-0.043-0.007-0.064-0.004-0.037-0.009-0.074-0.014-0.111-0.003-0.020-0.006-0.040-0.008-0.060-0.006-0.038-0.012-0.077-0.018-0.115-0.003-0.018-0.006-0.036-0.009-0.054-0.007-0.042-0.015-0.083-0.023-0.125-0.003-0.014-0.005-0.028-0.008-0.042-0.010-0.049-0.020-0.097-0.031-0.145-0.002-0.007-0.003-0.013-0.004-0.020-0.313-1.382-1.068-2.597-2.108-3.488 0-0 0-0 0-0.001-0.012-0.010-0.025-0.020-0.037-0.030-0.050-0.042-0.1-0.083-0.151-0.124-0.023-0.018-0.047-0.037-0.070-0.055-0.047-0.036-0.094-0.072-0.142-0.107-0.028-0.020-0.056-0.040-0.084-0.060-0.044-0.031-0.088-0.061-0.132-0.091-0.033-0.022-0.065-0.044-0.099-0.065-0.040-0.026-0.080-0.051-0.121-0.076-0.038-0.024-0.077-0.047-0.116-0.070-0.034-0.020-0.069-0.039-0.104-0.059-0.046-0.026-0.091-0.051-0.138-0.076-0.024-0.013-0.048-0.024-0.072-0.037-0.665-0.342-1.396-0.573-2.17-0.668-0.004-0-0.007-0.001-0.011-0.001-0.056-0.007-0.112-0.013-0.168-0.018-0.015-0.001-0.030-0.003-0.045-0.004-0.046-0.004-0.091-0.007-0.137-0.010-0.019-0.001-0.038-0.003-0.057-0.004-0.044-0.003-0.088-0.004-0.133-0.006-0.018-0.001-0.037-0.002-0.056-0.002-0.061-0.002-0.121-0.003-0.182-0.003-0.001 0-0.002-0-0.003-0-0.070 0-0.139 0.001-0.209 0.004-0.008 0-0.016 0.001-0.024 0.001-0.067 0.003-0.134 0.006-0.201 0.010 2.96 0.223 5.3 3.038 5.3 6.478v0.797c0.507 0.22 1.054 0.367 1.626 0.428v-1.226c0-0.059-0.001-0.118-0.002-0.177-0-0.018-0.001-0.036-0.002-0.054-0.002-0.040-0.003-0.081-0.005-0.121z"></path>
            <path fill="#e59f6a" style="fill: var(--color13, #e59f6a)"
                  d="M11.931 14.129c-0.874 0-1.704-0.457-2.221-1.222-0.154-0.228-0.094-0.537 0.134-0.691s0.537-0.094 0.691 0.134c0.336 0.498 0.845 0.784 1.396 0.784s1.059-0.286 1.395-0.784c0.154-0.228 0.463-0.288 0.691-0.134s0.288 0.463 0.134 0.691c-0.516 0.766-1.346 1.223-2.22 1.223z"></path>
            <path fill="#ebeef2" style="fill: var(--color1, #ebeef2)"
                  d="M28.016 31.361l-3.123-8.014c-0.070-0.18-0.244-0.299-0.437-0.299h-11.903c-0.193 0-0.367 0.119-0.437 0.299l-3.123 8.014c-0.056 0.144-0.038 0.307 0.050 0.435s0.232 0.204 0.387 0.204h18.15c0.155 0 0.3-0.076 0.387-0.204s0.106-0.291 0.050-0.435z"></path>
            <path fill="#1b3d66" style="fill: var(--color5, #1b3d66)"
                  d="M24.017 28.822h-11.024c-0.259 0-0.469-0.21-0.469-0.469s0.21-0.469 0.469-0.469h11.024c0.259 0 0.469 0.21 0.469 0.469s-0.21 0.469-0.469 0.469z"></path>
            <path fill="#fcab29" style="fill: var(--color11, #fcab29)"
                  d="M22.144 24.907l-2.1 1.646c-0.361 0.283-0.895 0.089-0.989-0.36l-0.55-2.611 5.352-14.706c0.12-0.33 0.485-0.5 0.815-0.38l2.445 0.89c0.33 0.12 0.5 0.485 0.38 0.815l-5.352 14.706z"></path>
            <path fill="#dd8d19" style="fill: var(--color19, #dd8d19)"
                  d="M27.116 9.386l-0.959-0.349c0.071 0.026 0.031 0.314-0.089 0.644l-5.352 14.706-1.060 2.025c-0.091 0.174-0.165 0.251-0.206 0.236 0.19 0.069 0.414 0.047 0.595-0.095l2.1-1.646 5.352-14.706c0.12-0.33-0.050-0.695-0.38-0.815z"></path>
            <path fill="#656d88" style="fill: var(--color6, #656d88)"
                  d="M20.044 26.553l2.1-1.646-3.639-1.325 0.55 2.611c0.095 0.449 0.628 0.643 0.989 0.36z"></path>
            <path fill="#2e344c" style="fill: var(--color15, #2e344c)"
                  d="M22.144 24.907l-1.428-0.52-1.060 2.025c-0.091 0.174-0.165 0.251-0.206 0.236 0.134 0.049 0.285 0.051 0.426-0.001 0.059-0.022 0.116-0.052 0.169-0.093l2.1-1.646z"></path>
        </symbol>
    </defs>
</svg>
