<svg aria-hidden="true" style="position: absolute; width: 0; height: 0; overflow: hidden;" version="1.1" xmlns="http://www.w3.org/2000/svg" xmlns:xlink="http://www.w3.org/1999/xlink">
<defs>
<symbol id="checkmark-circle" viewBox="0 0 32 32">
<title>checkmark-circle</title>
<path fill="#30c902" style="fill: var(--color1, #30c902)" d="M31 16c0 8.284-6.716 15-15 15s-15-6.716-15-15 6.716-15 15-15 15 6.716 15 15z"></path>
<path fill="#fff" style="fill: var(--color2, #fff)" d="M22 10l-8 8-4-4-3 3 6 6h2l10-10z"></path>
<path fill="#209102" style="fill: var(--color3, #209102)" d="M16 32c8.837 0 16-7.163 16-16s-7.163-16-16-16-16 7.163-16 16c0.010 8.832 7.168 15.99 16 16zM16 2c7.732 0 14 6.268 14 14s-6.268 14-14 14-14-6.268-14-14c0.009-7.729 6.271-13.991 14-14z"></path>
<path fill="#209102" style="fill: var(--color3, #209102)" d="M12.293 23.707c0.188 0.188 0.442 0.293 0.707 0.293h2c0.265 0 0.52-0.105 0.707-0.293l10-10c0.39-0.391 0.39-1.023 0-1.414l-3-3c-0.391-0.39-1.023-0.39-1.414 0l-7.293 7.292-3.293-3.292c-0.391-0.39-1.023-0.39-1.414 0l-3 3c-0.39 0.391-0.39 1.023 0 1.414zM10 15.415l3.293 3.292c0.391 0.39 1.023 0.39 1.414 0l7.293-7.292 1.586 1.585-9 9h-1.172l-5-5z"></path>
</symbol>
</defs>
</svg>
