<svg aria-hidden="true" style="position: absolute; width: 0; height: 0; overflow: hidden;" version="1.1"
     xmlns="http://www.w3.org/2000/svg" xmlns:xlink="http://www.w3.org/1999/xlink">
    <defs>
        <symbol id="checkmark-circle" viewBox="0 0 32 32">
            <title>checkmark-circle</title>
            <path fill="#30c902" style="fill: var(--color1, #30c902)"
                  d="M31 16c0 8.284-6.716 15-15 15s-15-6.716-15-15 6.716-15 15-15 15 6.716 15 15z"></path>
            <path fill="#fff" style="fill: var(--color2, #fff)" d="M22 10l-8 8-4-4-3 3 6 6h2l10-10z"></path>
            <path fill="#209102" style="fill: var(--color3, #209102)"
                  d="M16 32c8.837 0 16-7.163 16-16s-7.163-16-16-16-16 7.163-16 16c0.010 8.832 7.168 15.99 16 16zM16 2c7.732 0 14 6.268 14 14s-6.268 14-14 14-14-6.268-14-14c0.009-7.729 6.271-13.991 14-14z"></path>
            <path fill="#209102" style="fill: var(--color3, #209102)"
                  d="M12.293 23.707c0.188 0.188 0.442 0.293 0.707 0.293h2c0.265 0 0.52-0.105 0.707-0.293l10-10c0.39-0.391 0.39-1.023 0-1.414l-3-3c-0.391-0.39-1.023-0.39-1.414 0l-7.293 7.292-3.293-3.292c-0.391-0.39-1.023-0.39-1.414 0l-3 3c-0.39 0.391-0.39 1.023 0 1.414zM10 15.415l3.293 3.292c0.391 0.39 1.023 0.39 1.414 0l7.293-7.292 1.586 1.585-9 9h-1.172l-5-5z"></path>
        </symbol>
        <symbol id="expert" viewBox="0 0 32 32">
            <title>expert</title>
            <path fill="#ebeef2" style="fill: var(--color1, #ebeef2)"
                  d="M26.578 5.754v21.197c0 0.837-0.679 1.516-1.516 1.516h-18.125c-0.837 0-1.516-0.679-1.516-1.516v-24.966c0-0.837 0.679-1.516 1.516-1.516h14.356l5.285 5.285z"></path>
            <path fill="#48cfb7" style="fill: var(--color2, #48cfb7)"
                  d="M26.91 5.422l-5.285-5.285c-0.088-0.088-0.207-0.137-0.331-0.137h-14.356c-1.094 0-1.985 0.89-1.985 1.985v24.966c0 1.094 0.89 1.985 1.985 1.985h18.125c1.094 0 1.985-0.89 1.985-1.985v-21.197c0-0.124-0.049-0.244-0.137-0.332zM24.678 4.923v19.090c0 0.158-0.12 0.287-0.277 0.307-1.029 0.126-1.845 0.941-1.97 1.97-0.019 0.157-0.148 0.277-0.307 0.277h-12.249c-0.158 0-0.287-0.12-0.307-0.277-0.126-1.029-0.941-1.845-1.97-1.97-0.157-0.019-0.277-0.148-0.277-0.307v-19.090c0-0.158 0.12-0.287 0.277-0.307 1.029-0.125 1.845-0.941 1.97-1.97 0.019-0.157 0.148-0.277 0.307-0.277h12.249c0.158 0 0.287 0.12 0.307 0.277 0.125 1.029 0.941 1.845 1.97 1.97 0.157 0.019 0.277 0.148 0.277 0.307z"></path>
            <path fill="#35b5a0" style="fill: var(--color3, #35b5a0)"
                  d="M26.91 5.422l-3.505-3.505v1.531l1.974 1.974c0.088 0.088 0.137 0.207 0.137 0.332v21.197c0 1.094-0.89 1.985-1.985 1.985h1.531c1.094 0 1.985-0.89 1.985-1.985v-21.197c-0-0.124-0.049-0.244-0.137-0.332z"></path>
            <path fill="#d1d6de" style="fill: var(--color4, #d1d6de)"
                  d="M26.91 5.422l-5.285-5.285c-0.134-0.134-0.336-0.174-0.511-0.102s-0.289 0.243-0.289 0.433v3.769c0 1.094 0.89 1.985 1.985 1.985h3.769c0.19 0 0.36-0.114 0.433-0.289s0.032-0.377-0.102-0.511z"></path>
            <path fill="#1b3d66" style="fill: var(--color5, #1b3d66)"
                  d="M19.781 6.955h-7.562c-0.259 0-0.469-0.21-0.469-0.469s0.21-0.469 0.469-0.469h7.562c0.259 0 0.469 0.21 0.469 0.469s-0.21 0.469-0.469 0.469z"></path>
            <path fill="#656d88" style="fill: var(--color6, #656d88)"
                  d="M21.882 11.92h-11.763c-0.259 0-0.469-0.21-0.469-0.469s0.21-0.469 0.469-0.469h11.763c0.259 0 0.469 0.21 0.469 0.469s-0.21 0.469-0.469 0.469z"></path>
            <path fill="#656d88" style="fill: var(--color6, #656d88)"
                  d="M21.882 14.936h-11.763c-0.259 0-0.469-0.21-0.469-0.469s0.21-0.469 0.469-0.469h11.763c0.259 0 0.469 0.21 0.469 0.469s-0.21 0.469-0.469 0.469z"></path>
            <path fill="#656d88" style="fill: var(--color6, #656d88)"
                  d="M21.882 17.953h-11.763c-0.259 0-0.469-0.21-0.469-0.469s0.21-0.469 0.469-0.469h11.763c0.259 0 0.469 0.21 0.469 0.469s-0.21 0.469-0.469 0.469z"></path>
            <path fill="#656d88" style="fill: var(--color6, #656d88)"
                  d="M21.882 20.97h-11.763c-0.259 0-0.469-0.21-0.469-0.469s0.21-0.469 0.469-0.469h11.763c0.259 0 0.469 0.21 0.469 0.469s-0.21 0.469-0.469 0.469z"></path>
            <path fill="#5c9cee" style="fill: var(--color7, #5c9cee)"
                  d="M20.444 24.661v6.871c0 0.224-0.159 0.418-0.379 0.46-0.030 0.006-0.060 0.009-0.089 0.009-0.188 0-0.363-0.114-0.435-0.294-0.27-0.67-0.651-1.142-1.069-1.346-0.152-0.075-0.31-0.114-0.469-0.114s-0.316 0.039-0.469 0.113c-0.419 0.204-0.8 0.676-1.070 1.346-0.084 0.208-0.304 0.327-0.524 0.285s-0.38-0.236-0.38-0.46v-6.871c0-0.259 0.21-0.469 0.469-0.469h3.947c0.259 0 0.469 0.21 0.469 0.469z"></path>
            <path fill="#ffce65" style="fill: var(--color8, #ffce65)"
                  d="M18.471 24.845v5.516c-0.152-0.075-0.31-0.114-0.469-0.114s-0.316 0.039-0.469 0.113v-5.515c0-0.259 0.209-0.469 0.469-0.469s0.469 0.209 0.469 0.469z"></path>
            <path fill="#ed5575" style="fill: var(--color9, #ed5575)"
                  d="M22.024 21.949l-0.385-0.308c-0.096-0.077-0.146-0.197-0.132-0.319l0.054-0.49c0.043-0.393-0.092-0.779-0.372-1.058s-0.665-0.415-1.058-0.372l-0.49 0.054c-0.123 0.014-0.242-0.036-0.319-0.132l-0.308-0.384c-0.247-0.309-0.616-0.485-1.011-0.485s-0.764 0.177-1.011 0.485l-0.308 0.384c-0.077 0.096-0.197 0.145-0.319 0.132l-0.49-0.054c-0.393-0.043-0.779 0.092-1.059 0.372s-0.415 0.665-0.372 1.058l0.054 0.49c0.014 0.123-0.036 0.242-0.132 0.319l-0.385 0.308c-0.309 0.247-0.485 0.616-0.485 1.012s0.177 0.764 0.486 1.011l0.384 0.308c0.096 0.077 0.146 0.197 0.132 0.319l-0.054 0.49c-0.043 0.393 0.092 0.779 0.372 1.058s0.666 0.415 1.059 0.372l0.49-0.054c0.122-0.014 0.242 0.036 0.319 0.132l0.308 0.384c0.247 0.308 0.616 0.485 1.011 0.485v0c0.395 0 0.764-0.177 1.011-0.485l0.308-0.384c0.077-0.096 0.197-0.146 0.319-0.132l0.49 0.054c0.393 0.043 0.779-0.092 1.058-0.372s0.415-0.665 0.372-1.058l-0.054-0.49c-0.014-0.123 0.036-0.242 0.132-0.319l0.385-0.308c0.308-0.247 0.485-0.616 0.485-1.011s-0.177-0.764-0.485-1.012z"></path>
            <path fill="#cc3a60" style="fill: var(--color10, #cc3a60)"
                  d="M22.024 21.949l-0.385-0.308c-0.096-0.077-0.146-0.197-0.132-0.319l0.054-0.49c0.043-0.393-0.092-0.779-0.372-1.058-0.234-0.234-0.544-0.367-0.869-0.379 0.053 0.039 0.103 0.081 0.15 0.129 0.28 0.28 0.415 0.665 0.372 1.058l-0.054 0.49c-0.014 0.123 0.036 0.242 0.132 0.319l0.385 0.308c0.309 0.247 0.485 0.616 0.485 1.012s-0.177 0.764-0.485 1.011l-0.385 0.308c-0.096 0.077-0.146 0.197-0.132 0.319l0.054 0.49c0.043 0.393-0.092 0.779-0.372 1.058s-0.665 0.415-1.058 0.372l-0.49-0.054c-0.122-0.014-0.242 0.036-0.319 0.132l-0.308 0.384c-0.247 0.309-0.616 0.485-1.011 0.485v0c-0.016 0-0.032-0.001-0.048-0.001 0.22 0.162 0.487 0.251 0.767 0.251v0c0.395 0 0.764-0.177 1.011-0.485l0.308-0.384c0.077-0.096 0.197-0.146 0.319-0.132l0.49 0.054c0.393 0.043 0.779-0.092 1.058-0.372s0.415-0.665 0.372-1.058l-0.054-0.49c-0.014-0.123 0.036-0.242 0.132-0.319l0.385-0.308c0.308-0.247 0.485-0.616 0.485-1.011s-0.177-0.764-0.485-1.012z"></path>
            <path fill="#fcab29" style="fill: var(--color11, #fcab29)"
                  d="M19.887 22.96c0 1.041-0.844 1.885-1.885 1.885s-1.885-0.844-1.885-1.885c0-1.041 0.844-1.885 1.885-1.885s1.885 0.844 1.885 1.885z"></path>
        </symbol>
        <symbol id="intermediate" viewBox="0 0 32 32">
            <title>intermediate</title>
            <path fill="#ebeef2" style="fill: var(--color1, #ebeef2)"
                  d="M8.397 21.16h-3.742c-2.571 0-4.655 2.084-4.655 4.655v4.207c0 0.362 0.294 0.656 0.656 0.656h11.739c0.362 0 0.656-0.294 0.656-0.656v-4.207c0-2.571-2.084-4.655-4.655-4.655z"></path>
            <path fill="#d1d6de" style="fill: var(--color4, #d1d6de)"
                  d="M8.397 21.16h-2.016c2.571 0 4.655 2.084 4.655 4.655v4.864h1.36c0.362 0 0.656-0.294 0.656-0.656v-4.207c0-2.571-2.084-4.655-4.655-4.655z"></path>
            <path fill="#ed5575" style="fill: var(--color9, #ed5575)"
                  d="M7.081 21.16h-1.111l-1.433 4.87c-0.064 0.218-0.006 0.453 0.153 0.615l1.387 1.42c0.246 0.252 0.651 0.252 0.897 0l1.387-1.42c0.158-0.162 0.217-0.398 0.153-0.615l-1.433-4.87z"></path>
            <path fill="#f9c295" style="fill: var(--color12, #f9c295)"
                  d="M6.526 5.95v0c-2.934 0-5.313 2.379-5.313 5.313v2.562c0 2.934 2.379 5.313 5.313 5.313v0c2.934 0 5.313-2.379 5.313-5.313v-2.562c0-2.934-2.379-5.313-5.313-5.313z"></path>
            <path fill="#e59f6a" style="fill: var(--color13, #e59f6a)"
                  d="M5.978 5.978c2.177 0.274 3.874 2.536 3.874 5.285v2.562c0 2.749-1.698 5.011-3.874 5.285 0.18 0.018 0.363 0.028 0.548 0.028 2.934 0 5.313-2.379 5.313-5.313v-2.562c0-3.134-2.707-5.608-5.861-5.285z"></path>
            <path fill="#444966" style="fill: var(--color14, #444966)"
                  d="M9.983 7.231c0-0 0-0 0-0.001-3.424-2.934-8.77-0.511-8.77 4.033v0.491c0.782 0.345 1.647 0.538 2.557 0.538 1.869 0 3.548-0.809 4.709-2.096 0.734 1.131 1.952 1.919 3.361 2.069-0.076-0.429 0.459-3.050-1.856-5.035z"></path>
            <path fill="#2e344c" style="fill: var(--color15, #2e344c)"
                  d="M9.983 7.231c0-0 0-0 0-0.001-0.044-0.025-1.588-1.5-4.005-1.252 2.177 0.274 3.875 2.536 3.875 5.285v0.301c0.585 0.376 1.26 0.625 1.987 0.702-0.073-0.425 0.452-3.056-1.856-5.035z"></path>
            <path fill="#e59f6a" style="fill: var(--color13, #e59f6a)"
                  d="M7.153 15.846h-0.628c-0.272 0-0.492-0.22-0.492-0.492v-1.64c0-0.272 0.22-0.492 0.492-0.492s0.492 0.22 0.492 0.492v1.148h0.135c0.272 0 0.492 0.22 0.492 0.492s-0.22 0.492-0.492 0.492z"></path>
            <path fill="#ed5575" style="fill: var(--color9, #ed5575)"
                  d="M28.356 27.91c-0.035-0.143-0.136-0.262-0.272-0.319l-5.21-2.209c-0.224-0.095-0.484-0.002-0.598 0.213-0.824 1.564-1.908 2.959-3.222 4.146-0.144 0.13-0.193 0.335-0.123 0.516s0.244 0.3 0.438 0.3h6.506c0.111 0 0.219-0.040 0.304-0.112 0.759-0.647 1.46-1.363 2.084-2.127 0.093-0.114 0.128-0.266 0.092-0.409z"></path>
            <path fill="#9fd479" style="fill: var(--color16, #9fd479)"
                  d="M14.782 1.323c-0.454 0.019-0.907 0.056-1.347 0.11-1.683 0.207-3.313 0.666-4.845 1.365-0.202 0.092-0.312 0.313-0.263 0.53s0.241 0.368 0.466 0.365c1.676-0.030 3.335 0.221 4.927 0.747 0.049 0.016 0.098 0.024 0.147 0.024 0.184 0 0.356-0.108 0.432-0.286l0.934-2.204c0.063-0.148 0.045-0.318-0.046-0.45s-0.244-0.21-0.405-0.201z"></path>
            <path fill="#9fd479" style="fill: var(--color16, #9fd479)"
                  d="M25.341 4.587c-2.275-1.696-4.958-2.783-7.757-3.144-0.208-0.027-0.409 0.088-0.491 0.282l-1.308 3.085c-0.095 0.224-0.002 0.484 0.213 0.598 1.587 0.836 2.999 1.938 4.196 3.275 0.092 0.103 0.22 0.156 0.35 0.156 0.099 0 0.198-0.031 0.282-0.095l4.518-3.407c0.118-0.089 0.187-0.228 0.186-0.376s-0.070-0.286-0.189-0.375z"></path>
            <path fill="#f2df33" style="fill: var(--color17, #f2df33)"
                  d="M31.984 17.137c-0.006-0.131-0.066-0.253-0.166-0.337s-0.23-0.123-0.36-0.107l-7.067 0.87c-0.242 0.030-0.421 0.241-0.411 0.484 0.073 1.797-0.174 3.571-0.735 5.27-0.076 0.232 0.038 0.483 0.262 0.579l5.691 2.413c0.059 0.025 0.122 0.037 0.183 0.037 0.163 0 0.32-0.085 0.406-0.234 1.576-2.728 2.335-5.832 2.196-8.976z"></path>
            <path fill="#f2df33" style="fill: var(--color17, #f2df33)"
                  d="M24.136 15.965c0.019 0 0.038-0.001 0.058-0.004l7.067-0.87c0.13-0.016 0.247-0.085 0.323-0.191s0.105-0.239 0.079-0.367c-0.628-3.083-2.118-5.91-4.309-8.174-0.165-0.17-0.43-0.191-0.619-0.048l-4.936 3.722c-0.195 0.147-0.244 0.419-0.114 0.625 0.957 1.513 1.627 3.173 1.992 4.935 0.046 0.22 0.239 0.374 0.459 0.374z"></path>
            <path fill="#5c9cee" style="fill: var(--color7, #5c9cee)"
                  d="M27.735 22.017c0.119-0.148 0.096-0.364-0.051-0.483-0.026-0.021-0.055-0.036-0.084-0.048l0-0.002c-0.634-0.265-9.174-3.835-11.63-4.862l-0 0.001c-0.531-0.222-1.167-0.080-1.547 0.39-0.462 0.571-0.374 1.409 0.197 1.871 0.158 0.128 0.336 0.212 0.522 0.257l-0 0.001c2.586 0.632 11.578 2.829 12.245 2.992l0-0.001c0.125 0.030 0.262-0.010 0.348-0.117z"></path>
            <path fill="#ebeef2" style="fill: var(--color1, #ebeef2)"
                  d="M17.812 17.851c0 1.301-1.054 2.355-2.355 2.355s-2.355-1.054-2.355-2.355c0-1.301 1.054-2.355 2.355-2.355s2.355 1.054 2.355 2.355z"></path>
        </symbol>
        <symbol id="beginner" viewBox="0 0 32 32">
            <title>beginner</title>
            <path fill="#5c9cee" style="fill: var(--color7, #5c9cee)"
                  d="M14.084 17.741h-4.307c-3.212 0-5.825 2.613-5.825 5.826v6.597c0 0.259 0.21 0.469 0.469 0.469h15.020c0.259 0 0.469-0.21 0.469-0.469v-6.597c0-3.212-2.613-5.825-5.825-5.825z"></path>
            <path fill="#3580d3" style="fill: var(--color18, #3580d3)"
                  d="M14.084 17.741h-1.708c3.212 0 5.826 2.613 5.826 5.826v6.597c0 0.259-0.21 0.469-0.469 0.469h1.708c0.259 0 0.469-0.21 0.469-0.469v-6.597c0-3.212-2.613-5.825-5.825-5.825z"></path>
            <path fill="#444966" style="fill: var(--color14, #444966)"
                  d="M12.599 17.741h-1.336l-1.785 6.067c-0.038 0.13-0.003 0.271 0.091 0.368l2.093 2.144c0.147 0.151 0.389 0.151 0.537 0l2.093-2.144c0.095-0.097 0.13-0.238 0.091-0.368l-1.785-6.067z"></path>
            <path fill="#f9c295" style="fill: var(--color12, #f9c295)"
                  d="M11.93 0v0c-3.586 0-6.492 2.907-6.492 6.492v3.13c0 3.586 2.907 6.492 6.492 6.492v0c3.586 0 6.492-2.907 6.492-6.492v-3.13c0-3.586-2.907-6.492-6.492-6.492z"></path>
            <path fill="#e59f6a" style="fill: var(--color13, #e59f6a)"
                  d="M11.93 0c-0.146 0-0.29 0.005-0.434 0.015 2.96 0.223 5.3 3.038 5.3 6.478v3.13c0 3.44-2.34 6.255-5.3 6.478 0.143 0.009 0.288 0.015 0.434 0.015 3.586 0 6.492-2.907 6.492-6.492v-3.13c0-3.586-2.907-6.492-6.492-6.492z"></path>
            <path fill="#444966" style="fill: var(--color14, #444966)"
                  d="M16.155 1.565c0-0 0-0 0-0.001-0.012-0.010-0.024-0.020-0.037-0.030-0.050-0.042-0.1-0.083-0.151-0.124-0.023-0.018-0.047-0.037-0.070-0.055-0.047-0.036-0.094-0.072-0.142-0.107-0.028-0.020-0.056-0.040-0.084-0.060-0.044-0.031-0.088-0.061-0.132-0.091-0.033-0.022-0.065-0.044-0.099-0.065-0.040-0.026-0.080-0.051-0.121-0.076-0.038-0.024-0.077-0.047-0.116-0.070-0.034-0.020-0.069-0.039-0.104-0.059-0.046-0.026-0.091-0.051-0.138-0.076-0.024-0.013-0.048-0.024-0.072-0.037-0.888-0.456-1.893-0.716-2.96-0.716-3.586 0-6.492 2.907-6.492 6.492v0.6c0.956 0.422 2.012 0.658 3.125 0.658 2.284 0 4.336-0.989 5.754-2.561 0.897 1.382 2.385 2.345 4.106 2.528v-1.226c0-1.972-0.88-3.737-2.268-4.927z"></path>
            <path fill="#2e344c" style="fill: var(--color15, #2e344c)"
                  d="M18.413 6.14c-0.001-0.021-0.003-0.043-0.004-0.064-0.002-0.037-0.005-0.074-0.008-0.111-0.002-0.022-0.004-0.044-0.006-0.065-0.003-0.037-0.007-0.073-0.011-0.109-0.002-0.021-0.005-0.043-0.007-0.064-0.004-0.037-0.009-0.074-0.014-0.111-0.003-0.020-0.006-0.040-0.008-0.060-0.006-0.038-0.012-0.077-0.018-0.115-0.003-0.018-0.006-0.036-0.009-0.054-0.007-0.042-0.015-0.083-0.023-0.125-0.003-0.014-0.005-0.028-0.008-0.042-0.010-0.049-0.020-0.097-0.031-0.145-0.002-0.007-0.003-0.013-0.004-0.020-0.313-1.382-1.068-2.597-2.108-3.488 0-0 0-0 0-0.001-0.012-0.010-0.025-0.020-0.037-0.030-0.050-0.042-0.1-0.083-0.151-0.124-0.023-0.018-0.047-0.037-0.070-0.055-0.047-0.036-0.094-0.072-0.142-0.107-0.028-0.020-0.056-0.040-0.084-0.060-0.044-0.031-0.088-0.061-0.132-0.091-0.033-0.022-0.065-0.044-0.099-0.065-0.040-0.026-0.080-0.051-0.121-0.076-0.038-0.024-0.077-0.047-0.116-0.070-0.034-0.020-0.069-0.039-0.104-0.059-0.046-0.026-0.091-0.051-0.138-0.076-0.024-0.013-0.048-0.024-0.072-0.037-0.665-0.342-1.396-0.573-2.17-0.668-0.004-0-0.007-0.001-0.011-0.001-0.056-0.007-0.112-0.013-0.168-0.018-0.015-0.001-0.030-0.003-0.045-0.004-0.046-0.004-0.091-0.007-0.137-0.010-0.019-0.001-0.038-0.003-0.057-0.004-0.044-0.003-0.088-0.004-0.133-0.006-0.018-0.001-0.037-0.002-0.056-0.002-0.061-0.002-0.121-0.003-0.182-0.003-0.001 0-0.002-0-0.003-0-0.070 0-0.139 0.001-0.209 0.004-0.008 0-0.016 0.001-0.024 0.001-0.067 0.003-0.134 0.006-0.201 0.010 2.96 0.223 5.3 3.038 5.3 6.478v0.797c0.507 0.22 1.054 0.367 1.626 0.428v-1.226c0-0.059-0.001-0.118-0.002-0.177-0-0.018-0.001-0.036-0.002-0.054-0.002-0.040-0.003-0.081-0.005-0.121z"></path>
            <path fill="#e59f6a" style="fill: var(--color13, #e59f6a)"
                  d="M11.931 14.129c-0.874 0-1.704-0.457-2.221-1.222-0.154-0.228-0.094-0.537 0.134-0.691s0.537-0.094 0.691 0.134c0.336 0.498 0.845 0.784 1.396 0.784s1.059-0.286 1.395-0.784c0.154-0.228 0.463-0.288 0.691-0.134s0.288 0.463 0.134 0.691c-0.516 0.766-1.346 1.223-2.22 1.223z"></path>
            <path fill="#ebeef2" style="fill: var(--color1, #ebeef2)"
                  d="M28.016 31.361l-3.123-8.014c-0.070-0.18-0.244-0.299-0.437-0.299h-11.903c-0.193 0-0.367 0.119-0.437 0.299l-3.123 8.014c-0.056 0.144-0.038 0.307 0.050 0.435s0.232 0.204 0.387 0.204h18.15c0.155 0 0.3-0.076 0.387-0.204s0.106-0.291 0.050-0.435z"></path>
            <path fill="#1b3d66" style="fill: var(--color5, #1b3d66)"
                  d="M24.017 28.822h-11.024c-0.259 0-0.469-0.21-0.469-0.469s0.21-0.469 0.469-0.469h11.024c0.259 0 0.469 0.21 0.469 0.469s-0.21 0.469-0.469 0.469z"></path>
            <path fill="#fcab29" style="fill: var(--color11, #fcab29)"
                  d="M22.144 24.907l-2.1 1.646c-0.361 0.283-0.895 0.089-0.989-0.36l-0.55-2.611 5.352-14.706c0.12-0.33 0.485-0.5 0.815-0.38l2.445 0.89c0.33 0.12 0.5 0.485 0.38 0.815l-5.352 14.706z"></path>
            <path fill="#dd8d19" style="fill: var(--color19, #dd8d19)"
                  d="M27.116 9.386l-0.959-0.349c0.071 0.026 0.031 0.314-0.089 0.644l-5.352 14.706-1.060 2.025c-0.091 0.174-0.165 0.251-0.206 0.236 0.19 0.069 0.414 0.047 0.595-0.095l2.1-1.646 5.352-14.706c0.12-0.33-0.050-0.695-0.38-0.815z"></path>
            <path fill="#656d88" style="fill: var(--color6, #656d88)"
                  d="M20.044 26.553l2.1-1.646-3.639-1.325 0.55 2.611c0.095 0.449 0.628 0.643 0.989 0.36z"></path>
            <path fill="#2e344c" style="fill: var(--color15, #2e344c)"
                  d="M22.144 24.907l-1.428-0.52-1.060 2.025c-0.091 0.174-0.165 0.251-0.206 0.236 0.134 0.049 0.285 0.051 0.426-0.001 0.059-0.022 0.116-0.052 0.169-0.093l2.1-1.646z"></path>
        </symbol>
        <symbol id="astronaut" viewBox="0 0 32 32">
            <title>astronaut</title>
            <path fill="#4e5093" style="fill: var(--color1, #4e5093)" d="M3.664 8.041c-0.195 0-0.378-0.119-0.45-0.312l-1.408-3.756c-0.093-0.249 0.033-0.526 0.281-0.619s0.525 0.033 0.619 0.281l1.409 3.756c0.093 0.249-0.033 0.526-0.281 0.619-0.056 0.021-0.113 0.031-0.169 0.031z"></path>
            <path fill="#fef5e3" style="fill: var(--color2, #fef5e3)" d="M13.828 18.010l-6.152 2.308c-0.959 0.36-2.029-0.126-2.389-1.086l-3.481-9.283c-0.026-0.071-0.048-0.142-0.065-0.213-0.221-0.9 0.262-1.843 1.152-2.176l6.152-2.308z"></path>
            <path fill="#ffe5c0" style="fill: var(--color3, #ffe5c0)" d="M13.828 18.010l-3.982 1.494-0.038-0.1-2.47-0.968c-1.691-0.664-2.527-2.579-1.865-4.27l1.496-3.876c-0.703-0.652-1.264-1.466-1.612-2.396-0.14-0.374-0.244-0.756-0.311-1.141l3.998-1.5z"></path>
            <path fill="#898ec9" style="fill: var(--color4, #898ec9)" d="M4.843 12.307l-1.887 0.708-0.53-1.413 1.886-0.708c0.331-0.124 0.701 0.043 0.825 0.375l0.080 0.213c0.124 0.332-0.044 0.701-0.375 0.825z"></path>
            <path fill="#6163aa" style="fill: var(--color5, #6163aa)" d="M22.037 7.265l-0.878 3.48c-0.341 1.352-1.714 2.172-3.066 1.831l-4.241-1.070 0.719-2.847 3.842 0.969 0.777-3.082z"></path>
            <path fill="#4e5093" style="fill: var(--color1, #4e5093)" d="M15.939 9.004l1.254 3.345-3.342-0.843 0.719-2.847z"></path>
            <path fill="#6163aa" style="fill: var(--color5, #6163aa)" d="M19.438 25.533c-0.105 0.121-0.221 0.235-0.349 0.34l-3.909 3.224-2.164-2.624 3.541-2.921-2.921-3.542 2.624-2.164 3.224 3.909c0.922 1.119 0.874 2.719-0.047 3.778z"></path>
            <path fill="#4e5093" style="fill: var(--color1, #4e5093)" d="M16.558 24.032c-0.26 0-0.473-0.207-0.48-0.468-0.007-0.265 0.202-0.486 0.468-0.493l1.667-0.045c0.265-0.008 0.486 0.202 0.493 0.468s-0.202 0.486-0.468 0.493l-1.667 0.045c-0.004 0-0.009 0-0.013 0z"></path>
            <path fill="#4e5093" style="fill: var(--color1, #4e5093)" d="M16.261 17.846l2.747 3.331-0.269-0.033-3.184 1.194-1.919-2.327z"></path>
            <path fill="#00c2cc" style="fill: var(--color6, #00c2cc)" d="M19.438 25.533c-0.478-0.243-0.869-0.659-1.072-1.2-0.392-1.044 0.054-2.197 1-2.722l0.119 0.144c0.922 1.119 0.874 2.719-0.047 3.778z"></path>
            <path fill="#898ec9" style="fill: var(--color4, #898ec9)" d="M28.069 18.136l-0.423 3.375-8.995-1.126-3.416 1.281c-1.614 0.605-3.392-0.052-4.249-1.479-0.109-0.181-0.203-0.374-0.28-0.579l-2.995-7.987 7.381-2.768 3.013 8.035 6.704 0.839z"></path>
            <path fill="#6163aa" style="fill: var(--color5, #6163aa)" d="M22.002 21.103c-0.031 0-0.062-0.003-0.093-0.009-0.261-0.051-0.43-0.304-0.379-0.564l0.261-1.332c0.051-0.261 0.304-0.43 0.564-0.379s0.43 0.304 0.379 0.564l-0.261 1.332c-0.045 0.229-0.246 0.388-0.471 0.388z"></path>
            <path fill="#ff5c3c" style="fill: var(--color7, #ff5c3c)" d="M16.5 12.609l-1.29 0.484c-0.37 0.139-0.783-0.049-0.922-0.419s0.049-0.783 0.419-0.921l1.29-0.484z"></path>
            <path fill="#6163aa" style="fill: var(--color5, #6163aa)" d="M15.092 8.854l0.507 1.352c-0.607 0.585-1.331 1.042-2.144 1.346-1.671 0.627-3.445 0.491-4.937-0.232z"></path>
            <path fill="#6163aa" style="fill: var(--color5, #6163aa)" d="M15.502 19.022l-0.497 1.267c-0.071 0.181-0.179 0.343-0.315 0.477s-0.3 0.239-0.482 0.308c-0.318 0.119-0.667 0.116-0.984-0.008l-2.239-0.878c-0.109-0.181-0.203-0.374-0.28-0.579l-2.996-7.987 2.701-1.013 1.067 0.418-1.447 3.689 1.23 0.483c0.026-0.011 0.052-0.022 0.078-0.032 0.407-0.153 0.854-0.149 1.258 0.009l0.932 0.366c0.341 0.134 0.61 0.393 0.757 0.729 0.116 0.266 0.145 0.555 0.085 0.834l0.351 0.137c0.342 0.134 0.611 0.393 0.757 0.729s0.154 0.709 0.020 1.051z"></path>
            <path fill="#2de0c7" style="fill: var(--color8, #2de0c7)" d="M24.81 17.728c-0.19 0.649-0.672 1.204-1.354 1.459-1.149 0.431-2.429-0.151-2.86-1.3-0.087-0.232-0.133-0.469-0.141-0.704z"></path>
            <path fill="#898ec9" style="fill: var(--color4, #898ec9)" d="M9.073 15.136l2.959 1.16-1.072 2.734-3.342-1.31c-1.298-0.51-1.938-1.975-1.429-3.273l2.127-5.514 2.734 1.071-0.723 1.876z"></path>
            <path fill="#6163aa" style="fill: var(--color5, #6163aa)" d="M11.051 10.005l-0.723 1.876c-0.982-0.148-1.917-0.527-2.722-1.103l0.711-1.845z"></path>
            <path fill="#2de0c7" style="fill: var(--color8, #2de0c7)" d="M14.455 17.932l-1.023-0.401 0.188-0.478c0.127-0.325-0.033-0.693-0.358-0.82l-0.932-0.365c-0.523-0.205-1.113 0.053-1.318 0.575l-0.635 1.62c-0.205 0.523 0.053 1.113 0.575 1.318l2.544 0.997c0.325 0.128 0.693-0.033 0.82-0.358l0.497-1.267c0.128-0.325-0.033-0.693-0.358-0.82z"></path>
            <path fill="#2de0c7" style="fill: var(--color8, #2de0c7)" d="M30.328 17.288l-0.544 4.348c-0.042 0.338-0.351 0.578-0.689 0.536l-1.789-0.224c-0.338-0.042-0.578-0.351-0.536-0.689l0.379-3.024c0.134-1.069 1.109-1.827 2.178-1.694l0.465 0.058c0.338 0.042 0.578 0.351 0.536 0.689z"></path>
            <path fill="#00c4ce" style="fill: var(--color9, #00c4ce)" d="M13.702 31.776l-2.788-3.381c-0.217-0.263-0.18-0.652 0.084-0.869l1.391-1.147c0.263-0.217 0.652-0.179 0.869 0.084l1.939 2.351c0.686 0.831 0.568 2.061-0.264 2.747l-0.361 0.298c-0.263 0.217-0.652 0.179-0.869-0.084z"></path>
            <path fill="#898ec9" style="fill: var(--color4, #898ec9)" d="M16.431 3.74c0.618 1.649 0.399 3.406-0.447 4.804-0.62 1.027-1.578 1.861-2.789 2.315-2.859 1.072-6.046-0.376-7.118-3.236s0.376-6.046 3.235-7.118c0.629-0.236 1.274-0.35 1.91-0.353 2.25-0.013 4.373 1.359 5.209 3.588z"></path>
            <path fill="#2de0c7" style="fill: var(--color8, #2de0c7)" d="M16.43 3.74c0.618 1.649 0.399 3.406-0.447 4.804l-5.859-1.554 1.097-6.838c0.841-0.005 1.663 0.183 2.407 0.537 0.534 0.255 1.029 0.595 1.461 1.010 0.127 0.122 0.248 0.25 0.363 0.385 0.227 0.264 0.431 0.552 0.606 0.863 0.143 0.25 0.267 0.515 0.371 0.794z"></path>
            <path fill="#9bf2e5" style="fill: var(--color10, #9bf2e5)" d="M16.059 2.947l-2.279 5.014-0.891-0.237 2.563-5.64c0.227 0.264 0.43 0.552 0.606 0.863z"></path>
            <path fill="#9bf2e5" style="fill: var(--color10, #9bf2e5)" d="M15.090 1.699l-2.68 5.897-1.714-0.454 2.933-6.453c0.535 0.255 1.029 0.595 1.461 1.010z"></path>
            <path fill="#4e5093" style="fill: var(--color1, #4e5093)" d="M10.989 7.123c0 0.687-0.557 1.244-1.244 1.244s-1.244-0.557-1.244-1.244c0-0.687 0.557-1.244 1.244-1.244s1.244 0.557 1.244 1.244z"></path>
            <path fill="#2de0c7" style="fill: var(--color8, #2de0c7)" d="M20.645 3.595l-0.269 1.065-0.499-0.126c-0.339-0.085-0.683 0.12-0.768 0.459l-0.245 0.97c-0.137 0.544 0.193 1.097 0.737 1.235l1.687 0.426c0.544 0.137 1.097-0.193 1.235-0.737l0.668-2.649c0.085-0.339-0.12-0.683-0.459-0.768l-1.32-0.333c-0.339-0.085-0.683 0.12-0.768 0.459z"></path>
            <path fill="#ff5c3c" style="fill: var(--color7, #ff5c3c)" d="M15.011 15.063c-0.195 0-0.379-0.118-0.452-0.31-0.094-0.248 0.029-0.524 0.277-0.618l0.006-0.002c0.248-0.094 0.526 0.032 0.619 0.28s-0.032 0.526-0.28 0.619c-0.056 0.021-0.114 0.031-0.171 0.031z"></path>
            <path fill="#ff5c3c" style="fill: var(--color7, #ff5c3c)" d="M15.397 16.094c-0.197 0-0.383-0.12-0.454-0.315-0.091-0.249 0.035-0.524 0.284-0.615l0.006-0.002c0.249-0.091 0.525 0.038 0.616 0.287s-0.038 0.525-0.287 0.616c-0.054 0.020-0.11 0.029-0.166 0.029z"></path>
            <path fill="#4e5093" style="fill: var(--color1, #4e5093)" d="M3.866 9.966l-1.793 0.672c-0.002 0.001-0.005 0.002-0.008 0.003l-0.26-0.691c-0.026-0.071-0.048-0.142-0.065-0.213l1.789-0.671c0.248-0.093 0.525 0.033 0.618 0.281s-0.033 0.526-0.281 0.619z"></path>
            <path fill="#898ec9" style="fill: var(--color4, #898ec9)" d="M4.171 14.623c-0.195 0-0.378-0.119-0.45-0.312-0.093-0.248 0.033-0.525 0.281-0.619l0.522-0.196c0.249-0.093 0.526 0.033 0.619 0.281s-0.033 0.526-0.281 0.619l-0.522 0.196c-0.056 0.021-0.113 0.031-0.169 0.031z"></path>
            <path fill="#898ec9" style="fill: var(--color4, #898ec9)" d="M4.549 15.631c-0.195 0-0.378-0.119-0.45-0.312-0.093-0.249 0.033-0.526 0.282-0.619l0.522-0.196c0.248-0.093 0.525 0.033 0.619 0.281s-0.033 0.526-0.281 0.619l-0.522 0.196c-0.056 0.021-0.113 0.031-0.169 0.031z"></path>
            <path fill="#00c2cc" style="fill: var(--color6, #00c2cc)" d="M28.333 22.557c-0.019 0-0.037-0.001-0.056-0.003-0.263-0.031-0.452-0.269-0.422-0.533l0.287-2.468c0.031-0.264 0.269-0.452 0.533-0.422s0.452 0.269 0.422 0.533l-0.287 2.468c-0.028 0.245-0.236 0.425-0.477 0.425z"></path>
            <path fill="#00a6cc" style="fill: var(--color11, #00a6cc)" d="M13.099 29.292c-0.138 0-0.276-0.060-0.371-0.175l-1.389-1.682c-0.169-0.205-0.14-0.508 0.065-0.677s0.507-0.14 0.677 0.065l1.389 1.682c0.169 0.205 0.14 0.508-0.064 0.677-0.090 0.074-0.198 0.11-0.306 0.11z"></path>
            <path fill="#fda736" style="fill: var(--color12, #fda736)" d="M24.145 13.763c-0.001 0-0.002 0-0.002 0-0.265-0.001-0.48-0.218-0.478-0.483l0.001-0.175c0.001-0.264 0.216-0.478 0.481-0.478h0.002c0.265 0.001 0.48 0.218 0.478 0.483l-0.001 0.175c-0.001 0.265-0.216 0.478-0.48 0.478z"></path>
            <path fill="#fda736" style="fill: var(--color12, #fda736)" d="M24.139 15.539c-0.001 0-0.001 0-0.002 0-0.265-0.001-0.48-0.217-0.479-0.483l0.001-0.174c0.001-0.265 0.216-0.479 0.48-0.479h0.002c0.265 0.001 0.48 0.218 0.478 0.483l-0.001 0.175c-0.001 0.265-0.216 0.478-0.481 0.478z"></path>
            <path fill="#fda736" style="fill: var(--color12, #fda736)" d="M25.117 14.567c-0.001 0-0.001 0-0.002 0l-0.175-0.001c-0.265-0.001-0.48-0.218-0.478-0.483s0.216-0.479 0.48-0.479h0.002l0.174 0.001c0.265 0.001 0.48 0.217 0.479 0.483-0.001 0.264-0.216 0.478-0.481 0.478z"></path>
            <path fill="#fda736" style="fill: var(--color12, #fda736)" d="M23.342 14.561c-0.001 0-0.001 0-0.002 0l-0.174-0.001c-0.266-0.001-0.48-0.218-0.479-0.483s0.216-0.478 0.48-0.478h0.002l0.174 0.001c0.266 0.001 0.48 0.217 0.479 0.483s-0.216 0.478-0.481 0.478z"></path>
            <path fill="#fed370" style="fill: var(--color13, #fed370)" d="M27.109 11.522c-0.001 0-0.002 0-0.002 0-0.265-0.001-0.48-0.218-0.478-0.483l0.001-0.175c0.001-0.265 0.216-0.478 0.481-0.478h0.002c0.266 0.001 0.48 0.218 0.479 0.483l-0.001 0.174c-0.001 0.265-0.216 0.479-0.48 0.479z"></path>
            <path fill="#fed370" style="fill: var(--color13, #fed370)" d="M27.103 13.298c-0.001 0-0.001 0-0.002 0-0.266-0.001-0.48-0.218-0.479-0.483l0.001-0.175c0.001-0.265 0.216-0.478 0.48-0.478h0.002c0.266 0.001 0.48 0.217 0.479 0.483l-0.001 0.174c-0.001 0.265-0.216 0.479-0.48 0.479z"></path>
            <path fill="#fed370" style="fill: var(--color13, #fed370)" d="M28.081 12.326c-0.001 0-0.001 0-0.002 0l-0.174-0.001c-0.265-0.001-0.48-0.217-0.478-0.483s0.216-0.478 0.48-0.478h0.002l0.175 0.001c0.265 0.001 0.48 0.217 0.478 0.483s-0.216 0.478-0.48 0.478z"></path>
            <path fill="#fed370" style="fill: var(--color13, #fed370)" d="M26.306 12.32c-0.001 0-0.002 0-0.002 0l-0.174-0.001c-0.266-0.001-0.48-0.218-0.478-0.483s0.216-0.478 0.48-0.478h0.003l0.174 0.001c0.265 0.001 0.48 0.218 0.478 0.483s-0.216 0.478-0.481 0.478z"></path>
            <path fill="#fed370" style="fill: var(--color13, #fed370)" d="M3.644 23.151c-0.001 0-0.001 0-0.002 0-0.265-0.001-0.479-0.217-0.478-0.483l0.001-0.174c0.001-0.265 0.219-0.477 0.483-0.479 0.265 0.001 0.48 0.218 0.479 0.483l-0.001 0.175c-0.001 0.265-0.216 0.478-0.48 0.478z"></path>
            <path fill="#fed370" style="fill: var(--color13, #fed370)" d="M3.638 24.927c-0.001 0-0.002 0-0.002 0-0.265-0.001-0.479-0.217-0.478-0.483l0.001-0.174c0.001-0.265 0.216-0.479 0.481-0.479h0.002c0.265 0.001 0.48 0.218 0.478 0.483l-0.001 0.174c-0.001 0.265-0.216 0.479-0.48 0.479z"></path>
            <path fill="#fed370" style="fill: var(--color13, #fed370)" d="M4.616 23.955c-0.001 0-0.002 0-0.002 0l-0.174-0.001c-0.266-0.001-0.48-0.217-0.478-0.483s0.216-0.479 0.481-0.479h0.002l0.175 0.001c0.265 0.001 0.479 0.218 0.478 0.483s-0.216 0.479-0.48 0.479z"></path>
            <path fill="#fed370" style="fill: var(--color13, #fed370)" d="M2.841 23.949c-0.001 0-0.002 0-0.002 0l-0.174-0.001c-0.265-0.001-0.479-0.218-0.478-0.483s0.216-0.478 0.48-0.478h0.002l0.175 0.001c0.265 0.001 0.479 0.217 0.478 0.483s-0.216 0.478-0.48 0.478z"></path>
            <path fill="#fda736" style="fill: var(--color12, #fda736)" d="M20.889 28.67c-0.001 0-0.001 0-0.002 0-0.266-0.001-0.48-0.218-0.479-0.483l0.001-0.174c0.001-0.265 0.216-0.478 0.48-0.478h0.002c0.265 0.001 0.48 0.218 0.478 0.483l-0.001 0.174c-0.001 0.265-0.216 0.479-0.481 0.479z"></path>
            <path fill="#fda736" style="fill: var(--color12, #fda736)" d="M20.884 30.445c-0.001 0-0.002 0-0.002 0-0.265-0.001-0.48-0.218-0.478-0.483l0.001-0.174c0.001-0.265 0.216-0.479 0.481-0.479h0.002c0.265 0.001 0.48 0.218 0.478 0.483l-0.001 0.174c-0.001 0.265-0.216 0.478-0.48 0.478z"></path>
            <path fill="#fda736" style="fill: var(--color12, #fda736)" d="M21.862 29.473c-0.001 0-0.001 0-0.002 0l-0.174-0.001c-0.265-0.001-0.48-0.218-0.478-0.483s0.216-0.479 0.48-0.479h0.002l0.175 0.001c0.265 0.001 0.48 0.217 0.478 0.483s-0.216 0.478-0.48 0.478z"></path>
            <path fill="#fda736" style="fill: var(--color12, #fda736)" d="M20.086 29.468c-0.001 0-0.002 0-0.002 0l-0.175-0.001c-0.265-0.001-0.48-0.218-0.478-0.483 0.001-0.264 0.216-0.478 0.48-0.478h0.002l0.175 0.001c0.265 0.001 0.48 0.218 0.478 0.483s-0.216 0.478-0.48 0.478z"></path>
            <path fill="#fed370" style="fill: var(--color13, #fed370)" d="M18.577 1.136c-0.001 0-0.001 0-0.002 0-0.265-0.001-0.48-0.218-0.479-0.483l0.001-0.175c0.001-0.265 0.218-0.479 0.483-0.478s0.48 0.217 0.478 0.483l-0.001 0.174c-0.001 0.265-0.216 0.479-0.481 0.479z"></path>
            <path fill="#fed370" style="fill: var(--color13, #fed370)" d="M18.572 2.911c-0.001 0-0.001 0-0.002 0-0.266-0.001-0.48-0.218-0.479-0.483l0.001-0.175c0.001-0.265 0.216-0.478 0.48-0.478h0.002c0.266 0.001 0.48 0.217 0.479 0.483l-0.001 0.174c-0.001 0.265-0.216 0.478-0.48 0.478z"></path>
            <path fill="#fed370" style="fill: var(--color13, #fed370)" d="M19.55 1.939c-0.001 0-0.001 0-0.002 0l-0.174-0.001c-0.265-0.001-0.48-0.217-0.478-0.483s0.216-0.478 0.48-0.478h0.002l0.175 0.001c0.265 0.001 0.48 0.218 0.478 0.483s-0.216 0.478-0.48 0.478z"></path>
            <path fill="#fed370" style="fill: var(--color13, #fed370)" d="M17.774 1.934c-0.001 0-0.001 0-0.002 0l-0.175-0.001c-0.265-0.001-0.48-0.218-0.478-0.483s0.216-0.478 0.48-0.478h0.002l0.175 0.001c0.265 0.001 0.48 0.217 0.478 0.483s-0.216 0.478-0.48 0.478z"></path>
        </symbol>
        <symbol id="space" viewBox="0 0 32 32">
            <title>space</title>
            <path fill="#6163aa" style="fill: var(--color1, #6163aa)" d="M6.937 10.328c-0.192 0-0.372-0.118-0.442-0.309-0.089-0.244 0.037-0.514 0.281-0.603 0.040-0.015 0.081-0.029 0.121-0.044 0.245-0.087 0.514 0.041 0.601 0.285s-0.041 0.514-0.285 0.601c-0.039 0.014-0.077 0.028-0.115 0.041-0.053 0.019-0.107 0.028-0.161 0.028zM8.549 9.814c-0.206 0-0.395-0.136-0.453-0.345-0.069-0.25 0.077-0.509 0.328-0.579 0.041-0.011 0.083-0.023 0.124-0.034 0.251-0.068 0.509 0.080 0.577 0.331s-0.081 0.509-0.331 0.577c-0.039 0.011-0.079 0.021-0.118 0.032-0.042 0.012-0.084 0.017-0.126 0.017zM10.195 9.42c-0.219 0-0.415-0.154-0.46-0.376-0.052-0.254 0.112-0.503 0.367-0.555l0.125-0.025c0.255-0.051 0.502 0.115 0.553 0.369s-0.114 0.502-0.369 0.553l-0.121 0.024c-0.031 0.006-0.063 0.010-0.094 0.010zM11.862 9.135c-0.231 0-0.432-0.17-0.465-0.405-0.036-0.257 0.144-0.495 0.401-0.531l0.126-0.017c0.257-0.035 0.494 0.146 0.529 0.403s-0.146 0.494-0.403 0.529l-0.122 0.017c-0.022 0.003-0.044 0.005-0.066 0.005z"></path>
            <path fill="#6163aa" style="fill: var(--color1, #6163aa)" d="M8.112 23.606c-0.045 0-0.090-0.006-0.135-0.020-0.041-0.012-0.082-0.025-0.123-0.037-0.248-0.076-0.388-0.339-0.312-0.587s0.339-0.388 0.587-0.312c0.039 0.012 0.078 0.024 0.117 0.035 0.249 0.074 0.39 0.336 0.316 0.585-0.061 0.204-0.248 0.335-0.45 0.335zM6.51 23.058c-0.057 0-0.115-0.011-0.171-0.032-0.040-0.016-0.080-0.031-0.119-0.047-0.241-0.096-0.359-0.369-0.263-0.611s0.369-0.359 0.611-0.263c0.038 0.015 0.076 0.030 0.114 0.045 0.242 0.094 0.361 0.367 0.267 0.609-0.072 0.186-0.25 0.299-0.438 0.299zM4.965 22.368c-0.072 0-0.145-0.016-0.213-0.051-0.039-0.020-0.077-0.039-0.115-0.059-0.23-0.12-0.32-0.404-0.201-0.634s0.403-0.32 0.634-0.201c0.036 0.019 0.072 0.037 0.108 0.056 0.231 0.118 0.324 0.401 0.206 0.632-0.083 0.163-0.248 0.257-0.419 0.257zM3.506 21.511c-0.091 0-0.183-0.026-0.264-0.081-0.036-0.025-0.072-0.049-0.107-0.074-0.213-0.148-0.266-0.441-0.118-0.655s0.441-0.266 0.655-0.118c0.033 0.023 0.066 0.046 0.099 0.068 0.215 0.146 0.271 0.438 0.125 0.653-0.091 0.134-0.239 0.206-0.39 0.206zM2.19 20.45c-0.118 0-0.236-0.044-0.327-0.132-0.032-0.031-0.064-0.062-0.095-0.093-0.184-0.184-0.184-0.481-0-0.665s0.481-0.184 0.665-0c0.028 0.028 0.055 0.055 0.084 0.083 0.187 0.18 0.192 0.478 0.011 0.665-0.092 0.095-0.215 0.143-0.338 0.143zM1.123 19.144c-0.158 0-0.312-0.079-0.401-0.224-0.024-0.039-0.047-0.077-0.070-0.116-0.131-0.224-0.056-0.512 0.168-0.643s0.512-0.056 0.643 0.168c0.019 0.033 0.039 0.066 0.059 0.099 0.136 0.221 0.067 0.511-0.154 0.647-0.077 0.047-0.162 0.070-0.246 0.070zM0.492 17.584c-0.219 0-0.416-0.155-0.46-0.378-0.009-0.046-0.018-0.092-0.025-0.138-0.043-0.256 0.13-0.499 0.386-0.541s0.499 0.13 0.542 0.386c0.006 0.036 0.013 0.073 0.020 0.109 0.051 0.255-0.114 0.502-0.369 0.553-0.031 0.006-0.062 0.009-0.093 0.009zM0.506 15.904c-0.033 0-0.066-0.003-0.099-0.011-0.254-0.054-0.416-0.304-0.361-0.558 0.010-0.045 0.020-0.091 0.031-0.136 0.062-0.252 0.316-0.406 0.569-0.344s0.406 0.317 0.344 0.569c-0.009 0.036-0.017 0.072-0.025 0.109-0.047 0.22-0.242 0.372-0.459 0.372zM1.155 14.351c-0.086 0-0.173-0.023-0.25-0.073-0.219-0.139-0.285-0.429-0.146-0.649 0.024-0.038 0.048-0.076 0.073-0.114 0.143-0.217 0.435-0.276 0.652-0.133s0.276 0.435 0.133 0.652c-0.021 0.032-0.042 0.064-0.063 0.097-0.090 0.142-0.242 0.219-0.398 0.219z"></path>
            <path fill="#6163aa" style="fill: var(--color1, #6163aa)" d="M19.891 24.471c-0.233 0-0.436-0.173-0.466-0.411-0.033-0.258 0.149-0.493 0.407-0.526l0.122-0.016c0.257-0.034 0.494 0.147 0.528 0.405s-0.147 0.494-0.405 0.528l-0.126 0.017c-0.020 0.002-0.040 0.004-0.060 0.004zM21.561 24.2c-0.219 0-0.416-0.155-0.46-0.378-0.051-0.255 0.114-0.502 0.369-0.553 0.040-0.008 0.080-0.016 0.12-0.024 0.255-0.052 0.503 0.112 0.555 0.366s-0.112 0.503-0.366 0.555c-0.041 0.009-0.083 0.017-0.125 0.025-0.031 0.006-0.062 0.009-0.093 0.009zM23.208 23.808c-0.206 0-0.395-0.136-0.453-0.344-0.070-0.25 0.077-0.509 0.327-0.579l0.118-0.033c0.25-0.071 0.51 0.074 0.581 0.324s-0.074 0.51-0.324 0.581l-0.123 0.034c-0.042 0.012-0.084 0.017-0.126 0.017zM24.821 23.299c-0.194 0-0.375-0.121-0.443-0.314-0.086-0.245 0.042-0.513 0.287-0.6l0.116-0.041c0.244-0.087 0.514 0.040 0.601 0.285s-0.040 0.514-0.285 0.601l-0.12 0.043c-0.052 0.018-0.105 0.027-0.156 0.027z"></path>
            <path fill="#6163aa" style="fill: var(--color1, #6163aa)" d="M31.423 17.869c-0.041 0-0.083-0.005-0.124-0.017-0.25-0.068-0.398-0.327-0.33-0.577 0.010-0.036 0.019-0.072 0.028-0.108 0.061-0.252 0.315-0.407 0.567-0.347s0.408 0.315 0.347 0.568c-0.011 0.045-0.022 0.090-0.035 0.135-0.057 0.209-0.247 0.346-0.453 0.346zM31.529 16.192c-0.23 0-0.431-0.169-0.465-0.403-0.005-0.037-0.011-0.074-0.018-0.11-0.044-0.256 0.127-0.499 0.383-0.543s0.499 0.127 0.543 0.383c0.008 0.045 0.015 0.091 0.021 0.137 0.037 0.257-0.141 0.495-0.398 0.532-0.023 0.003-0.045 0.005-0.068 0.005zM30.979 14.604c-0.165 0-0.324-0.087-0.411-0.241-0.019-0.033-0.038-0.066-0.057-0.099-0.132-0.224-0.058-0.512 0.166-0.644s0.512-0.058 0.644 0.166c0.023 0.039 0.046 0.078 0.068 0.118 0.127 0.227 0.046 0.513-0.181 0.64-0.073 0.041-0.151 0.060-0.229 0.060zM29.958 13.261c-0.122 0-0.244-0.047-0.336-0.142-0.028-0.028-0.055-0.056-0.084-0.084-0.184-0.183-0.185-0.481-0.002-0.665s0.481-0.185 0.665-0.002c0.031 0.031 0.062 0.063 0.093 0.094 0.182 0.186 0.178 0.483-0.008 0.665-0.092 0.089-0.21 0.134-0.329 0.134zM28.668 12.168c-0.094 0-0.189-0.028-0.272-0.087-0.032-0.023-0.065-0.046-0.098-0.069-0.213-0.148-0.266-0.441-0.118-0.654s0.441-0.266 0.654-0.118c0.036 0.025 0.072 0.050 0.107 0.075 0.212 0.151 0.261 0.444 0.111 0.656-0.092 0.129-0.237 0.198-0.384 0.198zM27.225 11.286c-0.074 0-0.149-0.018-0.219-0.055-0.036-0.019-0.072-0.038-0.108-0.056-0.23-0.119-0.321-0.403-0.201-0.634s0.403-0.321 0.634-0.201c0.038 0.020 0.077 0.040 0.114 0.060 0.23 0.121 0.317 0.406 0.196 0.636-0.084 0.159-0.248 0.251-0.416 0.251zM25.689 10.575c-0.059 0-0.118-0.011-0.176-0.034-0.038-0.015-0.075-0.031-0.114-0.045-0.241-0.096-0.359-0.369-0.263-0.611s0.369-0.359 0.611-0.263c0.040 0.016 0.080 0.032 0.119 0.048 0.241 0.097 0.357 0.372 0.26 0.612-0.074 0.183-0.25 0.294-0.436 0.294zM24.095 10.008c-0.046 0-0.093-0.007-0.14-0.021-0.039-0.012-0.078-0.024-0.117-0.036-0.249-0.075-0.389-0.338-0.313-0.587s0.338-0.388 0.586-0.313c0.041 0.012 0.082 0.025 0.123 0.038 0.248 0.077 0.386 0.341 0.31 0.588-0.063 0.202-0.249 0.331-0.449 0.331zM22.461 9.567c-0.035 0-0.071-0.004-0.106-0.012l-0.12-0.028c-0.253-0.057-0.412-0.309-0.354-0.563s0.31-0.412 0.563-0.354l0.124 0.029c0.253 0.058 0.411 0.311 0.352 0.564-0.050 0.217-0.244 0.364-0.458 0.364z"></path>
            <path fill="#6163aa" style="fill: var(--color1, #6163aa)" d="M3.634 9.281c-0.004 0-0.008 0-0.012 0-0.26-0.007-0.465-0.222-0.458-0.482 0.001-0.045 0.003-0.089 0.004-0.134 0.011-0.26 0.23-0.461 0.49-0.45s0.461 0.23 0.45 0.49c-0.002 0.039-0.003 0.078-0.004 0.117-0.007 0.256-0.216 0.459-0.47 0.459zM3.888 7.614c-0.045 0-0.091-0.007-0.137-0.021-0.249-0.075-0.389-0.338-0.313-0.586 0.013-0.044 0.027-0.087 0.042-0.131 0.082-0.246 0.348-0.38 0.594-0.299s0.38 0.348 0.299 0.594c-0.012 0.036-0.023 0.072-0.034 0.108-0.062 0.203-0.248 0.334-0.45 0.334zM4.656 6.116c-0.102 0-0.205-0.033-0.291-0.102-0.204-0.161-0.238-0.457-0.077-0.66 0.029-0.036 0.058-0.072 0.088-0.108 0.167-0.199 0.464-0.225 0.663-0.058s0.225 0.464 0.057 0.663c-0.024 0.028-0.047 0.057-0.070 0.086-0.093 0.117-0.23 0.179-0.369 0.179zM12.645 5.19c-0.053 0-0.107-0.009-0.16-0.028-0.038-0.014-0.076-0.028-0.114-0.041-0.245-0.086-0.374-0.355-0.287-0.6s0.355-0.373 0.6-0.287c0.041 0.014 0.081 0.029 0.122 0.043 0.244 0.088 0.371 0.358 0.282 0.602-0.069 0.191-0.25 0.31-0.442 0.31zM5.945 5.037c-0.167 0-0.329-0.089-0.414-0.247-0.124-0.228-0.039-0.514 0.19-0.637 0.040-0.022 0.081-0.043 0.122-0.064 0.232-0.117 0.515-0.024 0.632 0.207s0.024 0.515-0.208 0.632c-0.033 0.017-0.066 0.034-0.099 0.052-0.071 0.039-0.148 0.057-0.223 0.057zM11.025 4.704c-0.036 0-0.072-0.004-0.108-0.012-0.039-0.009-0.078-0.018-0.117-0.027-0.253-0.057-0.413-0.308-0.356-0.562s0.308-0.413 0.562-0.356c0.042 0.009 0.085 0.019 0.127 0.029 0.253 0.060 0.409 0.313 0.35 0.565-0.051 0.217-0.244 0.363-0.457 0.363zM7.542 4.505c-0.226 0-0.425-0.163-0.463-0.393-0.043-0.256 0.13-0.499 0.386-0.541 0.044-0.007 0.088-0.014 0.133-0.021 0.257-0.037 0.496 0.14 0.533 0.397s-0.14 0.496-0.397 0.533c-0.039 0.006-0.077 0.012-0.115 0.018-0.026 0.004-0.052 0.007-0.078 0.007zM9.355 4.438c-0.012 0-0.024-0-0.036-0.001-0.040-0.003-0.079-0.006-0.119-0.008-0.259-0.016-0.456-0.239-0.44-0.499s0.237-0.457 0.499-0.44c0.044 0.003 0.087 0.006 0.131 0.009 0.259 0.020 0.453 0.246 0.433 0.504-0.019 0.247-0.225 0.435-0.468 0.435z"></path>
            <path fill="#6163aa" style="fill: var(--color1, #6163aa)" d="M9.381 21.313c-0.128 0-0.255-0.052-0.348-0.154l-0.085-0.094c-0.174-0.193-0.158-0.49 0.034-0.664s0.49-0.159 0.664 0.034l0.083 0.092c0.175 0.192 0.16 0.489-0.032 0.664-0.090 0.082-0.203 0.122-0.316 0.122zM8.278 20.029c-0.137 0-0.273-0.060-0.366-0.174l-0.080-0.099c-0.162-0.203-0.13-0.499 0.072-0.661s0.499-0.13 0.661 0.072l0.078 0.096c0.163 0.202 0.132 0.498-0.070 0.661-0.087 0.071-0.192 0.105-0.296 0.105zM7.251 18.683c-0.146 0-0.291-0.068-0.383-0.196-0.025-0.035-0.050-0.070-0.074-0.104-0.15-0.212-0.1-0.505 0.112-0.656s0.505-0.1 0.656 0.112c0.024 0.033 0.047 0.067 0.071 0.1 0.151 0.211 0.103 0.505-0.109 0.656-0.083 0.059-0.178 0.088-0.273 0.088zM6.311 17.276c-0.157 0-0.311-0.079-0.4-0.222l-0.067-0.109c-0.136-0.221-0.067-0.511 0.154-0.647s0.511-0.067 0.647 0.154l0.065 0.105c0.137 0.22 0.069 0.511-0.151 0.647-0.077 0.048-0.163 0.071-0.248 0.071zM5.468 15.808c-0.169 0-0.333-0.092-0.417-0.252-0.020-0.038-0.040-0.076-0.059-0.114-0.119-0.23-0.029-0.514 0.201-0.634s0.514-0.029 0.634 0.201c0.019 0.036 0.038 0.072 0.057 0.109 0.121 0.23 0.032 0.514-0.197 0.635-0.070 0.037-0.145 0.054-0.218 0.054z"></path>
            <path fill="#6163aa" style="fill: var(--color1, #6163aa)" d="M23.336 29.134c-0.258 0-0.468-0.209-0.47-0.467-0.001-0.26 0.208-0.471 0.468-0.473 0.039 0 0.078-0.001 0.117-0.001 0.261-0.006 0.475 0.2 0.481 0.459s-0.2 0.475-0.459 0.481c-0.044 0.001-0.089 0.001-0.133 0.002-0.001 0-0.002 0-0.003 0zM21.776 29.006c-0.025 0-0.050-0.002-0.076-0.006-0.043-0.007-0.086-0.014-0.129-0.022-0.256-0.044-0.427-0.288-0.383-0.544s0.288-0.427 0.544-0.383c0.040 0.007 0.079 0.013 0.118 0.020 0.256 0.041 0.43 0.283 0.389 0.54-0.038 0.23-0.237 0.395-0.464 0.395zM25.010 28.918c-0.207 0-0.396-0.137-0.453-0.346-0.069-0.25 0.079-0.509 0.329-0.578 0.037-0.010 0.074-0.021 0.11-0.032 0.249-0.074 0.511 0.067 0.585 0.316s-0.067 0.511-0.316 0.585c-0.043 0.013-0.087 0.025-0.131 0.037-0.041 0.011-0.084 0.017-0.125 0.017zM20.129 28.619c-0.045 0-0.091-0.007-0.136-0.020-0.041-0.012-0.082-0.025-0.124-0.038-0.248-0.077-0.386-0.341-0.309-0.589s0.341-0.386 0.589-0.309c0.039 0.012 0.078 0.024 0.116 0.036 0.249 0.075 0.389 0.338 0.314 0.586-0.061 0.203-0.248 0.334-0.45 0.334zM26.532 28.198c-0.145 0-0.288-0.067-0.38-0.193-0.153-0.209-0.108-0.504 0.102-0.657 0.030-0.022 0.059-0.044 0.088-0.067 0.205-0.16 0.5-0.123 0.66 0.081s0.124 0.5-0.081 0.66c-0.037 0.029-0.074 0.057-0.112 0.084-0.084 0.061-0.181 0.091-0.277 0.091zM18.538 28.044c-0.061 0-0.122-0.012-0.181-0.037-0.040-0.016-0.079-0.033-0.118-0.050-0.239-0.102-0.35-0.378-0.248-0.617s0.378-0.35 0.617-0.248c0.038 0.016 0.075 0.032 0.113 0.048 0.239 0.1 0.352 0.376 0.252 0.615-0.075 0.18-0.25 0.289-0.434 0.289zM27.655 26.949c-0.081 0-0.162-0.021-0.237-0.064-0.224-0.131-0.3-0.419-0.169-0.643 0.019-0.032 0.037-0.065 0.055-0.098 0.125-0.228 0.411-0.311 0.638-0.186s0.311 0.411 0.186 0.638c-0.022 0.040-0.045 0.080-0.068 0.12-0.087 0.15-0.245 0.233-0.407 0.233zM28.235 25.367c-0.029 0-0.059-0.003-0.089-0.009-0.255-0.049-0.422-0.295-0.374-0.55 0.007-0.038 0.014-0.076 0.021-0.114 0.043-0.256 0.286-0.428 0.542-0.385s0.428 0.286 0.385 0.542c-0.008 0.045-0.016 0.089-0.024 0.133-0.043 0.225-0.24 0.382-0.461 0.382z"></path>
            <path fill="#6163aa" style="fill: var(--color1, #6163aa)" d="M25.858 16.572c-0.16 0-0.315-0.081-0.403-0.228-0.021-0.035-0.042-0.070-0.063-0.105-0.135-0.222-0.065-0.511 0.157-0.646s0.511-0.065 0.646 0.157c0.022 0.037 0.044 0.073 0.066 0.11 0.134 0.223 0.062 0.511-0.161 0.645-0.076 0.046-0.159 0.067-0.242 0.067zM24.937 15.152c-0.148 0-0.295-0.070-0.386-0.201l-0.071-0.101c-0.149-0.212-0.098-0.506 0.114-0.655s0.506-0.098 0.655 0.114l0.073 0.104c0.148 0.213 0.096 0.506-0.117 0.655-0.082 0.057-0.176 0.084-0.269 0.084zM23.928 13.794c-0.139 0-0.276-0.061-0.369-0.179l-0.077-0.097c-0.162-0.203-0.128-0.499 0.075-0.661s0.499-0.128 0.661 0.075l0.079 0.1c0.161 0.204 0.126 0.499-0.077 0.661-0.086 0.068-0.189 0.101-0.291 0.101zM22.84 12.497c-0.13 0-0.259-0.053-0.352-0.158l-0.083-0.092c-0.173-0.193-0.157-0.491 0.036-0.664s0.491-0.157 0.664 0.036l0.085 0.095c0.173 0.194 0.155 0.491-0.039 0.664-0.090 0.080-0.201 0.119-0.312 0.119zM21.68 11.262c-0.121 0-0.242-0.046-0.334-0.139l-0.088-0.088c-0.184-0.184-0.184-0.481-0-0.665s0.481-0.184 0.665-0.001l0.090 0.091c0.183 0.184 0.182 0.482-0.002 0.665-0.092 0.091-0.211 0.136-0.331 0.136z"></path>
            <path fill="#edff85" style="fill: var(--color2, #edff85)" d="M21.026 7.625c0 2.034-1.649 3.683-3.683 3.683s-3.682-1.649-3.682-3.683c0-2.034 1.649-3.683 3.682-3.683s3.683 1.649 3.683 3.683z"></path>
            <path fill="#c5ee09" style="fill: var(--color3, #c5ee09)" d="M21.027 7.625c0 2.034-1.649 3.683-3.683 3.683-0.278 0-0.549-0.031-0.809-0.089 1.645-0.369 2.874-1.838 2.874-3.594s-1.229-3.225-2.874-3.594c0.26-0.058 0.531-0.089 0.809-0.089 2.034 0 3.683 1.649 3.683 3.682z"></path>
            <path fill="#2de0c7" style="fill: var(--color4, #2de0c7)" d="M17.343 24.473c0 2.1-1.703 3.802-3.803 3.802s-3.802-1.702-3.802-3.802c0-2.1 1.702-3.802 3.802-3.802s3.803 1.702 3.803 3.802z"></path>
            <path fill="#00c2cc" style="fill: var(--color5, #00c2cc)" d="M16.868 22.633c1.016 1.838 0.35 4.151-1.488 5.168-0.353 0.195-0.723 0.328-1.099 0.403 1.106-1.171 1.383-2.966 0.562-4.45s-2.489-2.204-4.068-1.89c0.263-0.279 0.572-0.522 0.926-0.717 1.838-1.016 4.151-0.35 5.167 1.487z"></path>
            <path fill="#7e18ea" style="fill: var(--color6, #7e18ea)" d="M17.763 23.698c-0.835 0.747-2.034 1.567-3.375 2.309s-2.673 1.32-3.75 1.631c-0.558 0.16-1.021 0.241-1.393 0.241-0.515 0-0.853-0.155-1.024-0.465-0.307-0.555 0.094-1.302 1.228-2.282 0.095-0.081 0.212-0.119 0.327-0.114 0.043 0.294 0.12 0.586 0.235 0.871-0.605 0.532-0.844 0.879-0.919 1.044 0.193 0.026 0.665 0.003 1.547-0.278 0.964-0.306 2.134-0.829 3.294-1.471s2.226-1.355 2.997-2.008c0.707-0.598 0.978-0.985 1.058-1.163-0.18-0.024-0.601-0.006-1.373 0.225-0.179-0.249-0.386-0.47-0.613-0.662 0.057-0.101 0.152-0.181 0.271-0.218 1.433-0.438 2.278-0.381 2.586 0.174 0.294 0.534-0.064 1.243-1.097 2.167z"></path>
            <path fill="#fda736" style="fill: var(--color7, #fda736)" d="M6.125 12.040c0 1.029-0.834 1.863-1.863 1.863s-1.863-0.834-1.863-1.863 0.834-1.863 1.863-1.863c1.029 0 1.863 0.834 1.863 1.863z"></path>
            <path fill="#fd8f07" style="fill: var(--color8, #fd8f07)" d="M6.125 12.040c0 1.029-0.834 1.863-1.863 1.863-0.179 0-0.352-0.025-0.516-0.072 0.778-0.223 1.347-0.94 1.347-1.79s-0.569-1.567-1.347-1.79c0.164-0.047 0.337-0.072 0.516-0.072 1.029 0 1.863 0.834 1.863 1.863z"></path>
            <path fill="#e667f9" style="fill: var(--color9, #e667f9)" d="M31.101 20.029c0 1.523-1.235 2.758-2.759 2.758-0.913 0-1.723-0.444-2.225-1.128-0.193-0.262-0.34-0.559-0.43-0.88-0.068-0.239-0.103-0.49-0.103-0.75 0-1.523 1.235-2.759 2.758-2.759s2.759 1.235 2.759 2.759z"></path>
            <path fill="#d82fea" style="fill: var(--color10, #d82fea)" d="M31.101 20.029c0 1.523-1.235 2.758-2.759 2.758-0.264 0-0.521-0.038-0.763-0.107 0.599-0.172 1.113-0.541 1.469-1.032 0.331-0.455 0.525-1.014 0.525-1.619 0-0.043-0.001-0.087-0.003-0.129-0.055-1.202-0.879-2.202-1.992-2.522 0.242-0.070 0.499-0.107 0.763-0.107 0.752 0 1.435 0.301 1.932 0.79 0.304 0.298 0.539 0.665 0.68 1.076 0.095 0.28 0.147 0.58 0.147 0.892z"></path>
            <path fill="#c5ee09" style="fill: var(--color3, #c5ee09)" d="M23.49 4.963c-0.001 0-0.001 0-0.002 0-0.26-0.001-0.469-0.213-0.468-0.472l0.001-0.171c0.001-0.259 0.211-0.468 0.47-0.468h0.002c0.26 0.001 0.469 0.213 0.468 0.472l-0.001 0.171c-0.001 0.259-0.212 0.468-0.47 0.468z"></path>
            <path fill="#c5ee09" style="fill: var(--color3, #c5ee09)" d="M23.485 6.7c-0.001 0-0.001 0-0.002 0-0.26-0.001-0.469-0.213-0.468-0.472l0.001-0.17c0.001-0.26 0.21-0.468 0.472-0.468 0.26 0.001 0.469 0.213 0.468 0.472l-0.001 0.17c-0.001 0.259-0.212 0.468-0.47 0.468z"></path>
            <path fill="#c5ee09" style="fill: var(--color3, #c5ee09)" d="M24.442 5.75c-0.001 0-0.001 0-0.002 0l-0.171-0.001c-0.26-0.001-0.469-0.213-0.468-0.472s0.211-0.468 0.47-0.468h0.002l0.171 0.001c0.26 0.001 0.469 0.213 0.468 0.472s-0.212 0.468-0.47 0.468z"></path>
            <path fill="#c5ee09" style="fill: var(--color3, #c5ee09)" d="M22.705 5.744c-0.001 0-0.001 0-0.002 0l-0.171-0.001c-0.26-0.001-0.469-0.213-0.468-0.472s0.211-0.468 0.47-0.468h0.002l0.171 0.001c0.26 0.001 0.469 0.213 0.468 0.472s-0.212 0.468-0.47 0.468z"></path>
            <path fill="#fda736" style="fill: var(--color7, #fda736)" d="M25.56 1.924c-0.001 0-0.002 0-0.002 0-0.26-0.001-0.469-0.213-0.468-0.473l0.001-0.171c0.001-0.259 0.212-0.468 0.47-0.468h0.002c0.26 0.001 0.469 0.213 0.468 0.473l-0.001 0.171c-0.001 0.259-0.211 0.468-0.47 0.468z"></path>
            <path fill="#fda736" style="fill: var(--color7, #fda736)" d="M25.555 3.66c-0.001 0-0.001 0-0.002 0-0.26-0.001-0.469-0.213-0.468-0.472l0.001-0.17c0.001-0.259 0.212-0.468 0.47-0.468h0.002c0.26 0.001 0.469 0.213 0.468 0.472l-0.001 0.171c-0.001 0.259-0.212 0.468-0.47 0.468z"></path>
            <path fill="#fda736" style="fill: var(--color7, #fda736)" d="M26.511 2.71c-0.001 0-0.001 0-0.002 0l-0.171-0.001c-0.26-0.001-0.469-0.213-0.468-0.472s0.211-0.468 0.47-0.468h0.002l0.171 0.001c0.26 0.001 0.469 0.213 0.468 0.473s-0.211 0.468-0.47 0.468z"></path>
            <path fill="#fda736" style="fill: var(--color7, #fda736)" d="M24.775 2.704c-0.001 0-0.001 0-0.002 0l-0.17-0.001c-0.26-0.001-0.469-0.213-0.468-0.472s0.211-0.468 0.47-0.468h0.002l0.171 0.001c0.26 0.001 0.469 0.213 0.468 0.473s-0.212 0.468-0.47 0.468z"></path>
            <path fill="#fda736" style="fill: var(--color7, #fda736)" d="M4.264 25.838c-0.001 0-0.001 0-0.002 0-0.26-0.001-0.469-0.213-0.468-0.473l0.001-0.17c0.001-0.259 0.211-0.468 0.47-0.468h0.002c0.26 0.001 0.469 0.213 0.468 0.473l-0.001 0.171c-0.001 0.259-0.212 0.468-0.47 0.468z"></path>
            <path fill="#fda736" style="fill: var(--color7, #fda736)" d="M4.259 27.575c-0.001 0-0.001 0-0.002 0-0.26-0.001-0.469-0.213-0.468-0.472l0.001-0.171c0.001-0.259 0.211-0.468 0.47-0.468h0.002c0.26 0.001 0.469 0.213 0.468 0.472l-0.001 0.17c-0.001 0.259-0.211 0.468-0.47 0.468z"></path>
            <path fill="#fda736" style="fill: var(--color7, #fda736)" d="M5.216 26.625c-0.001 0-0.002 0-0.002 0l-0.171-0.001c-0.26-0.001-0.469-0.213-0.468-0.472s0.213-0.468 0.472-0.468l0.171 0.001c0.26 0.001 0.469 0.213 0.468 0.472s-0.211 0.468-0.47 0.468z"></path>
            <path fill="#fda736" style="fill: var(--color7, #fda736)" d="M3.479 26.619c-0.001 0-0.001 0-0.002 0l-0.171-0.001c-0.26-0.001-0.469-0.213-0.468-0.472s0.212-0.468 0.47-0.468h0.002l0.171 0.001c0.26 0.001 0.469 0.213 0.468 0.472s-0.211 0.468-0.47 0.468z"></path>
            <path fill="#2de0c7" style="fill: var(--color4, #2de0c7)" d="M6.674 28.656c-0.001 0-0.001 0-0.002 0-0.26-0.001-0.469-0.213-0.468-0.472l0.001-0.171c0.001-0.259 0.212-0.468 0.47-0.468h0.002c0.26 0.001 0.469 0.213 0.468 0.472l-0.001 0.171c-0.001 0.259-0.211 0.468-0.47 0.468z"></path>
            <path fill="#2de0c7" style="fill: var(--color4, #2de0c7)" d="M6.668 30.393c-0.001 0-0.001 0-0.002 0-0.26-0.001-0.469-0.213-0.468-0.472l0.001-0.171c0.001-0.259 0.212-0.468 0.47-0.468h0.002c0.26 0.001 0.469 0.213 0.468 0.472l-0.001 0.171c-0.001 0.259-0.212 0.468-0.47 0.468z"></path>
            <path fill="#2de0c7" style="fill: var(--color4, #2de0c7)" d="M7.625 29.442c-0.001 0-0.002 0-0.002 0l-0.171-0.001c-0.26-0.001-0.469-0.213-0.468-0.472s0.211-0.468 0.47-0.468h0.002l0.171 0.001c0.26 0.001 0.469 0.213 0.468 0.472s-0.211 0.468-0.47 0.468z"></path>
            <path fill="#2de0c7" style="fill: var(--color4, #2de0c7)" d="M5.888 29.437c-0.001 0-0.001 0-0.002 0l-0.171-0.001c-0.26-0.001-0.469-0.213-0.468-0.472s0.211-0.468 0.47-0.468h0.002l0.171 0.001c0.26 0.001 0.469 0.213 0.468 0.472s-0.212 0.468-0.47 0.468z"></path>
            <path fill="#fda736" style="fill: var(--color7, #fda736)" d="M2.402 2.255c-0.001 0-0.002 0-0.002 0-0.26-0.001-0.469-0.213-0.468-0.472l0.001-0.17c0.001-0.259 0.211-0.468 0.47-0.468h0.002c0.26 0.001 0.469 0.213 0.468 0.472l-0.001 0.17c-0.001 0.259-0.211 0.468-0.47 0.468z"></path>
            <path fill="#fda736" style="fill: var(--color7, #fda736)" d="M2.396 3.992c-0.001 0-0.001 0-0.002 0-0.26-0.001-0.469-0.213-0.468-0.472l0.001-0.171c0.001-0.259 0.211-0.468 0.47-0.468h0.002c0.26 0.001 0.469 0.213 0.468 0.472l-0.001 0.171c-0.001 0.259-0.211 0.468-0.47 0.468z"></path>
            <path fill="#fda736" style="fill: var(--color7, #fda736)" d="M3.353 3.041c-0.001 0-0.002 0-0.002 0l-0.171-0.001c-0.26-0.001-0.469-0.213-0.468-0.472s0.211-0.468 0.47-0.468h0.002l0.171 0.001c0.26 0.001 0.469 0.213 0.468 0.472s-0.211 0.468-0.47 0.468z"></path>
            <path fill="#fda736" style="fill: var(--color7, #fda736)" d="M1.616 3.036c-0.001 0-0.001 0-0.002 0l-0.171-0.001c-0.26-0.001-0.469-0.213-0.468-0.472s0.212-0.468 0.47-0.468h0.002l0.17 0.001c0.26 0.001 0.469 0.213 0.468 0.472s-0.211 0.468-0.47 0.468z"></path>
            <path fill="#ff2e04" style="fill: var(--color11, #ff2e04)" d="M12.044 11.798c0 0.488-0.396 0.884-0.884 0.884s-0.884-0.396-0.884-0.884c0-0.488 0.396-0.884 0.884-0.884s0.884 0.396 0.884 0.884z"></path>
            <path fill="#fd8f07" style="fill: var(--color8, #fd8f07)" d="M28.474 5.279c0 0.488-0.396 0.884-0.884 0.884s-0.884-0.396-0.884-0.884c0-0.488 0.396-0.884 0.884-0.884s0.884 0.396 0.884 0.884z"></path>
            <path fill="#d82fea" style="fill: var(--color10, #d82fea)" d="M13.195 30.282c0 0.488-0.396 0.884-0.884 0.884s-0.884-0.396-0.884-0.884c0-0.488 0.396-0.884 0.884-0.884s0.884 0.396 0.884 0.884z"></path>
            <path fill="#c5ee09" style="fill: var(--color3, #c5ee09)" d="M17.344 8.5c0 0.483-0.391 0.874-0.875 0.874s-0.874-0.392-0.874-0.874c0-0.483 0.392-0.875 0.874-0.875s0.875 0.392 0.875 0.875z"></path>
            <path fill="#84e507" style="fill: var(--color12, #84e507)" d="M17.344 8.5c0 0.483-0.392 0.874-0.875 0.874-0.16 0-0.309-0.043-0.438-0.117 0.261-0.151 0.438-0.434 0.438-0.757s-0.176-0.606-0.438-0.757c0.128-0.075 0.278-0.117 0.438-0.117 0.483 0 0.875 0.392 0.875 0.875z"></path>
            <path fill="#f0a9ff" style="fill: var(--color13, #f0a9ff)" d="M28.57 19.834c-0.782 1.287-1.873 1.696-2.453 1.825-0.193-0.262-0.34-0.559-0.43-0.88 0.125-0.010 1.288-0.132 2.079-1.433 0.135-0.222 0.424-0.293 0.646-0.158s0.292 0.425 0.158 0.646z"></path>
            <path fill="#f0a9ff" style="fill: var(--color13, #f0a9ff)" d="M30.954 19.136c-0.206 0.684-0.67 1.698-1.701 2.429-0.063 0.045-0.133 0.071-0.204 0.082-0.022 0.002-0.045 0.004-0.067 0.004-0.147 0-0.292-0.069-0.384-0.198-0.15-0.212-0.1-0.505 0.112-0.656 0.373-0.264 0.653-0.581 0.861-0.898 0.519-0.788 0.603-1.582 0.604-1.593 0.009-0.093 0.044-0.178 0.1-0.247 0.304 0.298 0.539 0.665 0.68 1.076z"></path>
        </symbol>
    </defs>
</svg>
