<svg aria-hidden="true" style="position: absolute; width: 0; height: 0; overflow: hidden;" version="1.1" xmlns="http://www.w3.org/2000/svg" xmlns:xlink="http://www.w3.org/1999/xlink">
<defs>
<symbol id="frame0" viewBox="0 0 32 32">
<title>frame0</title>
<path fill="#545e73" style="fill: var(--color1, #545e73)" d="M18.759 1.103h-2.207v1.655h-4.966v-1.655h-10.483v30.897h25.931v-30.897z"></path>
<path fill="#404656" style="fill: var(--color2, #404656)" d="M11.586 0h4.966v2.759h-4.966z"></path>
<path fill="#efebde" style="fill: var(--color3, #efebde)" d="M20.414 2.759v1.655h-12.69v-1.655h-4.966v27.586h22.621v-27.586z"></path>
<path fill="#8697cb" style="fill: var(--color4, #8697cb)" d="M16.552 1.103v1.655h-4.966v-1.655h-3.862v3.31h12.69v-3.31z"></path>
<path fill="#d5d0bb" style="fill: var(--color5, #d5d0bb)" d="M13.241 8.828h-7.172c-0.305 0-0.552-0.247-0.552-0.552s0.247-0.552 0.552-0.552h7.172c0.305 0 0.552 0.247 0.552 0.552s-0.247 0.552-0.552 0.552zM7.724 25.931h-1.655c-0.305 0-0.552-0.247-0.552-0.552s0.247-0.552 0.552-0.552h1.655c0.305 0 0.552 0.247 0.552 0.552s-0.247 0.552-0.552 0.552zM8.276 12.138h-2.207c-0.305 0-0.552-0.247-0.552-0.552s0.247-0.552 0.552-0.552h2.207c0.305 0 0.552 0.247 0.552 0.552s-0.247 0.552-0.552 0.552zM6.069 18.759v0c-0.305 0-0.552-0.247-0.552-0.552s0.247-0.552 0.552-0.552v0c0.305 0 0.552 0.247 0.552 0.552s-0.247 0.552-0.552 0.552zM11.034 22.621h-4.966c-0.305 0-0.552-0.247-0.552-0.552s0.247-0.552 0.552-0.552h4.966c0.305 0 0.552 0.247 0.552 0.552s-0.247 0.552-0.552 0.552zM13.793 15.448h-7.724c-0.305 0-0.552-0.247-0.552-0.552s0.247-0.552 0.552-0.552h7.724c0.305 0 0.552 0.247 0.552 0.552s-0.247 0.552-0.552 0.552zM22.069 15.448h-3.862c-0.305 0-0.552-0.247-0.552-0.552s0.247-0.552 0.552-0.552h3.862c0.305 0 0.552 0.247 0.552 0.552s-0.247 0.552-0.552 0.552zM16 15.448c-0.15 0-0.287-0.056-0.392-0.16-0.1-0.105-0.16-0.248-0.16-0.392 0-0.15 0.055-0.287 0.16-0.392 0.21-0.21 0.574-0.204 0.783 0 0.104 0.104 0.16 0.242 0.16 0.392s-0.061 0.287-0.16 0.392c-0.105 0.099-0.243 0.16-0.392 0.16z"></path>
<path fill="#26b999" style="fill: var(--color6, #26b999)" d="M24.276 18.759c-1.398 0-2.761 0.442-3.891 1.265s-1.974 1.981-2.406 3.31-0.432 2.762 0 4.092c0.432 1.33 1.274 2.489 2.406 3.31s2.493 1.265 3.891 1.265 2.761-0.442 3.891-1.265c1.131-0.822 1.974-1.981 2.406-3.31s0.432-2.762 0-4.092c-0.432-1.33-1.274-2.489-2.406-3.31s-2.493-1.265-3.891-1.265z"></path>
<path fill="#fff" style="fill: var(--color7, #fff)" d="M27.901 22.168c-0.251-0.174-0.594-0.113-0.768 0.138l-3.087 4.436-2.179-1.789c-0.235-0.194-0.583-0.159-0.776 0.077s-0.159 0.583 0.077 0.776l2.641 2.168c0.099 0.081 0.223 0.125 0.35 0.125 0.025 0 0.050-0.002 0.076-0.005 0.152-0.022 0.289-0.105 0.377-0.231l3.428-4.926c0.174-0.25 0.112-0.594-0.138-0.769z"></path>
</symbol>
<symbol id="frame1" viewBox="0 0 32 32">
<title>frame1</title>
<path fill="#545e73" style="fill: var(--color1, #545e73)" d="M18.759 1.103h-2.207v1.655h-4.966v-1.655h-10.483v30.897h25.931v-30.897z"></path>
<path fill="#404656" style="fill: var(--color2, #404656)" d="M11.586 0h4.966v2.759h-4.966z"></path>
<path fill="#efebde" style="fill: var(--color3, #efebde)" d="M20.414 2.759v1.655h-12.69v-1.655h-4.966v27.586h22.621v-27.586z"></path>
<path fill="#8697cb" style="fill: var(--color4, #8697cb)" d="M16.552 1.103v1.655h-4.966v-1.655h-3.862v3.31h12.69v-3.31z"></path>
<path fill="#d5d0bb" style="fill: var(--color5, #d5d0bb)" d="M13.241 8.828h-7.172c-0.305 0-0.552-0.247-0.552-0.552s0.247-0.552 0.552-0.552h9.275c0.305 0 0.552 0.247 0.552 0.552s-0.247 0.552-0.552 0.552zM8.775 25.931h-2.706c-0.305 0-0.552-0.247-0.552-0.552s0.247-0.552 0.552-0.552h2.706c0.305 0 0.552 0.247 0.552 0.552s-0.247 0.552-0.552 0.552zM10.904 12.138h-4.835c-0.305 0-0.552-0.247-0.552-0.552s0.247-0.552 0.552-0.552h4.835c0.305 0 0.552 0.247 0.552 0.552s-0.247 0.552-0.552 0.552zM9.118 18.759h-3.049c-0.305 0-0.552-0.247-0.552-0.552s0.247-0.552 0.552-0.552h3.049c0.305 0 0.552 0.247 0.552 0.552s-0.247 0.552-0.552 0.552zM13.137 22.621h-7.068c-0.305 0-0.552-0.247-0.552-0.552s0.247-0.552 0.552-0.552h7.068c0.305 0 0.552 0.247 0.552 0.552s-0.247 0.552-0.552 0.552zM13.793 15.448h-7.724c-0.305 0-0.552-0.247-0.552-0.552s0.247-0.552 0.552-0.552h7.724c0.305 0 0.552 0.247 0.552 0.552s-0.247 0.552-0.552 0.552zM22.069 15.448h-3.862c-0.305 0-0.552-0.247-0.552-0.552s0.247-0.552 0.552-0.552h3.862c0.305 0 0.552 0.247 0.552 0.552s-0.247 0.552-0.552 0.552zM16 15.448c-0.15 0-0.287-0.056-0.392-0.16-0.1-0.105-0.16-0.248-0.16-0.392 0-0.15 0.055-0.287 0.16-0.392 0.21-0.21 0.574-0.204 0.783 0 0.104 0.104 0.16 0.242 0.16 0.392s-0.061 0.287-0.16 0.392c-0.105 0.099-0.243 0.16-0.392 0.16z"></path>
<path fill="#26b999" style="fill: var(--color6, #26b999)" d="M24.276 18.759c-1.398 0-2.761 0.442-3.891 1.265s-1.974 1.981-2.406 3.31-0.432 2.762 0 4.092c0.432 1.33 1.274 2.489 2.406 3.31s2.493 1.265 3.891 1.265 2.761-0.442 3.891-1.265c1.131-0.822 1.974-1.981 2.406-3.31s0.432-2.762 0-4.092c-0.432-1.33-1.274-2.489-2.406-3.31s-2.493-1.265-3.891-1.265z"></path>
<path fill="#fff" style="fill: var(--color7, #fff)" d="M27.901 22.168c-0.251-0.174-0.594-0.113-0.768 0.138l-3.087 4.436-2.179-1.789c-0.235-0.194-0.583-0.159-0.776 0.077s-0.159 0.583 0.077 0.776l2.641 2.168c0.099 0.081 0.223 0.125 0.35 0.125 0.025 0 0.050-0.002 0.076-0.005 0.152-0.022 0.289-0.105 0.377-0.231l3.428-4.926c0.174-0.25 0.112-0.594-0.138-0.769z"></path>
</symbol>
<symbol id="frame2" viewBox="0 0 32 32">
<title>frame2</title>
<path fill="#545e73" style="fill: var(--color1, #545e73)" d="M18.759 1.103h-2.207v1.655h-4.966v-1.655h-10.483v30.897h25.931v-30.897z"></path>
<path fill="#404656" style="fill: var(--color2, #404656)" d="M11.586 0h4.966v2.759h-4.966z"></path>
<path fill="#efebde" style="fill: var(--color3, #efebde)" d="M20.414 2.759v1.655h-12.69v-1.655h-4.966v27.586h22.621v-27.586z"></path>
<path fill="#8697cb" style="fill: var(--color4, #8697cb)" d="M16.552 1.103v1.655h-4.966v-1.655h-3.862v3.31h12.69v-3.31z"></path>
<path fill="#d5d0bb" style="fill: var(--color5, #d5d0bb)" d="M13.241 8.828h-7.172c-0.305 0-0.552-0.247-0.552-0.552s0.247-0.552 0.552-0.552h10.804c0.305 0 0.552 0.247 0.552 0.552s-0.247 0.552-0.552 0.552zM9.54 25.931h-3.471c-0.305 0-0.552-0.247-0.552-0.552s0.247-0.552 0.552-0.552h3.471c0.305 0 0.552 0.247 0.552 0.552s-0.247 0.552-0.552 0.552zM12.815 12.138h-6.746c-0.305 0-0.552-0.247-0.552-0.552s0.247-0.552 0.552-0.552h6.746c0.305 0 0.552 0.247 0.552 0.552s-0.247 0.552-0.552 0.552zM11.335 18.759h-5.266c-0.305 0-0.552-0.247-0.552-0.552s0.247-0.552 0.552-0.552h5.266c0.305 0 0.552 0.247 0.552 0.552s-0.247 0.552-0.552 0.552zM14.666 22.621h-8.597c-0.305 0-0.552-0.247-0.552-0.552s0.247-0.552 0.552-0.552h8.597c0.305 0 0.552 0.247 0.552 0.552s-0.247 0.552-0.552 0.552zM13.793 15.448h-7.724c-0.305 0-0.552-0.247-0.552-0.552s0.247-0.552 0.552-0.552h7.724c0.305 0 0.552 0.247 0.552 0.552s-0.247 0.552-0.552 0.552zM22.069 15.448h-3.862c-0.305 0-0.552-0.247-0.552-0.552s0.247-0.552 0.552-0.552h3.862c0.305 0 0.552 0.247 0.552 0.552s-0.247 0.552-0.552 0.552zM16 15.448c-0.15 0-0.287-0.056-0.392-0.16-0.1-0.105-0.16-0.248-0.16-0.392 0-0.15 0.055-0.287 0.16-0.392 0.21-0.21 0.574-0.204 0.783 0 0.104 0.104 0.16 0.242 0.16 0.392s-0.061 0.287-0.16 0.392c-0.105 0.099-0.243 0.16-0.392 0.16z"></path>
<path fill="#26b999" style="fill: var(--color6, #26b999)" d="M24.276 18.759c-1.398 0-2.761 0.442-3.891 1.265s-1.974 1.981-2.406 3.31-0.432 2.762 0 4.092c0.432 1.33 1.274 2.489 2.406 3.31s2.493 1.265 3.891 1.265 2.761-0.442 3.891-1.265c1.131-0.822 1.974-1.981 2.406-3.31s0.432-2.762 0-4.092c-0.432-1.33-1.274-2.489-2.406-3.31s-2.493-1.265-3.891-1.265z"></path>
<path fill="#fff" style="fill: var(--color7, #fff)" d="M27.901 22.168c-0.251-0.174-0.594-0.113-0.768 0.138l-3.087 4.436-2.179-1.789c-0.235-0.194-0.583-0.159-0.776 0.077s-0.159 0.583 0.077 0.776l2.641 2.168c0.099 0.081 0.223 0.125 0.35 0.125 0.025 0 0.050-0.002 0.076-0.005 0.152-0.022 0.289-0.105 0.377-0.231l3.428-4.926c0.174-0.25 0.112-0.594-0.138-0.769z"></path>
</symbol>
<symbol id="frame3" viewBox="0 0 32 32">
<title>frame3</title>
<path fill="#545e73" style="fill: var(--color1, #545e73)" d="M18.759 1.103h-2.207v1.655h-4.966v-1.655h-10.483v30.897h25.931v-30.897z"></path>
<path fill="#404656" style="fill: var(--color2, #404656)" d="M11.586 0h4.966v2.759h-4.966z"></path>
<path fill="#efebde" style="fill: var(--color3, #efebde)" d="M20.414 2.759v1.655h-12.69v-1.655h-4.966v27.586h22.621v-27.586z"></path>
<path fill="#8697cb" style="fill: var(--color4, #8697cb)" d="M16.552 1.103v1.655h-4.966v-1.655h-3.862v3.31h12.69v-3.31z"></path>
<path fill="#d5d0bb" style="fill: var(--color5, #d5d0bb)" d="M13.241 8.828h-7.172c-0.305 0-0.552-0.247-0.552-0.552s0.247-0.552 0.552-0.552h12.045c0.305 0 0.552 0.247 0.552 0.552s-0.247 0.552-0.552 0.552zM10.161 25.931h-4.092c-0.305 0-0.552-0.247-0.552-0.552s0.247-0.552 0.552-0.552h4.092c0.305 0 0.552 0.247 0.552 0.552s-0.247 0.552-0.552 0.552zM14.366 12.138h-8.297c-0.305 0-0.552-0.247-0.552-0.552s0.247-0.552 0.552-0.552h8.297c0.305 0 0.552 0.247 0.552 0.552s-0.247 0.552-0.552 0.552zM13.134 18.759h-7.065c-0.305 0-0.552-0.247-0.552-0.552s0.247-0.552 0.552-0.552h7.065c0.305 0 0.552 0.247 0.552 0.552s-0.247 0.552-0.552 0.552zM15.907 22.621h-9.838c-0.305 0-0.552-0.247-0.552-0.552s0.247-0.552 0.552-0.552h9.838c0.305 0 0.552 0.247 0.552 0.552s-0.247 0.552-0.552 0.552zM13.793 15.448h-7.724c-0.305 0-0.552-0.247-0.552-0.552s0.247-0.552 0.552-0.552h7.724c0.305 0 0.552 0.247 0.552 0.552s-0.247 0.552-0.552 0.552zM22.069 15.448h-3.862c-0.305 0-0.552-0.247-0.552-0.552s0.247-0.552 0.552-0.552h3.862c0.305 0 0.552 0.247 0.552 0.552s-0.247 0.552-0.552 0.552zM16 15.448c-0.15 0-0.287-0.056-0.392-0.16-0.1-0.105-0.16-0.248-0.16-0.392 0-0.15 0.055-0.287 0.16-0.392 0.21-0.21 0.574-0.204 0.783 0 0.104 0.104 0.16 0.242 0.16 0.392s-0.061 0.287-0.16 0.392c-0.105 0.099-0.243 0.16-0.392 0.16z"></path>
<path fill="#26b999" style="fill: var(--color6, #26b999)" d="M24.276 18.759c-1.398 0-2.761 0.442-3.891 1.265s-1.974 1.981-2.406 3.31-0.432 2.762 0 4.092c0.432 1.33 1.274 2.489 2.406 3.31s2.493 1.265 3.891 1.265 2.761-0.442 3.891-1.265c1.131-0.822 1.974-1.981 2.406-3.31s0.432-2.762 0-4.092c-0.432-1.33-1.274-2.489-2.406-3.31s-2.493-1.265-3.891-1.265z"></path>
<path fill="#fff" style="fill: var(--color7, #fff)" d="M27.901 22.168c-0.251-0.174-0.594-0.113-0.768 0.138l-3.087 4.436-2.179-1.789c-0.235-0.194-0.583-0.159-0.776 0.077s-0.159 0.583 0.077 0.776l2.641 2.168c0.099 0.081 0.223 0.125 0.35 0.125 0.025 0 0.050-0.002 0.076-0.005 0.152-0.022 0.289-0.105 0.377-0.231l3.428-4.926c0.174-0.25 0.112-0.594-0.138-0.769z"></path>
</symbol>
<symbol id="frame4" viewBox="0 0 32 32">
<title>frame4</title>
<path fill="#545e73" style="fill: var(--color1, #545e73)" d="M18.759 1.103h-2.207v1.655h-4.966v-1.655h-10.483v30.897h25.931v-30.897z"></path>
<path fill="#404656" style="fill: var(--color2, #404656)" d="M11.586 0h4.966v2.759h-4.966z"></path>
<path fill="#efebde" style="fill: var(--color3, #efebde)" d="M20.414 2.759v1.655h-12.69v-1.655h-4.966v27.586h22.621v-27.586z"></path>
<path fill="#8697cb" style="fill: var(--color4, #8697cb)" d="M16.552 1.103v1.655h-4.966v-1.655h-3.862v3.31h12.69v-3.31z"></path>
<path fill="#d5d0bb" style="fill: var(--color5, #d5d0bb)" d="M13.241 8.828h-7.172c-0.305 0-0.552-0.247-0.552-0.552s0.247-0.552 0.552-0.552h13.085c0.305 0 0.552 0.247 0.552 0.552s-0.247 0.552-0.552 0.552zM10.681 25.931h-4.612c-0.305 0-0.552-0.247-0.552-0.552s0.247-0.552 0.552-0.552h4.612c0.305 0 0.552 0.247 0.552 0.552s-0.247 0.552-0.552 0.552zM15.667 12.138h-9.598c-0.305 0-0.552-0.247-0.552-0.552s0.247-0.552 0.552-0.552h9.598c0.305 0 0.552 0.247 0.552 0.552s-0.247 0.552-0.552 0.552zM14.643 18.759h-8.574c-0.305 0-0.552-0.247-0.552-0.552s0.247-0.552 0.552-0.552h8.574c0.305 0 0.552 0.247 0.552 0.552s-0.247 0.552-0.552 0.552zM16.947 22.621h-10.878c-0.305 0-0.552-0.247-0.552-0.552s0.247-0.552 0.552-0.552h10.878c0.305 0 0.552 0.247 0.552 0.552s-0.247 0.552-0.552 0.552zM13.793 15.448h-7.724c-0.305 0-0.552-0.247-0.552-0.552s0.247-0.552 0.552-0.552h7.724c0.305 0 0.552 0.247 0.552 0.552s-0.247 0.552-0.552 0.552zM22.069 15.448h-3.862c-0.305 0-0.552-0.247-0.552-0.552s0.247-0.552 0.552-0.552h3.862c0.305 0 0.552 0.247 0.552 0.552s-0.247 0.552-0.552 0.552zM16 15.448c-0.15 0-0.287-0.056-0.392-0.16-0.1-0.105-0.16-0.248-0.16-0.392 0-0.15 0.055-0.287 0.16-0.392 0.21-0.21 0.574-0.204 0.783 0 0.104 0.104 0.16 0.242 0.16 0.392s-0.061 0.287-0.16 0.392c-0.105 0.099-0.243 0.16-0.392 0.16z"></path>
<path fill="#26b999" style="fill: var(--color6, #26b999)" d="M24.276 18.759c-1.398 0-2.761 0.442-3.891 1.265s-1.974 1.981-2.406 3.31-0.432 2.762 0 4.092c0.432 1.33 1.274 2.489 2.406 3.31s2.493 1.265 3.891 1.265 2.761-0.442 3.891-1.265c1.131-0.822 1.974-1.981 2.406-3.31s0.432-2.762 0-4.092c-0.432-1.33-1.274-2.489-2.406-3.31s-2.493-1.265-3.891-1.265z"></path>
<path fill="#fff" style="fill: var(--color7, #fff)" d="M27.901 22.168c-0.251-0.174-0.594-0.113-0.768 0.138l-3.087 4.436-2.179-1.789c-0.235-0.194-0.583-0.159-0.776 0.077s-0.159 0.583 0.077 0.776l2.641 2.168c0.099 0.081 0.223 0.125 0.35 0.125 0.025 0 0.050-0.002 0.076-0.005 0.152-0.022 0.289-0.105 0.377-0.231l3.428-4.926c0.174-0.25 0.112-0.594-0.138-0.769z"></path>
</symbol>
<symbol id="frame5" viewBox="0 0 32 32">
<title>frame5</title>
<path fill="#545e73" style="fill: var(--color1, #545e73)" d="M18.759 1.103h-2.207v1.655h-4.966v-1.655h-10.483v30.897h25.931v-30.897z"></path>
<path fill="#404656" style="fill: var(--color2, #404656)" d="M11.586 0h4.966v2.759h-4.966z"></path>
<path fill="#efebde" style="fill: var(--color3, #efebde)" d="M20.414 2.759v1.655h-12.69v-1.655h-4.966v27.586h22.621v-27.586z"></path>
<path fill="#8697cb" style="fill: var(--color4, #8697cb)" d="M16.552 1.103v1.655h-4.966v-1.655h-3.862v3.31h12.69v-3.31z"></path>
<path fill="#d5d0bb" style="fill: var(--color5, #d5d0bb)" d="M13.241 8.828h-7.172c-0.305 0-0.552-0.247-0.552-0.552s0.247-0.552 0.552-0.552h13.971c0.305 0 0.552 0.247 0.552 0.552s-0.247 0.552-0.552 0.552zM11.124 25.931h-5.055c-0.305 0-0.552-0.247-0.552-0.552s0.247-0.552 0.552-0.552h5.055c0.305 0 0.552 0.247 0.552 0.552s-0.247 0.552-0.552 0.552zM16.775 12.138h-10.706c-0.305 0-0.552-0.247-0.552-0.552s0.247-0.552 0.552-0.552h10.706c0.305 0 0.552 0.247 0.552 0.552s-0.247 0.552-0.552 0.552zM15.928 18.759h-9.859c-0.305 0-0.552-0.247-0.552-0.552s0.247-0.552 0.552-0.552h9.859c0.305 0 0.552 0.247 0.552 0.552s-0.247 0.552-0.552 0.552zM17.833 22.621h-11.764c-0.305 0-0.552-0.247-0.552-0.552s0.247-0.552 0.552-0.552h11.764c0.305 0 0.552 0.247 0.552 0.552s-0.247 0.552-0.552 0.552zM13.793 15.448h-7.724c-0.305 0-0.552-0.247-0.552-0.552s0.247-0.552 0.552-0.552h7.724c0.305 0 0.552 0.247 0.552 0.552s-0.247 0.552-0.552 0.552zM22.069 15.448h-3.862c-0.305 0-0.552-0.247-0.552-0.552s0.247-0.552 0.552-0.552h3.862c0.305 0 0.552 0.247 0.552 0.552s-0.247 0.552-0.552 0.552zM16 15.448c-0.15 0-0.287-0.056-0.392-0.16-0.1-0.105-0.16-0.248-0.16-0.392 0-0.15 0.055-0.287 0.16-0.392 0.21-0.21 0.574-0.204 0.783 0 0.104 0.104 0.16 0.242 0.16 0.392s-0.061 0.287-0.16 0.392c-0.105 0.099-0.243 0.16-0.392 0.16z"></path>
<path fill="#26b999" style="fill: var(--color6, #26b999)" d="M24.276 18.759c-1.398 0-2.761 0.442-3.891 1.265s-1.974 1.981-2.406 3.31-0.432 2.762 0 4.092c0.432 1.33 1.274 2.489 2.406 3.31s2.493 1.265 3.891 1.265 2.761-0.442 3.891-1.265c1.131-0.822 1.974-1.981 2.406-3.31s0.432-2.762 0-4.092c-0.432-1.33-1.274-2.489-2.406-3.31s-2.493-1.265-3.891-1.265z"></path>
<path fill="#fff" style="fill: var(--color7, #fff)" d="M27.901 22.168c-0.251-0.174-0.594-0.113-0.768 0.138l-3.087 4.436-2.179-1.789c-0.235-0.194-0.583-0.159-0.776 0.077s-0.159 0.583 0.077 0.776l2.641 2.168c0.099 0.081 0.223 0.125 0.35 0.125 0.025 0 0.050-0.002 0.076-0.005 0.152-0.022 0.289-0.105 0.377-0.231l3.428-4.926c0.174-0.25 0.112-0.594-0.138-0.769z"></path>
</symbol>
<symbol id="frame6" viewBox="0 0 32 32">
<title>frame6</title>
<path fill="#545e73" style="fill: var(--color1, #545e73)" d="M18.759 1.103h-2.207v1.655h-4.966v-1.655h-10.483v30.897h25.931v-30.897z"></path>
<path fill="#404656" style="fill: var(--color2, #404656)" d="M11.586 0h4.966v2.759h-4.966z"></path>
<path fill="#efebde" style="fill: var(--color3, #efebde)" d="M20.414 2.759v1.655h-12.69v-1.655h-4.966v27.586h22.621v-27.586z"></path>
<path fill="#8697cb" style="fill: var(--color4, #8697cb)" d="M16.552 1.103v1.655h-4.966v-1.655h-3.862v3.31h12.69v-3.31z"></path>
<path fill="#d5d0bb" style="fill: var(--color5, #d5d0bb)" d="M13.241 8.828h-7.172c-0.305 0-0.552-0.247-0.552-0.552s0.247-0.552 0.552-0.552h14.732c0.305 0 0.552 0.247 0.552 0.552s-0.247 0.552-0.552 0.552zM11.504 25.931h-5.435c-0.305 0-0.552-0.247-0.552-0.552s0.247-0.552 0.552-0.552h5.435c0.305 0 0.552 0.247 0.552 0.552s-0.247 0.552-0.552 0.552zM17.725 12.138h-11.656c-0.305 0-0.552-0.247-0.552-0.552s0.247-0.552 0.552-0.552h11.656c0.305 0 0.552 0.247 0.552 0.552s-0.247 0.552-0.552 0.552zM17.031 18.759h-10.962c-0.305 0-0.552-0.247-0.552-0.552s0.247-0.552 0.552-0.552h10.962c0.305 0 0.552 0.247 0.552 0.552s-0.247 0.552-0.552 0.552zM18.594 22.621h-12.525c-0.305 0-0.552-0.247-0.552-0.552s0.247-0.552 0.552-0.552h12.525c0.305 0 0.552 0.247 0.552 0.552s-0.247 0.552-0.552 0.552zM13.793 15.448h-7.724c-0.305 0-0.552-0.247-0.552-0.552s0.247-0.552 0.552-0.552h7.724c0.305 0 0.552 0.247 0.552 0.552s-0.247 0.552-0.552 0.552zM22.069 15.448h-3.862c-0.305 0-0.552-0.247-0.552-0.552s0.247-0.552 0.552-0.552h3.862c0.305 0 0.552 0.247 0.552 0.552s-0.247 0.552-0.552 0.552zM16 15.448c-0.15 0-0.287-0.056-0.392-0.16-0.1-0.105-0.16-0.248-0.16-0.392 0-0.15 0.055-0.287 0.16-0.392 0.21-0.21 0.574-0.204 0.783 0 0.104 0.104 0.16 0.242 0.16 0.392s-0.061 0.287-0.16 0.392c-0.105 0.099-0.243 0.16-0.392 0.16z"></path>
<path fill="#26b999" style="fill: var(--color6, #26b999)" d="M24.276 18.759c-1.398 0-2.761 0.442-3.891 1.265s-1.974 1.981-2.406 3.31-0.432 2.762 0 4.092c0.432 1.33 1.274 2.489 2.406 3.31s2.493 1.265 3.891 1.265 2.761-0.442 3.891-1.265c1.131-0.822 1.974-1.981 2.406-3.31s0.432-2.762 0-4.092c-0.432-1.33-1.274-2.489-2.406-3.31s-2.493-1.265-3.891-1.265z"></path>
<path fill="#fff" style="fill: var(--color7, #fff)" d="M27.901 22.168c-0.251-0.174-0.594-0.113-0.768 0.138l-3.087 4.436-2.179-1.789c-0.235-0.194-0.583-0.159-0.776 0.077s-0.159 0.583 0.077 0.776l2.641 2.168c0.099 0.081 0.223 0.125 0.35 0.125 0.025 0 0.050-0.002 0.076-0.005 0.152-0.022 0.289-0.105 0.377-0.231l3.428-4.926c0.174-0.25 0.112-0.594-0.138-0.769z"></path>
</symbol>
<symbol id="frame7" viewBox="0 0 32 32">
<title>frame7</title>
<path fill="#545e73" style="fill: var(--color1, #545e73)" d="M18.759 1.103h-2.207v1.655h-4.966v-1.655h-10.483v30.897h25.931v-30.897z"></path>
<path fill="#404656" style="fill: var(--color2, #404656)" d="M11.586 0h4.966v2.759h-4.966z"></path>
<path fill="#efebde" style="fill: var(--color3, #efebde)" d="M20.414 2.759v1.655h-12.69v-1.655h-4.966v27.586h22.621v-27.586z"></path>
<path fill="#8697cb" style="fill: var(--color4, #8697cb)" d="M16.552 1.103v1.655h-4.966v-1.655h-3.862v3.31h12.69v-3.31z"></path>
<path fill="#d5d0bb" style="fill: var(--color5, #d5d0bb)" d="M13.241 8.828h-7.172c-0.305 0-0.552-0.247-0.552-0.552s0.247-0.552 0.552-0.552h15.387c0.305 0 0.552 0.247 0.552 0.552s-0.247 0.552-0.552 0.552zM11.831 25.931h-5.762c-0.305 0-0.552-0.247-0.552-0.552s0.247-0.552 0.552-0.552h5.762c0.305 0 0.552 0.247 0.552 0.552s-0.247 0.552-0.552 0.552zM18.544 12.138h-12.475c-0.305 0-0.552-0.247-0.552-0.552s0.247-0.552 0.552-0.552h12.475c0.305 0 0.552 0.247 0.552 0.552s-0.247 0.552-0.552 0.552zM17.98 18.759h-11.911c-0.305 0-0.552-0.247-0.552-0.552s0.247-0.552 0.552-0.552h11.911c0.305 0 0.552 0.247 0.552 0.552s-0.247 0.552-0.552 0.552zM19.249 22.621h-13.18c-0.305 0-0.552-0.247-0.552-0.552s0.247-0.552 0.552-0.552h13.18c0.305 0 0.552 0.247 0.552 0.552s-0.247 0.552-0.552 0.552zM13.793 15.448h-7.724c-0.305 0-0.552-0.247-0.552-0.552s0.247-0.552 0.552-0.552h7.724c0.305 0 0.552 0.247 0.552 0.552s-0.247 0.552-0.552 0.552zM22.069 15.448h-3.862c-0.305 0-0.552-0.247-0.552-0.552s0.247-0.552 0.552-0.552h3.862c0.305 0 0.552 0.247 0.552 0.552s-0.247 0.552-0.552 0.552zM16 15.448c-0.15 0-0.287-0.056-0.392-0.16-0.1-0.105-0.16-0.248-0.16-0.392 0-0.15 0.055-0.287 0.16-0.392 0.21-0.21 0.574-0.204 0.783 0 0.104 0.104 0.16 0.242 0.16 0.392s-0.061 0.287-0.16 0.392c-0.105 0.099-0.243 0.16-0.392 0.16z"></path>
<path fill="#26b999" style="fill: var(--color6, #26b999)" d="M24.276 18.759c-1.398 0-2.761 0.442-3.891 1.265s-1.974 1.981-2.406 3.31-0.432 2.762 0 4.092c0.432 1.33 1.274 2.489 2.406 3.31s2.493 1.265 3.891 1.265 2.761-0.442 3.891-1.265c1.131-0.822 1.974-1.981 2.406-3.31s0.432-2.762 0-4.092c-0.432-1.33-1.274-2.489-2.406-3.31s-2.493-1.265-3.891-1.265z"></path>
<path fill="#fff" style="fill: var(--color7, #fff)" d="M27.901 22.168c-0.251-0.174-0.594-0.113-0.768 0.138l-3.087 4.436-2.179-1.789c-0.235-0.194-0.583-0.159-0.776 0.077s-0.159 0.583 0.077 0.776l2.641 2.168c0.099 0.081 0.223 0.125 0.35 0.125 0.025 0 0.050-0.002 0.076-0.005 0.152-0.022 0.289-0.105 0.377-0.231l3.428-4.926c0.174-0.25 0.112-0.594-0.138-0.769z"></path>
</symbol>
<symbol id="frame8" viewBox="0 0 32 32">
<title>frame8</title>
<path fill="#545e73" style="fill: var(--color1, #545e73)" d="M18.759 1.103h-2.207v1.655h-4.966v-1.655h-10.483v30.897h25.931v-30.897z"></path>
<path fill="#404656" style="fill: var(--color2, #404656)" d="M11.586 0h4.966v2.759h-4.966z"></path>
<path fill="#efebde" style="fill: var(--color3, #efebde)" d="M20.414 2.759v1.655h-12.69v-1.655h-4.966v27.586h22.621v-27.586z"></path>
<path fill="#8697cb" style="fill: var(--color4, #8697cb)" d="M16.552 1.103v1.655h-4.966v-1.655h-3.862v3.31h12.69v-3.31z"></path>
<path fill="#d5d0bb" style="fill: var(--color5, #d5d0bb)" d="M13.241 8.828h-7.172c-0.305 0-0.552-0.247-0.552-0.552s0.247-0.552 0.552-0.552h15.95c0.305 0 0.552 0.247 0.552 0.552s-0.247 0.552-0.552 0.552zM12.113 25.931h-6.044c-0.305 0-0.552-0.247-0.552-0.552s0.247-0.552 0.552-0.552h6.044c0.305 0 0.552 0.247 0.552 0.552s-0.247 0.552-0.552 0.552zM19.248 12.138h-13.179c-0.305 0-0.552-0.247-0.552-0.552s0.247-0.552 0.552-0.552h13.179c0.305 0 0.552 0.247 0.552 0.552s-0.247 0.552-0.552 0.552zM18.797 18.759h-12.728c-0.305 0-0.552-0.247-0.552-0.552s0.247-0.552 0.552-0.552h12.728c0.305 0 0.552 0.247 0.552 0.552s-0.247 0.552-0.552 0.552zM19.812 22.621h-13.743c-0.305 0-0.552-0.247-0.552-0.552s0.247-0.552 0.552-0.552h13.743c0.305 0 0.552 0.247 0.552 0.552s-0.247 0.552-0.552 0.552zM13.793 15.448h-7.724c-0.305 0-0.552-0.247-0.552-0.552s0.247-0.552 0.552-0.552h7.724c0.305 0 0.552 0.247 0.552 0.552s-0.247 0.552-0.552 0.552zM22.069 15.448h-3.862c-0.305 0-0.552-0.247-0.552-0.552s0.247-0.552 0.552-0.552h3.862c0.305 0 0.552 0.247 0.552 0.552s-0.247 0.552-0.552 0.552zM16 15.448c-0.15 0-0.287-0.056-0.392-0.16-0.1-0.105-0.16-0.248-0.16-0.392 0-0.15 0.055-0.287 0.16-0.392 0.21-0.21 0.574-0.204 0.783 0 0.104 0.104 0.16 0.242 0.16 0.392s-0.061 0.287-0.16 0.392c-0.105 0.099-0.243 0.16-0.392 0.16z"></path>
<path fill="#26b999" style="fill: var(--color6, #26b999)" d="M24.276 18.759c-1.398 0-2.761 0.442-3.891 1.265s-1.974 1.981-2.406 3.31-0.432 2.762 0 4.092c0.432 1.33 1.274 2.489 2.406 3.31s2.493 1.265 3.891 1.265 2.761-0.442 3.891-1.265c1.131-0.822 1.974-1.981 2.406-3.31s0.432-2.762 0-4.092c-0.432-1.33-1.274-2.489-2.406-3.31s-2.493-1.265-3.891-1.265z"></path>
<path fill="#fff" style="fill: var(--color7, #fff)" d="M27.901 22.168c-0.251-0.174-0.594-0.113-0.768 0.138l-3.087 4.436-2.179-1.789c-0.235-0.194-0.583-0.159-0.776 0.077s-0.159 0.583 0.077 0.776l2.641 2.168c0.099 0.081 0.223 0.125 0.35 0.125 0.025 0 0.050-0.002 0.076-0.005 0.152-0.022 0.289-0.105 0.377-0.231l3.428-4.926c0.174-0.25 0.112-0.594-0.138-0.769z"></path>
</symbol>
<symbol id="frame9" viewBox="0 0 32 32">
<title>frame9</title>
<path fill="#545e73" style="fill: var(--color1, #545e73)" d="M18.759 1.103h-2.207v1.655h-4.966v-1.655h-10.483v30.897h25.931v-30.897z"></path>
<path fill="#404656" style="fill: var(--color2, #404656)" d="M11.586 0h4.966v2.759h-4.966z"></path>
<path fill="#efebde" style="fill: var(--color3, #efebde)" d="M20.414 2.759v1.655h-12.69v-1.655h-4.966v27.586h22.621v-27.586z"></path>
<path fill="#8697cb" style="fill: var(--color4, #8697cb)" d="M16.552 1.103v1.655h-4.966v-1.655h-3.862v3.31h12.69v-3.31z"></path>
<path fill="#d5d0bb" style="fill: var(--color5, #d5d0bb)" d="M13.241 8.828h-7.172c-0.305 0-0.552-0.247-0.552-0.552s0.247-0.552 0.552-0.552h16.433c0.305 0 0.552 0.247 0.552 0.552s-0.247 0.552-0.552 0.552zM12.354 25.931h-6.285c-0.305 0-0.552-0.247-0.552-0.552s0.247-0.552 0.552-0.552h6.285c0.305 0 0.552 0.247 0.552 0.552s-0.247 0.552-0.552 0.552zM19.852 12.138h-13.783c-0.305 0-0.552-0.247-0.552-0.552s0.247-0.552 0.552-0.552h13.783c0.305 0 0.552 0.247 0.552 0.552s-0.247 0.552-0.552 0.552zM19.497 18.759h-13.428c-0.305 0-0.552-0.247-0.552-0.552s0.247-0.552 0.552-0.552h13.428c0.305 0 0.552 0.247 0.552 0.552s-0.247 0.552-0.552 0.552zM20.295 22.621h-14.226c-0.305 0-0.552-0.247-0.552-0.552s0.247-0.552 0.552-0.552h14.226c0.305 0 0.552 0.247 0.552 0.552s-0.247 0.552-0.552 0.552zM13.793 15.448h-7.724c-0.305 0-0.552-0.247-0.552-0.552s0.247-0.552 0.552-0.552h7.724c0.305 0 0.552 0.247 0.552 0.552s-0.247 0.552-0.552 0.552zM22.069 15.448h-3.862c-0.305 0-0.552-0.247-0.552-0.552s0.247-0.552 0.552-0.552h3.862c0.305 0 0.552 0.247 0.552 0.552s-0.247 0.552-0.552 0.552zM16 15.448c-0.15 0-0.287-0.056-0.392-0.16-0.1-0.105-0.16-0.248-0.16-0.392 0-0.15 0.055-0.287 0.16-0.392 0.21-0.21 0.574-0.204 0.783 0 0.104 0.104 0.16 0.242 0.16 0.392s-0.061 0.287-0.16 0.392c-0.105 0.099-0.243 0.16-0.392 0.16z"></path>
<path fill="#26b999" style="fill: var(--color6, #26b999)" d="M24.276 18.759c-1.398 0-2.761 0.442-3.891 1.265s-1.974 1.981-2.406 3.31-0.432 2.762 0 4.092c0.432 1.33 1.274 2.489 2.406 3.31s2.493 1.265 3.891 1.265 2.761-0.442 3.891-1.265c1.131-0.822 1.974-1.981 2.406-3.31s0.432-2.762 0-4.092c-0.432-1.33-1.274-2.489-2.406-3.31s-2.493-1.265-3.891-1.265z"></path>
<path fill="#fff" style="fill: var(--color7, #fff)" d="M27.901 22.168c-0.251-0.174-0.594-0.113-0.768 0.138l-3.087 4.436-2.179-1.789c-0.235-0.194-0.583-0.159-0.776 0.077s-0.159 0.583 0.077 0.776l2.641 2.168c0.099 0.081 0.223 0.125 0.35 0.125 0.025 0 0.050-0.002 0.076-0.005 0.152-0.022 0.289-0.105 0.377-0.231l3.428-4.926c0.174-0.25 0.112-0.594-0.138-0.769z"></path>
</symbol>
<symbol id="frame10" viewBox="0 0 32 32">
<title>frame10</title>
<path fill="#545e73" style="fill: var(--color1, #545e73)" d="M18.759 1.103h-2.207v1.655h-4.966v-1.655h-10.483v30.897h25.931v-30.897z"></path>
<path fill="#404656" style="fill: var(--color2, #404656)" d="M11.586 0h4.966v2.759h-4.966z"></path>
<path fill="#efebde" style="fill: var(--color3, #efebde)" d="M20.414 2.759v1.655h-12.69v-1.655h-4.966v27.586h22.621v-27.586z"></path>
<path fill="#8697cb" style="fill: var(--color4, #8697cb)" d="M16.552 1.103v1.655h-4.966v-1.655h-3.862v3.31h12.69v-3.31z"></path>
<path fill="#d5d0bb" style="fill: var(--color5, #d5d0bb)" d="M13.241 8.828h-7.172c-0.305 0-0.552-0.247-0.552-0.552s0.247-0.552 0.552-0.552h16.844c0.305 0 0.552 0.247 0.552 0.552s-0.247 0.552-0.552 0.552zM12.56 25.931h-6.491c-0.305 0-0.552-0.247-0.552-0.552s0.247-0.552 0.552-0.552h6.491c0.305 0 0.552 0.247 0.552 0.552s-0.247 0.552-0.552 0.552zM20.366 12.138h-14.297c-0.305 0-0.552-0.247-0.552-0.552s0.247-0.552 0.552-0.552h14.297c0.305 0 0.552 0.247 0.552 0.552s-0.247 0.552-0.552 0.552zM20.093 18.759h-14.024c-0.305 0-0.552-0.247-0.552-0.552s0.247-0.552 0.552-0.552h14.024c0.305 0 0.552 0.247 0.552 0.552s-0.247 0.552-0.552 0.552zM20.706 22.621h-14.637c-0.305 0-0.552-0.247-0.552-0.552s0.247-0.552 0.552-0.552h14.637c0.305 0 0.552 0.247 0.552 0.552s-0.247 0.552-0.552 0.552zM13.793 15.448h-7.724c-0.305 0-0.552-0.247-0.552-0.552s0.247-0.552 0.552-0.552h7.724c0.305 0 0.552 0.247 0.552 0.552s-0.247 0.552-0.552 0.552zM22.069 15.448h-3.862c-0.305 0-0.552-0.247-0.552-0.552s0.247-0.552 0.552-0.552h3.862c0.305 0 0.552 0.247 0.552 0.552s-0.247 0.552-0.552 0.552zM16 15.448c-0.15 0-0.287-0.056-0.392-0.16-0.1-0.105-0.16-0.248-0.16-0.392 0-0.15 0.055-0.287 0.16-0.392 0.21-0.21 0.574-0.204 0.783 0 0.104 0.104 0.16 0.242 0.16 0.392s-0.061 0.287-0.16 0.392c-0.105 0.099-0.243 0.16-0.392 0.16z"></path>
<path fill="#26b999" style="fill: var(--color6, #26b999)" d="M24.276 18.759c-1.398 0-2.761 0.442-3.891 1.265s-1.974 1.981-2.406 3.31-0.432 2.762 0 4.092c0.432 1.33 1.274 2.489 2.406 3.31s2.493 1.265 3.891 1.265 2.761-0.442 3.891-1.265c1.131-0.822 1.974-1.981 2.406-3.31s0.432-2.762 0-4.092c-0.432-1.33-1.274-2.489-2.406-3.31s-2.493-1.265-3.891-1.265z"></path>
<path fill="#fff" style="fill: var(--color7, #fff)" d="M27.901 22.168c-0.251-0.174-0.594-0.113-0.768 0.138l-3.087 4.436-2.179-1.789c-0.235-0.194-0.583-0.159-0.776 0.077s-0.159 0.583 0.077 0.776l2.641 2.168c0.099 0.081 0.223 0.125 0.35 0.125 0.025 0 0.050-0.002 0.076-0.005 0.152-0.022 0.289-0.105 0.377-0.231l3.428-4.926c0.174-0.25 0.112-0.594-0.138-0.769z"></path>
</symbol>
<symbol id="frame11" viewBox="0 0 32 32">
<title>frame11</title>
<path fill="#545e73" style="fill: var(--color1, #545e73)" d="M18.759 1.103h-2.207v1.655h-4.966v-1.655h-10.483v30.897h25.931v-30.897z"></path>
<path fill="#404656" style="fill: var(--color2, #404656)" d="M11.586 0h4.966v2.759h-4.966z"></path>
<path fill="#efebde" style="fill: var(--color3, #efebde)" d="M20.414 2.759v1.655h-12.69v-1.655h-4.966v27.586h22.621v-27.586z"></path>
<path fill="#8697cb" style="fill: var(--color4, #8697cb)" d="M16.552 1.103v1.655h-4.966v-1.655h-3.862v3.31h12.69v-3.31z"></path>
<path fill="#d5d0bb" style="fill: var(--color5, #d5d0bb)" d="M13.241 8.828h-7.172c-0.305 0-0.552-0.247-0.552-0.552s0.247-0.552 0.552-0.552h17.191c0.305 0 0.552 0.247 0.552 0.552s-0.247 0.552-0.552 0.552zM12.734 25.931h-6.665c-0.305 0-0.552-0.247-0.552-0.552s0.247-0.552 0.552-0.552h6.665c0.305 0 0.552 0.247 0.552 0.552s-0.247 0.552-0.552 0.552zM20.799 12.138h-14.73c-0.305 0-0.552-0.247-0.552-0.552s0.247-0.552 0.552-0.552h14.73c0.305 0 0.552 0.247 0.552 0.552s-0.247 0.552-0.552 0.552zM20.596 18.759h-14.527c-0.305 0-0.552-0.247-0.552-0.552s0.247-0.552 0.552-0.552h14.527c0.305 0 0.552 0.247 0.552 0.552s-0.247 0.552-0.552 0.552zM21.053 22.621h-14.984c-0.305 0-0.552-0.247-0.552-0.552s0.247-0.552 0.552-0.552h14.984c0.305 0 0.552 0.247 0.552 0.552s-0.247 0.552-0.552 0.552zM13.793 15.448h-7.724c-0.305 0-0.552-0.247-0.552-0.552s0.247-0.552 0.552-0.552h7.724c0.305 0 0.552 0.247 0.552 0.552s-0.247 0.552-0.552 0.552zM22.069 15.448h-3.862c-0.305 0-0.552-0.247-0.552-0.552s0.247-0.552 0.552-0.552h3.862c0.305 0 0.552 0.247 0.552 0.552s-0.247 0.552-0.552 0.552zM16 15.448c-0.15 0-0.287-0.056-0.392-0.16-0.1-0.105-0.16-0.248-0.16-0.392 0-0.15 0.055-0.287 0.16-0.392 0.21-0.21 0.574-0.204 0.783 0 0.104 0.104 0.16 0.242 0.16 0.392s-0.061 0.287-0.16 0.392c-0.105 0.099-0.243 0.16-0.392 0.16z"></path>
<path fill="#26b999" style="fill: var(--color6, #26b999)" d="M24.276 18.759c-1.398 0-2.761 0.442-3.891 1.265s-1.974 1.981-2.406 3.31-0.432 2.762 0 4.092c0.432 1.33 1.274 2.489 2.406 3.31s2.493 1.265 3.891 1.265 2.761-0.442 3.891-1.265c1.131-0.822 1.974-1.981 2.406-3.31s0.432-2.762 0-4.092c-0.432-1.33-1.274-2.489-2.406-3.31s-2.493-1.265-3.891-1.265z"></path>
<path fill="#fff" style="fill: var(--color7, #fff)" d="M27.901 22.168c-0.251-0.174-0.594-0.113-0.768 0.138l-3.087 4.436-2.179-1.789c-0.235-0.194-0.583-0.159-0.776 0.077s-0.159 0.583 0.077 0.776l2.641 2.168c0.099 0.081 0.223 0.125 0.35 0.125 0.025 0 0.050-0.002 0.076-0.005 0.152-0.022 0.289-0.105 0.377-0.231l3.428-4.926c0.174-0.25 0.112-0.594-0.138-0.769z"></path>
</symbol>
<symbol id="frame12" viewBox="0 0 32 32">
<title>frame12</title>
<path fill="#545e73" style="fill: var(--color1, #545e73)" d="M18.759 1.103h-2.207v1.655h-4.966v-1.655h-10.483v30.897h25.931v-30.897z"></path>
<path fill="#404656" style="fill: var(--color2, #404656)" d="M11.586 0h4.966v2.759h-4.966z"></path>
<path fill="#efebde" style="fill: var(--color3, #efebde)" d="M20.414 2.759v1.655h-12.69v-1.655h-4.966v27.586h22.621v-27.586z"></path>
<path fill="#8697cb" style="fill: var(--color4, #8697cb)" d="M16.552 1.103v1.655h-4.966v-1.655h-3.862v3.31h12.69v-3.31z"></path>
<path fill="#d5d0bb" style="fill: var(--color5, #d5d0bb)" d="M13.241 8.828h-7.172c-0.305 0-0.552-0.247-0.552-0.552s0.247-0.552 0.552-0.552h17.479c0.305 0 0.552 0.247 0.552 0.552s-0.247 0.552-0.552 0.552zM12.878 25.931h-6.809c-0.305 0-0.552-0.247-0.552-0.552s0.247-0.552 0.552-0.552h6.809c0.305 0 0.552 0.247 0.552 0.552s-0.247 0.552-0.552 0.552zM21.16 12.138h-15.091c-0.305 0-0.552-0.247-0.552-0.552s0.247-0.552 0.552-0.552h15.091c0.305 0 0.552 0.247 0.552 0.552s-0.247 0.552-0.552 0.552zM21.014 18.759h-14.945c-0.305 0-0.552-0.247-0.552-0.552s0.247-0.552 0.552-0.552h14.945c0.305 0 0.552 0.247 0.552 0.552s-0.247 0.552-0.552 0.552zM21.341 22.621h-15.272c-0.305 0-0.552-0.247-0.552-0.552s0.247-0.552 0.552-0.552h15.272c0.305 0 0.552 0.247 0.552 0.552s-0.247 0.552-0.552 0.552zM13.793 15.448h-7.724c-0.305 0-0.552-0.247-0.552-0.552s0.247-0.552 0.552-0.552h7.724c0.305 0 0.552 0.247 0.552 0.552s-0.247 0.552-0.552 0.552zM22.069 15.448h-3.862c-0.305 0-0.552-0.247-0.552-0.552s0.247-0.552 0.552-0.552h3.862c0.305 0 0.552 0.247 0.552 0.552s-0.247 0.552-0.552 0.552zM16 15.448c-0.15 0-0.287-0.056-0.392-0.16-0.1-0.105-0.16-0.248-0.16-0.392 0-0.15 0.055-0.287 0.16-0.392 0.21-0.21 0.574-0.204 0.783 0 0.104 0.104 0.16 0.242 0.16 0.392s-0.061 0.287-0.16 0.392c-0.105 0.099-0.243 0.16-0.392 0.16z"></path>
<path fill="#26b999" style="fill: var(--color6, #26b999)" d="M24.276 18.759c-1.398 0-2.761 0.442-3.891 1.265s-1.974 1.981-2.406 3.31-0.432 2.762 0 4.092c0.432 1.33 1.274 2.489 2.406 3.31s2.493 1.265 3.891 1.265 2.761-0.442 3.891-1.265c1.131-0.822 1.974-1.981 2.406-3.31s0.432-2.762 0-4.092c-0.432-1.33-1.274-2.489-2.406-3.31s-2.493-1.265-3.891-1.265z"></path>
<path fill="#fff" style="fill: var(--color7, #fff)" d="M27.901 22.168c-0.251-0.174-0.594-0.113-0.768 0.138l-3.087 4.436-2.179-1.789c-0.235-0.194-0.583-0.159-0.776 0.077s-0.159 0.583 0.077 0.776l2.641 2.168c0.099 0.081 0.223 0.125 0.35 0.125 0.025 0 0.050-0.002 0.076-0.005 0.152-0.022 0.289-0.105 0.377-0.231l3.428-4.926c0.174-0.25 0.112-0.594-0.138-0.769z"></path>
</symbol>
<symbol id="frame13" viewBox="0 0 32 32">
<title>frame13</title>
<path fill="#545e73" style="fill: var(--color1, #545e73)" d="M18.759 1.103h-2.207v1.655h-4.966v-1.655h-10.483v30.897h25.931v-30.897z"></path>
<path fill="#404656" style="fill: var(--color2, #404656)" d="M11.586 0h4.966v2.759h-4.966z"></path>
<path fill="#efebde" style="fill: var(--color3, #efebde)" d="M20.414 2.759v1.655h-12.69v-1.655h-4.966v27.586h22.621v-27.586z"></path>
<path fill="#8697cb" style="fill: var(--color4, #8697cb)" d="M16.552 1.103v1.655h-4.966v-1.655h-3.862v3.31h12.69v-3.31z"></path>
<path fill="#d5d0bb" style="fill: var(--color5, #d5d0bb)" d="M13.241 8.828h-7.172c-0.305 0-0.552-0.247-0.552-0.552s0.247-0.552 0.552-0.552h17.714c0.305 0 0.552 0.247 0.552 0.552s-0.247 0.552-0.552 0.552zM12.995 25.931h-6.926c-0.305 0-0.552-0.247-0.552-0.552s0.247-0.552 0.552-0.552h6.926c0.305 0 0.552 0.247 0.552 0.552s-0.247 0.552-0.552 0.552zM21.453 12.138h-15.384c-0.305 0-0.552-0.247-0.552-0.552s0.247-0.552 0.552-0.552h15.384c0.305 0 0.552 0.247 0.552 0.552s-0.247 0.552-0.552 0.552zM21.354 18.759h-15.285c-0.305 0-0.552-0.247-0.552-0.552s0.247-0.552 0.552-0.552h15.285c0.305 0 0.552 0.247 0.552 0.552s-0.247 0.552-0.552 0.552zM21.576 22.621h-15.507c-0.305 0-0.552-0.247-0.552-0.552s0.247-0.552 0.552-0.552h15.507c0.305 0 0.552 0.247 0.552 0.552s-0.247 0.552-0.552 0.552zM13.793 15.448h-7.724c-0.305 0-0.552-0.247-0.552-0.552s0.247-0.552 0.552-0.552h7.724c0.305 0 0.552 0.247 0.552 0.552s-0.247 0.552-0.552 0.552zM22.069 15.448h-3.862c-0.305 0-0.552-0.247-0.552-0.552s0.247-0.552 0.552-0.552h3.862c0.305 0 0.552 0.247 0.552 0.552s-0.247 0.552-0.552 0.552zM16 15.448c-0.15 0-0.287-0.056-0.392-0.16-0.1-0.105-0.16-0.248-0.16-0.392 0-0.15 0.055-0.287 0.16-0.392 0.21-0.21 0.574-0.204 0.783 0 0.104 0.104 0.16 0.242 0.16 0.392s-0.061 0.287-0.16 0.392c-0.105 0.099-0.243 0.16-0.392 0.16z"></path>
<path fill="#26b999" style="fill: var(--color6, #26b999)" d="M24.276 18.759c-1.398 0-2.761 0.442-3.891 1.265s-1.974 1.981-2.406 3.31-0.432 2.762 0 4.092c0.432 1.33 1.274 2.489 2.406 3.31s2.493 1.265 3.891 1.265 2.761-0.442 3.891-1.265c1.131-0.822 1.974-1.981 2.406-3.31s0.432-2.762 0-4.092c-0.432-1.33-1.274-2.489-2.406-3.31s-2.493-1.265-3.891-1.265z"></path>
<path fill="#fff" style="fill: var(--color7, #fff)" d="M27.901 22.168c-0.251-0.174-0.594-0.113-0.768 0.138l-3.087 4.436-2.179-1.789c-0.235-0.194-0.583-0.159-0.776 0.077s-0.159 0.583 0.077 0.776l2.641 2.168c0.099 0.081 0.223 0.125 0.35 0.125 0.025 0 0.050-0.002 0.076-0.005 0.152-0.022 0.289-0.105 0.377-0.231l3.428-4.926c0.174-0.25 0.112-0.594-0.138-0.769z"></path>
</symbol>
<symbol id="frame14" viewBox="0 0 32 32">
<title>frame14</title>
<path fill="#545e73" style="fill: var(--color1, #545e73)" d="M18.759 1.103h-2.207v1.655h-4.966v-1.655h-10.483v30.897h25.931v-30.897z"></path>
<path fill="#404656" style="fill: var(--color2, #404656)" d="M11.586 0h4.966v2.759h-4.966z"></path>
<path fill="#efebde" style="fill: var(--color3, #efebde)" d="M20.414 2.759v1.655h-12.69v-1.655h-4.966v27.586h22.621v-27.586z"></path>
<path fill="#8697cb" style="fill: var(--color4, #8697cb)" d="M16.552 1.103v1.655h-4.966v-1.655h-3.862v3.31h12.69v-3.31z"></path>
<path fill="#d5d0bb" style="fill: var(--color5, #d5d0bb)" d="M13.241 8.828h-7.172c-0.305 0-0.552-0.247-0.552-0.552s0.247-0.552 0.552-0.552h17.898c0.305 0 0.552 0.247 0.552 0.552s-0.247 0.552-0.552 0.552zM13.087 25.931h-7.018c-0.305 0-0.552-0.247-0.552-0.552s0.247-0.552 0.552-0.552h7.018c0.305 0 0.552 0.247 0.552 0.552s-0.247 0.552-0.552 0.552zM21.683 12.138h-15.614c-0.305 0-0.552-0.247-0.552-0.552s0.247-0.552 0.552-0.552h15.614c0.305 0 0.552 0.247 0.552 0.552s-0.247 0.552-0.552 0.552zM21.622 18.759h-15.553c-0.305 0-0.552-0.247-0.552-0.552s0.247-0.552 0.552-0.552h15.553c0.305 0 0.552 0.247 0.552 0.552s-0.247 0.552-0.552 0.552zM21.761 22.621h-15.692c-0.305 0-0.552-0.247-0.552-0.552s0.247-0.552 0.552-0.552h15.692c0.305 0 0.552 0.247 0.552 0.552s-0.247 0.552-0.552 0.552zM13.793 15.448h-7.724c-0.305 0-0.552-0.247-0.552-0.552s0.247-0.552 0.552-0.552h7.724c0.305 0 0.552 0.247 0.552 0.552s-0.247 0.552-0.552 0.552zM22.069 15.448h-3.862c-0.305 0-0.552-0.247-0.552-0.552s0.247-0.552 0.552-0.552h3.862c0.305 0 0.552 0.247 0.552 0.552s-0.247 0.552-0.552 0.552zM16 15.448c-0.15 0-0.287-0.056-0.392-0.16-0.1-0.105-0.16-0.248-0.16-0.392 0-0.15 0.055-0.287 0.16-0.392 0.21-0.21 0.574-0.204 0.783 0 0.104 0.104 0.16 0.242 0.16 0.392s-0.061 0.287-0.16 0.392c-0.105 0.099-0.243 0.16-0.392 0.16z"></path>
<path fill="#26b999" style="fill: var(--color6, #26b999)" d="M24.276 18.759c-1.398 0-2.761 0.442-3.891 1.265s-1.974 1.981-2.406 3.31-0.432 2.762 0 4.092c0.432 1.33 1.274 2.489 2.406 3.31s2.493 1.265 3.891 1.265 2.761-0.442 3.891-1.265c1.131-0.822 1.974-1.981 2.406-3.31s0.432-2.762 0-4.092c-0.432-1.33-1.274-2.489-2.406-3.31s-2.493-1.265-3.891-1.265z"></path>
<path fill="#fff" style="fill: var(--color7, #fff)" d="M27.901 22.168c-0.251-0.174-0.594-0.113-0.768 0.138l-3.087 4.436-2.179-1.789c-0.235-0.194-0.583-0.159-0.776 0.077s-0.159 0.583 0.077 0.776l2.641 2.168c0.099 0.081 0.223 0.125 0.35 0.125 0.025 0 0.050-0.002 0.076-0.005 0.152-0.022 0.289-0.105 0.377-0.231l3.428-4.926c0.174-0.25 0.112-0.594-0.138-0.769z"></path>
</symbol>
<symbol id="frame15" viewBox="0 0 32 32">
<title>frame15</title>
<path fill="#545e73" style="fill: var(--color1, #545e73)" d="M18.759 1.103h-2.207v1.655h-4.966v-1.655h-10.483v30.897h25.931v-30.897z"></path>
<path fill="#404656" style="fill: var(--color2, #404656)" d="M11.586 0h4.966v2.759h-4.966z"></path>
<path fill="#efebde" style="fill: var(--color3, #efebde)" d="M20.414 2.759v1.655h-12.69v-1.655h-4.966v27.586h22.621v-27.586z"></path>
<path fill="#8697cb" style="fill: var(--color4, #8697cb)" d="M16.552 1.103v1.655h-4.966v-1.655h-3.862v3.31h12.69v-3.31z"></path>
<path fill="#d5d0bb" style="fill: var(--color5, #d5d0bb)" d="M13.241 8.828h-7.172c-0.305 0-0.552-0.247-0.552-0.552s0.247-0.552 0.552-0.552h18.037c0.305 0 0.552 0.247 0.552 0.552s-0.247 0.552-0.552 0.552zM13.156 25.931h-7.087c-0.305 0-0.552-0.247-0.552-0.552s0.247-0.552 0.552-0.552h7.087c0.305 0 0.552 0.247 0.552 0.552s-0.247 0.552-0.552 0.552zM21.857 12.138h-15.788c-0.305 0-0.552-0.247-0.552-0.552s0.247-0.552 0.552-0.552h15.788c0.305 0 0.552 0.247 0.552 0.552s-0.247 0.552-0.552 0.552zM21.823 18.759h-15.754c-0.305 0-0.552-0.247-0.552-0.552s0.247-0.552 0.552-0.552h15.754c0.305 0 0.552 0.247 0.552 0.552s-0.247 0.552-0.552 0.552zM21.899 22.621h-15.83c-0.305 0-0.552-0.247-0.552-0.552s0.247-0.552 0.552-0.552h15.83c0.305 0 0.552 0.247 0.552 0.552s-0.247 0.552-0.552 0.552zM13.793 15.448h-7.724c-0.305 0-0.552-0.247-0.552-0.552s0.247-0.552 0.552-0.552h7.724c0.305 0 0.552 0.247 0.552 0.552s-0.247 0.552-0.552 0.552zM22.069 15.448h-3.862c-0.305 0-0.552-0.247-0.552-0.552s0.247-0.552 0.552-0.552h3.862c0.305 0 0.552 0.247 0.552 0.552s-0.247 0.552-0.552 0.552zM16 15.448c-0.15 0-0.287-0.056-0.392-0.16-0.1-0.105-0.16-0.248-0.16-0.392 0-0.15 0.055-0.287 0.16-0.392 0.21-0.21 0.574-0.204 0.783 0 0.104 0.104 0.16 0.242 0.16 0.392s-0.061 0.287-0.16 0.392c-0.105 0.099-0.243 0.16-0.392 0.16z"></path>
<path fill="#26b999" style="fill: var(--color6, #26b999)" d="M24.276 18.759c-1.398 0-2.761 0.442-3.891 1.265s-1.974 1.981-2.406 3.31-0.432 2.762 0 4.092c0.432 1.33 1.274 2.489 2.406 3.31s2.493 1.265 3.891 1.265 2.761-0.442 3.891-1.265c1.131-0.822 1.974-1.981 2.406-3.31s0.432-2.762 0-4.092c-0.432-1.33-1.274-2.489-2.406-3.31s-2.493-1.265-3.891-1.265z"></path>
<path fill="#fff" style="fill: var(--color7, #fff)" d="M27.901 22.168c-0.251-0.174-0.594-0.113-0.768 0.138l-3.087 4.436-2.179-1.789c-0.235-0.194-0.583-0.159-0.776 0.077s-0.159 0.583 0.077 0.776l2.641 2.168c0.099 0.081 0.223 0.125 0.35 0.125 0.025 0 0.050-0.002 0.076-0.005 0.152-0.022 0.289-0.105 0.377-0.231l3.428-4.926c0.174-0.25 0.112-0.594-0.138-0.769z"></path>
</symbol>
<symbol id="frame16" viewBox="0 0 32 32">
<title>frame16</title>
<path fill="#545e73" style="fill: var(--color1, #545e73)" d="M18.759 1.103h-2.207v1.655h-4.966v-1.655h-10.483v30.897h25.931v-30.897z"></path>
<path fill="#404656" style="fill: var(--color2, #404656)" d="M11.586 0h4.966v2.759h-4.966z"></path>
<path fill="#efebde" style="fill: var(--color3, #efebde)" d="M20.414 2.759v1.655h-12.69v-1.655h-4.966v27.586h22.621v-27.586z"></path>
<path fill="#8697cb" style="fill: var(--color4, #8697cb)" d="M16.552 1.103v1.655h-4.966v-1.655h-3.862v3.31h12.69v-3.31z"></path>
<path fill="#d5d0bb" style="fill: var(--color5, #d5d0bb)" d="M13.241 8.828h-7.172c-0.305 0-0.552-0.247-0.552-0.552s0.247-0.552 0.552-0.552h18.133c0.305 0 0.552 0.247 0.552 0.552s-0.247 0.552-0.552 0.552zM13.204 25.931h-7.135c-0.305 0-0.552-0.247-0.552-0.552s0.247-0.552 0.552-0.552h7.135c0.305 0 0.552 0.247 0.552 0.552s-0.247 0.552-0.552 0.552zM21.977 12.138h-15.908c-0.305 0-0.552-0.247-0.552-0.552s0.247-0.552 0.552-0.552h15.908c0.305 0 0.552 0.247 0.552 0.552s-0.247 0.552-0.552 0.552zM21.962 18.759h-15.893c-0.305 0-0.552-0.247-0.552-0.552s0.247-0.552 0.552-0.552h15.893c0.305 0 0.552 0.247 0.552 0.552s-0.247 0.552-0.552 0.552zM21.995 22.621h-15.926c-0.305 0-0.552-0.247-0.552-0.552s0.247-0.552 0.552-0.552h15.926c0.305 0 0.552 0.247 0.552 0.552s-0.247 0.552-0.552 0.552zM13.793 15.448h-7.724c-0.305 0-0.552-0.247-0.552-0.552s0.247-0.552 0.552-0.552h7.724c0.305 0 0.552 0.247 0.552 0.552s-0.247 0.552-0.552 0.552zM22.069 15.448h-3.862c-0.305 0-0.552-0.247-0.552-0.552s0.247-0.552 0.552-0.552h3.862c0.305 0 0.552 0.247 0.552 0.552s-0.247 0.552-0.552 0.552zM16 15.448c-0.15 0-0.287-0.056-0.392-0.16-0.1-0.105-0.16-0.248-0.16-0.392 0-0.15 0.055-0.287 0.16-0.392 0.21-0.21 0.574-0.204 0.783 0 0.104 0.104 0.16 0.242 0.16 0.392s-0.061 0.287-0.16 0.392c-0.105 0.099-0.243 0.16-0.392 0.16z"></path>
<path fill="#26b999" style="fill: var(--color6, #26b999)" d="M24.276 18.759c-1.398 0-2.761 0.442-3.891 1.265s-1.974 1.981-2.406 3.31-0.432 2.762 0 4.092c0.432 1.33 1.274 2.489 2.406 3.31s2.493 1.265 3.891 1.265 2.761-0.442 3.891-1.265c1.131-0.822 1.974-1.981 2.406-3.31s0.432-2.762 0-4.092c-0.432-1.33-1.274-2.489-2.406-3.31s-2.493-1.265-3.891-1.265z"></path>
<path fill="#fff" style="fill: var(--color7, #fff)" d="M27.901 22.168c-0.251-0.174-0.594-0.113-0.768 0.138l-3.087 4.436-2.179-1.789c-0.235-0.194-0.583-0.159-0.776 0.077s-0.159 0.583 0.077 0.776l2.641 2.168c0.099 0.081 0.223 0.125 0.35 0.125 0.025 0 0.050-0.002 0.076-0.005 0.152-0.022 0.289-0.105 0.377-0.231l3.428-4.926c0.174-0.25 0.112-0.594-0.138-0.769z"></path>
</symbol>
<symbol id="frame17" viewBox="0 0 32 32">
<title>frame17</title>
<path fill="#545e73" style="fill: var(--color1, #545e73)" d="M18.759 1.103h-2.207v1.655h-4.966v-1.655h-10.483v30.897h25.931v-30.897z"></path>
<path fill="#404656" style="fill: var(--color2, #404656)" d="M11.586 0h4.966v2.759h-4.966z"></path>
<path fill="#efebde" style="fill: var(--color3, #efebde)" d="M20.414 2.759v1.655h-12.69v-1.655h-4.966v27.586h22.621v-27.586z"></path>
<path fill="#8697cb" style="fill: var(--color4, #8697cb)" d="M16.552 1.103v1.655h-4.966v-1.655h-3.862v3.31h12.69v-3.31z"></path>
<path fill="#d5d0bb" style="fill: var(--color5, #d5d0bb)" d="M13.241 8.828h-7.172c-0.305 0-0.552-0.247-0.552-0.552s0.247-0.552 0.552-0.552h18.189c0.305 0 0.552 0.247 0.552 0.552s-0.247 0.552-0.552 0.552zM13.233 25.931h-7.164c-0.305 0-0.552-0.247-0.552-0.552s0.247-0.552 0.552-0.552h7.164c0.305 0 0.552 0.247 0.552 0.552s-0.247 0.552-0.552 0.552zM22.046 12.138h-15.977c-0.305 0-0.552-0.247-0.552-0.552s0.247-0.552 0.552-0.552h15.977c0.305 0 0.552 0.247 0.552 0.552s-0.247 0.552-0.552 0.552zM22.042 18.759h-15.974c-0.305 0-0.552-0.247-0.552-0.552s0.247-0.552 0.552-0.552h15.974c0.305 0 0.552 0.247 0.552 0.552s-0.247 0.552-0.552 0.552zM22.051 22.621h-15.982c-0.305 0-0.552-0.247-0.552-0.552s0.247-0.552 0.552-0.552h15.982c0.305 0 0.552 0.247 0.552 0.552s-0.247 0.552-0.552 0.552zM13.793 15.448h-7.724c-0.305 0-0.552-0.247-0.552-0.552s0.247-0.552 0.552-0.552h7.724c0.305 0 0.552 0.247 0.552 0.552s-0.247 0.552-0.552 0.552zM22.069 15.448h-3.862c-0.305 0-0.552-0.247-0.552-0.552s0.247-0.552 0.552-0.552h3.862c0.305 0 0.552 0.247 0.552 0.552s-0.247 0.552-0.552 0.552zM16 15.448c-0.15 0-0.287-0.056-0.392-0.16-0.1-0.105-0.16-0.248-0.16-0.392 0-0.15 0.055-0.287 0.16-0.392 0.21-0.21 0.574-0.204 0.783 0 0.104 0.104 0.16 0.242 0.16 0.392s-0.061 0.287-0.16 0.392c-0.105 0.099-0.243 0.16-0.392 0.16z"></path>
<path fill="#26b999" style="fill: var(--color6, #26b999)" d="M24.276 18.759c-1.398 0-2.761 0.442-3.891 1.265s-1.974 1.981-2.406 3.31-0.432 2.762 0 4.092c0.432 1.33 1.274 2.489 2.406 3.31s2.493 1.265 3.891 1.265 2.761-0.442 3.891-1.265c1.131-0.822 1.974-1.981 2.406-3.31s0.432-2.762 0-4.092c-0.432-1.33-1.274-2.489-2.406-3.31s-2.493-1.265-3.891-1.265z"></path>
<path fill="#fff" style="fill: var(--color7, #fff)" d="M27.901 22.168c-0.251-0.174-0.594-0.113-0.768 0.138l-3.087 4.436-2.179-1.789c-0.235-0.194-0.583-0.159-0.776 0.077s-0.159 0.583 0.077 0.776l2.641 2.168c0.099 0.081 0.223 0.125 0.35 0.125 0.025 0 0.050-0.002 0.076-0.005 0.152-0.022 0.289-0.105 0.377-0.231l3.428-4.926c0.174-0.25 0.112-0.594-0.138-0.769z"></path>
</symbol>
<symbol id="frame18" viewBox="0 0 32 32">
<title>frame18</title>
<path fill="#545e73" style="fill: var(--color1, #545e73)" d="M18.759 1.103h-2.207v1.655h-4.966v-1.655h-10.483v30.897h25.931v-30.897z"></path>
<path fill="#404656" style="fill: var(--color2, #404656)" d="M11.586 0h4.966v2.759h-4.966z"></path>
<path fill="#efebde" style="fill: var(--color3, #efebde)" d="M20.414 2.759v1.655h-12.69v-1.655h-4.966v27.586h22.621v-27.586z"></path>
<path fill="#8697cb" style="fill: var(--color4, #8697cb)" d="M16.552 1.103v1.655h-4.966v-1.655h-3.862v3.31h12.69v-3.31z"></path>
<path fill="#d5d0bb" style="fill: var(--color5, #d5d0bb)" d="M13.241 8.828h-7.172c-0.305 0-0.552-0.247-0.552-0.552s0.247-0.552 0.552-0.552h18.207c0.305 0 0.552 0.247 0.552 0.552s-0.247 0.552-0.552 0.552zM13.241 25.931h-7.172c-0.305 0-0.552-0.247-0.552-0.552s0.247-0.552 0.552-0.552h7.172c0.305 0 0.552 0.247 0.552 0.552s-0.247 0.552-0.552 0.552zM22.069 12.138h-16c-0.305 0-0.552-0.247-0.552-0.552s0.247-0.552 0.552-0.552h16c0.305 0 0.552 0.247 0.552 0.552s-0.247 0.552-0.552 0.552zM22.069 18.759h-16c-0.305 0-0.552-0.247-0.552-0.552s0.247-0.552 0.552-0.552h16c0.305 0 0.552 0.247 0.552 0.552s-0.247 0.552-0.552 0.552zM22.069 22.621h-16c-0.305 0-0.552-0.247-0.552-0.552s0.247-0.552 0.552-0.552h16c0.305 0 0.552 0.247 0.552 0.552s-0.247 0.552-0.552 0.552zM13.793 15.448h-7.724c-0.305 0-0.552-0.247-0.552-0.552s0.247-0.552 0.552-0.552h7.724c0.305 0 0.552 0.247 0.552 0.552s-0.247 0.552-0.552 0.552zM22.069 15.448h-3.862c-0.305 0-0.552-0.247-0.552-0.552s0.247-0.552 0.552-0.552h3.862c0.305 0 0.552 0.247 0.552 0.552s-0.247 0.552-0.552 0.552zM16 15.448c-0.15 0-0.287-0.056-0.392-0.16-0.1-0.105-0.16-0.248-0.16-0.392 0-0.15 0.055-0.287 0.16-0.392 0.21-0.21 0.574-0.204 0.783 0 0.104 0.104 0.16 0.242 0.16 0.392s-0.061 0.287-0.16 0.392c-0.105 0.099-0.243 0.16-0.392 0.16z"></path>
<path fill="#26b999" style="fill: var(--color6, #26b999)" d="M24.276 18.759c-1.398 0-2.761 0.442-3.891 1.265s-1.974 1.981-2.406 3.31-0.432 2.762 0 4.092c0.432 1.33 1.274 2.489 2.406 3.31s2.493 1.265 3.891 1.265 2.761-0.442 3.891-1.265c1.131-0.822 1.974-1.981 2.406-3.31s0.432-2.762 0-4.092c-0.432-1.33-1.274-2.489-2.406-3.31s-2.493-1.265-3.891-1.265z"></path>
<path fill="#fff" style="fill: var(--color7, #fff)" d="M27.901 22.168c-0.251-0.174-0.594-0.113-0.768 0.138l-3.087 4.436-2.179-1.789c-0.235-0.194-0.583-0.159-0.776 0.077s-0.159 0.583 0.077 0.776l2.641 2.168c0.099 0.081 0.223 0.125 0.35 0.125 0.025 0 0.050-0.002 0.076-0.005 0.152-0.022 0.289-0.105 0.377-0.231l3.428-4.926c0.174-0.25 0.112-0.594-0.138-0.769z"></path>
</symbol>
</defs>
</svg>
