<svg xmlns="http://www.w3.org/2000/svg" viewBox="0 0 5700 300" width="5700" height="300">
    <path d="M34 2h-4v3h-9V2H2v56h47V2z" fill="#545e73"/>
    <path d="M21 0h9v5h-9z" fill="#404656"/>
    <path d="M37 5v3H14V5H5v50h41V5z" fill="#efebde"/>
    <path d="M30 2v3h-9V2h-7v6h23V2z" fill="#8697cb"/>
    <path d="M24 16H11c-.553 0-1-.447-1-1 0-.553.447-1 1-1h13c.553 0 1 .447 1 1 0 .553-.447 1-1 1zM14 47h-3c-.553 0-1-.447-1-1 0-.553.447-1 1-1h3c.553 0 1 .447 1 1 0 .553-.447 1-1 1zm1-25h-4c-.553 0-1-.447-1-1 0-.553.447-1 1-1h4c.553 0 1 .447 1 1 0 .553-.447 1-1 1zm-4 12c-.553 0-1-.447-1-1 0-.553.447-1 1-1 .553 0 1 .447 1 1 0 .553-.447 1-1 1zm9 7h-9c-.553 0-1-.447-1-1 0-.553.447-1 1-1h9c.553 0 1 .447 1 1 0 .553-.447 1-1 1zm5-13H11c-.553 0-1-.447-1-1 0-.553.447-1 1-1h14c.553 0 1 .447 1 1 0 .553-.447 1-1 1zm15 0h-7c-.553 0-1-.447-1-1 0-.553.447-1 1-1h7c.553 0 1 .447 1 1 0 .553-.447 1-1 1zm-11 0c-.271 0-.521-.101-.71-.29-.181-.19-.29-.45-.29-.71 0-.271.1-.521.29-.71.38-.38 1.04-.37 1.42 0 .189.189.29.439.29.71 0 .27-.11.52-.29.71-.19.18-.44.29-.71.29z"
          fill="#d5d0bb"/>
    <path d="M44 34c-2.534 0-5.004.802-7.053 2.292-2.05 1.489-3.577 3.59-4.36 6-.783 2.41-.783 5.006 0 7.416s2.31 4.511 4.36 6C38.996 57.198 41.466 58 44 58s5.004-.802 7.053-2.292c2.05-1.489 3.577-3.59 4.36-6 .783-2.41.783-5.006 0-7.416s-2.31-4.511-4.36-6C49.004 34.802 46.534 34 44 34z"
          fill="#26b999"/>
    <path d="M50.571 40.179c-.455-.316-1.077-.204-1.392.25l-5.596 8.04-3.949-3.242c-.426-.351-1.057-.288-1.407.139-.351.427-.289 1.057.139 1.407l4.786 3.929c.18.147.404.227.634.227.045 0 .091-.003.137-.009.276-.039.524-.19.684-.419l6.214-8.929c.315-.454.203-1.077-.25-1.393z"
          fill="#ffffff"/>
    <path d="M92 2h-4v3h-9V2H60v56h47V2z" fill="#545e73"/>
    <path d="M79 0h9v5h-9z" fill="#404656"/>
    <path d="M95 5v3H72V5h-9v50h41V5z" fill="#efebde"/>
    <path d="M88 2v3h-9V2h-7v6h23V2z" fill="#8697cb"/>
    <path d="M82 16H69c-.553 0-1-.447-1-1 0-.553.447-1 1-1h16.811c.553 0 1 .447 1 1 0 .553-.447 1-1 1zm-8.095 31H69c-.553 0-1-.447-1-1 0-.553.447-1 1-1h4.905c.553 0 1 .447 1 1 0 .553-.447 1-1 1zm3.859-25H69c-.553 0-1-.447-1-1 0-.553.447-1 1-1h8.764c.553 0 1 .447 1 1 0 .553-.447 1-1 1zm-3.238 12H69c-.553 0-1-.447-1-1 0-.553.447-1 1-1h5.526c.553 0 1 .447 1 1 0 .553-.447 1-1 1zm7.285 7H69c-.553 0-1-.447-1-1 0-.553.447-1 1-1h12.811c.553 0 1 .447 1 1 0 .553-.447 1-1 1zM83 28H69c-.553 0-1-.447-1-1 0-.553.447-1 1-1h14c.553 0 1 .447 1 1 0 .553-.447 1-1 1zm15 0h-7c-.553 0-1-.447-1-1 0-.553.447-1 1-1h7c.553 0 1 .447 1 1 0 .553-.447 1-1 1zm-11 0c-.271 0-.521-.101-.71-.29-.181-.19-.29-.45-.29-.71 0-.271.1-.521.29-.71.38-.38 1.04-.37 1.42 0 .189.189.29.439.29.71 0 .27-.11.52-.29.71-.19.18-.44.29-.71.29z"
          fill="#d5d0bb"/>
    <path d="M102 34c-2.534 0-5.004.802-7.053 2.292-2.05 1.489-3.577 3.59-4.36 6-.783 2.41-.783 5.006 0 7.416s2.31 4.511 4.36 6C96.996 57.198 99.466 58 102 58s5.004-.802 7.053-2.292c2.05-1.489 3.577-3.59 4.36-6 .783-2.41.783-5.006 0-7.416s-2.31-4.511-4.36-6C107.004 34.802 104.534 34 102 34z"
          fill="#26b999"/>
    <path d="M108.571 40.179c-.455-.316-1.077-.204-1.392.25l-5.596 8.04-3.949-3.242c-.426-.351-1.057-.288-1.407.139-.351.427-.289 1.057.139 1.407l4.786 3.929c.18.147.404.227.634.227.045 0 .091-.003.137-.009.276-.039.524-.19.684-.419l6.214-8.929c.315-.454.203-1.077-.25-1.393z"
          fill="#ffffff"/>
    <path d="M150 2h-4v3h-9V2h-19v56h47V2z" fill="#545e73"/>
    <path d="M137 0h9v5h-9z" fill="#404656"/>
    <path d="M153 5v3h-23V5h-9v50h41V5z" fill="#efebde"/>
    <path d="M146 2v3h-9V2h-7v6h23V2z" fill="#8697cb"/>
    <path d="M140 16h-13c-.553 0-1-.447-1-1 0-.553.447-1 1-1h19.582c.553 0 1 .447 1 1 0 .553-.447 1-1 1zm-6.709 31H127c-.553 0-1-.447-1-1 0-.553.447-1 1-1h6.291c.553 0 1 .447 1 1 0 .553-.447 1-1 1zm5.936-25H127c-.553 0-1-.447-1-1 0-.553.447-1 1-1h12.227c.553 0 1 .447 1 1 0 .553-.447 1-1 1zm-2.683 12H127c-.553 0-1-.447-1-1 0-.553.447-1 1-1h9.544c.553 0 1 .447 1 1 0 .553-.447 1-1 1zm6.038 7H127c-.553 0-1-.447-1-1 0-.553.447-1 1-1h15.582c.553 0 1 .447 1 1 0 .553-.447 1-1 1zM141 28h-14c-.553 0-1-.447-1-1 0-.553.447-1 1-1h14c.553 0 1 .447 1 1 0 .553-.447 1-1 1zm15 0h-7c-.553 0-1-.447-1-1 0-.553.447-1 1-1h7c.553 0 1 .447 1 1 0 .553-.447 1-1 1zm-11 0c-.271 0-.521-.101-.71-.29-.181-.19-.29-.45-.29-.71 0-.271.1-.521.29-.71.38-.38 1.04-.37 1.42 0 .189.189.29.439.29.71 0 .27-.11.52-.29.71-.19.18-.44.29-.71.29z"
          fill="#d5d0bb"/>
    <path d="M160 34c-2.534 0-5.004.802-7.053 2.292-2.05 1.489-3.577 3.59-4.36 6-.783 2.41-.783 5.006 0 7.416s2.31 4.511 4.36 6C154.996 57.198 157.466 58 160 58s5.004-.802 7.053-2.292c2.05-1.489 3.577-3.59 4.36-6 .783-2.41.783-5.006 0-7.416s-2.31-4.511-4.36-6C165.004 34.802 162.534 34 160 34z"
          fill="#26b999"/>
    <path d="M166.571 40.179c-.455-.316-1.077-.204-1.392.25l-5.596 8.04-3.949-3.242c-.426-.351-1.057-.288-1.407.139-.351.427-.289 1.057.139 1.407l4.786 3.929c.18.147.404.227.634.227.045 0 .091-.003.137-.009.276-.039.524-.19.684-.419l6.214-8.929c.315-.454.203-1.077-.25-1.393z"
          fill="#ffffff"/>
    <g>
        <path d="M208 2h-4v3h-9V2h-19v56h47V2z" fill="#545e73"/>
        <path d="M195 0h9v5h-9z" fill="#404656"/>
        <path d="M211 5v3h-23V5h-9v50h41V5z" fill="#efebde"/>
        <path d="M204 2v3h-9V2h-7v6h23V2z" fill="#8697cb"/>
        <path d="M198 16h-13c-.553 0-1-.447-1-1 0-.553.447-1 1-1h21.831c.553 0 1 .447 1 1 0 .553-.447 1-1 1zm-5.584 31H185c-.553 0-1-.447-1-1 0-.553.447-1 1-1h7.416c.553 0 1 .447 1 1 0 .553-.447 1-1 1zm7.623-25H185c-.553 0-1-.447-1-1 0-.553.447-1 1-1h15.039c.553 0 1 .447 1 1 0 .553-.447 1-1 1zm-2.234 12H185c-.553 0-1-.447-1-1 0-.553.447-1 1-1h12.805c.553 0 1 .447 1 1 0 .553-.447 1-1 1zm5.026 7H185c-.553 0-1-.447-1-1 0-.553.447-1 1-1h17.831c.553 0 1 .447 1 1 0 .553-.447 1-1 1zM199 28h-14c-.553 0-1-.447-1-1 0-.553.447-1 1-1h14c.553 0 1 .447 1 1 0 .553-.447 1-1 1zm15 0h-7c-.553 0-1-.447-1-1 0-.553.447-1 1-1h7c.553 0 1 .447 1 1 0 .553-.447 1-1 1zm-11 0c-.271 0-.521-.101-.71-.29-.181-.19-.29-.45-.29-.71 0-.271.1-.521.29-.71.38-.38 1.04-.37 1.42 0 .189.189.29.439.29.71 0 .27-.11.52-.29.71-.19.18-.44.29-.71.29z"
              fill="#d5d0bb"/>
        <path d="M218 34c-2.534 0-5.004.802-7.053 2.292-2.05 1.489-3.577 3.59-4.36 6-.783 2.41-.783 5.006 0 7.416s2.31 4.511 4.36 6C212.996 57.198 215.466 58 218 58s5.004-.802 7.053-2.292c2.05-1.489 3.577-3.59 4.36-6 .783-2.41.783-5.006 0-7.416s-2.31-4.511-4.36-6C223.004 34.802 220.534 34 218 34z"
              fill="#26b999"/>
        <path d="M224.571 40.179c-.455-.316-1.077-.204-1.392.25l-5.596 8.04-3.949-3.242c-.426-.351-1.057-.288-1.407.139-.351.427-.289 1.057.139 1.407l4.786 3.929c.18.147.404.227.634.227.045 0 .091-.003.137-.009.276-.039.524-.19.684-.419l6.214-8.929c.315-.454.203-1.077-.25-1.393z"
              fill="#ffffff"/>
    </g>
    <g>
        <path d="M266 2h-4v3h-9V2h-19v56h47V2z" fill="#545e73"/>
        <path d="M253 0h9v5h-9z" fill="#404656"/>
        <path d="M269 5v3h-23V5h-9v50h41V5z" fill="#efebde"/>
        <path d="M262 2v3h-9V2h-7v6h23V2z" fill="#8697cb"/>
        <path d="M256 16h-13c-.553 0-1-.447-1-1 0-.553.447-1 1-1h23.717c.553 0 1 .447 1 1 0 .553-.447 1-1 1zm-4.641 31H243c-.553 0-1-.447-1-1 0-.553.447-1 1-1h8.359c.553 0 1 .447 1 1 0 .553-.447 1-1 1zm9.037-25H243c-.553 0-1-.447-1-1 0-.553.447-1 1-1h17.396c.553 0 1 .447 1 1 0 .553-.447 1-1 1zm-1.856 12H243c-.553 0-1-.447-1-1 0-.553.447-1 1-1h15.54c.553 0 1 .447 1 1 0 .553-.447 1-1 1zm4.177 7H243c-.553 0-1-.447-1-1 0-.553.447-1 1-1h19.717c.553 0 1 .447 1 1 0 .553-.447 1-1 1zM257 28h-14c-.553 0-1-.447-1-1 0-.553.447-1 1-1h14c.553 0 1 .447 1 1 0 .553-.447 1-1 1zm15 0h-7c-.553 0-1-.447-1-1 0-.553.447-1 1-1h7c.553 0 1 .447 1 1 0 .553-.447 1-1 1zm-11 0c-.271 0-.521-.101-.71-.29-.181-.19-.29-.45-.29-.71 0-.271.1-.521.29-.71.38-.38 1.04-.37 1.42 0 .189.189.29.439.29.71 0 .27-.11.52-.29.71-.19.18-.44.29-.71.29z"
              fill="#d5d0bb"/>
        <path d="M276 34c-2.534 0-5.004.802-7.053 2.292-2.05 1.489-3.577 3.59-4.36 6-.783 2.41-.783 5.006 0 7.416s2.31 4.511 4.36 6C270.996 57.198 273.466 58 276 58s5.004-.802 7.053-2.292c2.05-1.489 3.577-3.59 4.36-6 .783-2.41.783-5.006 0-7.416s-2.31-4.511-4.36-6C281.004 34.802 278.534 34 276 34z"
              fill="#26b999"/>
        <path d="M282.571 40.179c-.455-.316-1.077-.204-1.392.25l-5.596 8.04-3.949-3.242c-.426-.351-1.057-.288-1.407.139-.351.427-.289 1.057.139 1.407l4.786 3.929c.18.147.404.227.634.227.045 0 .091-.003.137-.009.276-.039.524-.19.684-.419l6.214-8.929c.315-.454.203-1.077-.25-1.393z"
              fill="#ffffff"/>
    </g>
    <g>
        <path d="M324 2h-4v3h-9V2h-19v56h47V2z" fill="#545e73"/>
        <path d="M311 0h9v5h-9z" fill="#404656"/>
        <path d="M327 5v3h-23V5h-9v50h41V5z" fill="#efebde"/>
        <path d="M320 2v3h-9V2h-7v6h23V2z" fill="#8697cb"/>
        <path d="M314 16h-13c-.553 0-1-.447-1-1 0-.553.447-1 1-1h25.323c.553 0 1 .447 1 1 0 .553-.447 1-1 1zm-3.838 31H301c-.553 0-1-.447-1-1 0-.553.447-1 1-1h9.162c.553 0 1 .447 1 1 0 .553-.447 1-1 1zm10.242-25H301c-.553 0-1-.447-1-1 0-.553.447-1 1-1h19.404c.553 0 1 .447 1 1 0 .553-.447 1-1 1zm-1.535 12H301c-.553 0-1-.447-1-1 0-.553.447-1 1-1h17.869c.553 0 1 .447 1 1 0 .553-.447 1-1 1zm3.454 7H301c-.553 0-1-.447-1-1 0-.553.447-1 1-1h21.323c.553 0 1 .447 1 1 0 .553-.447 1-1 1zM315 28h-14c-.553 0-1-.447-1-1 0-.553.447-1 1-1h14c.553 0 1 .447 1 1 0 .553-.447 1-1 1zm15 0h-7c-.553 0-1-.447-1-1 0-.553.447-1 1-1h7c.553 0 1 .447 1 1 0 .553-.447 1-1 1zm-11 0c-.271 0-.521-.101-.71-.29-.181-.19-.29-.45-.29-.71 0-.271.1-.521.29-.71.38-.38 1.04-.37 1.42 0 .189.189.29.439.29.71 0 .27-.11.52-.29.71-.19.18-.44.29-.71.29z"
              fill="#d5d0bb"/>
        <path d="M334 34c-2.534 0-5.004.802-7.053 2.292-2.05 1.489-3.577 3.59-4.36 6-.783 2.41-.783 5.006 0 7.416s2.31 4.511 4.36 6C328.996 57.198 331.466 58 334 58s5.004-.802 7.053-2.292c2.05-1.489 3.577-3.59 4.36-6 .783-2.41.783-5.006 0-7.416s-2.31-4.511-4.36-6C339.004 34.802 336.534 34 334 34z"
              fill="#26b999"/>
        <path d="M340.571 40.179c-.455-.316-1.077-.204-1.392.25l-5.596 8.04-3.949-3.242c-.426-.351-1.057-.288-1.407.139-.351.427-.289 1.057.139 1.407l4.786 3.929c.18.147.404.227.634.227.045 0 .091-.003.137-.009.276-.039.524-.19.684-.419l6.214-8.929c.315-.454.203-1.077-.25-1.393z"
              fill="#ffffff"/>
    </g>
    <g>
        <path d="M382 2h-4v3h-9V2h-19v56h47V2z" fill="#545e73"/>
        <path d="M369 0h9v5h-9z" fill="#404656"/>
        <path d="M385 5v3h-23V5h-9v50h41V5z" fill="#efebde"/>
        <path d="M378 2v3h-9V2h-7v6h23V2z" fill="#8697cb"/>
        <path d="M372 16h-13c-.553 0-1-.447-1-1 0-.553.447-1 1-1h26.702c.553 0 1 .447 1 1 0 .553-.447 1-1 1zm-3.149 31H359c-.553 0-1-.447-1-1 0-.553.447-1 1-1h9.851c.553 0 1 .447 1 1 0 .553-.447 1-1 1zm11.276-25H359c-.553 0-1-.447-1-1 0-.553.447-1 1-1h21.127c.553 0 1 .447 1 1 0 .553-.447 1-1 1zm-1.259 12H359c-.553 0-1-.447-1-1 0-.553.447-1 1-1h19.868c.553 0 1 .447 1 1 0 .553-.447 1-1 1zm2.834 7H359c-.553 0-1-.447-1-1 0-.553.447-1 1-1h22.702c.553 0 1 .447 1 1 0 .553-.447 1-1 1zM373 28h-14c-.553 0-1-.447-1-1 0-.553.447-1 1-1h14c.553 0 1 .447 1 1 0 .553-.447 1-1 1zm15 0h-7c-.553 0-1-.447-1-1 0-.553.447-1 1-1h7c.553 0 1 .447 1 1 0 .553-.447 1-1 1zm-11 0c-.271 0-.521-.101-.71-.29-.181-.19-.29-.45-.29-.71 0-.271.1-.521.29-.71.38-.38 1.04-.37 1.42 0 .189.189.29.439.29.71 0 .27-.11.52-.29.71-.19.18-.44.29-.71.29z"
              fill="#d5d0bb"/>
        <path d="M392 34c-2.534 0-5.004.802-7.053 2.292-2.05 1.489-3.577 3.59-4.36 6-.783 2.41-.783 5.006 0 7.416s2.31 4.511 4.36 6C386.996 57.198 389.466 58 392 58s5.004-.802 7.053-2.292c2.05-1.489 3.577-3.59 4.36-6 .783-2.41.783-5.006 0-7.416s-2.31-4.511-4.36-6C397.004 34.802 394.534 34 392 34z"
              fill="#26b999"/>
        <path d="M398.571 40.179c-.455-.316-1.077-.204-1.392.25l-5.596 8.04-3.949-3.242c-.426-.351-1.057-.288-1.407.139-.351.427-.289 1.057.139 1.407l4.786 3.929c.18.147.404.227.634.227.045 0 .091-.003.137-.009.276-.039.524-.19.684-.419l6.214-8.929c.315-.454.203-1.077-.25-1.393z"
              fill="#ffffff"/>
    </g>
    <g>
        <path d="M440 2h-4v3h-9V2h-19v56h47V2z" fill="#545e73"/>
        <path d="M427 0h9v5h-9z" fill="#404656"/>
        <path d="M443 5v3h-23V5h-9v50h41V5z" fill="#efebde"/>
        <path d="M436 2v3h-9V2h-7v6h23V2z" fill="#8697cb"/>
        <path d="M430 16h-13c-.553 0-1-.447-1-1 0-.553.447-1 1-1h27.889c.553 0 1 .447 1 1 0 .553-.447 1-1 1zm-2.556 31H417c-.553 0-1-.447-1-1 0-.553.447-1 1-1h10.444c.553 0 1 .447 1 1 0 .553-.447 1-1 1zm12.167-25H417c-.553 0-1-.447-1-1 0-.553.447-1 1-1h22.611c.553 0 1 .447 1 1 0 .553-.447 1-1 1zm-1.023 12H417c-.553 0-1-.447-1-1 0-.553.447-1 1-1h21.588c.553 0 1 .447 1 1 0 .553-.447 1-1 1zm2.301 7H417c-.553 0-1-.447-1-1 0-.553.447-1 1-1h23.889c.553 0 1 .447 1 1 0 .553-.447 1-1 1zM431 28h-14c-.553 0-1-.447-1-1 0-.553.447-1 1-1h14c.553 0 1 .447 1 1 0 .553-.447 1-1 1zm15 0h-7c-.553 0-1-.447-1-1 0-.553.447-1 1-1h7c.553 0 1 .447 1 1 0 .553-.447 1-1 1zm-11 0c-.271 0-.521-.101-.71-.29-.181-.19-.29-.45-.29-.71 0-.271.1-.521.29-.71.38-.38 1.04-.37 1.42 0 .189.189.29.439.29.71 0 .27-.11.52-.29.71-.19.18-.44.29-.71.29z"
              fill="#d5d0bb"/>
        <path d="M450 34c-2.534 0-5.004.802-7.053 2.292-2.05 1.489-3.577 3.59-4.36 6-.783 2.41-.783 5.006 0 7.416s2.31 4.511 4.36 6C444.996 57.198 447.466 58 450 58s5.004-.802 7.053-2.292c2.05-1.489 3.577-3.59 4.36-6 .783-2.41.783-5.006 0-7.416s-2.31-4.511-4.36-6C455.004 34.802 452.534 34 450 34z"
              fill="#26b999"/>
        <path d="M456.571 40.179c-.455-.316-1.077-.204-1.392.25l-5.596 8.04-3.949-3.242c-.426-.351-1.057-.288-1.407.139-.351.427-.289 1.057.139 1.407l4.786 3.929c.18.147.404.227.634.227.045 0 .091-.003.137-.009.276-.039.524-.19.684-.419l6.214-8.929c.315-.454.203-1.077-.25-1.393z"
              fill="#ffffff"/>
    </g>
    <g>
        <path d="M498 2h-4v3h-9V2h-19v56h47V2z" fill="#545e73"/>
        <path d="M485 0h9v5h-9z" fill="#404656"/>
        <path d="M501 5v3h-23V5h-9v50h41V5z" fill="#efebde"/>
        <path d="M494 2v3h-9V2h-7v6h23V2z" fill="#8697cb"/>
        <path d="M488 16h-13c-.553 0-1-.447-1-1 0-.553.447-1 1-1h28.91c.553 0 1 .447 1 1 0 .553-.447 1-1 1zm-2.045 31H475c-.553 0-1-.447-1-1 0-.553.447-1 1-1h10.955c.553 0 1 .447 1 1 0 .553-.447 1-1 1zm12.932-25H475c-.553 0-1-.447-1-1 0-.553.447-1 1-1h23.887c.553 0 1 .447 1 1 0 .553-.447 1-1 1zm-.818 12H475c-.553 0-1-.447-1-1 0-.553.447-1 1-1h23.069c.553 0 1 .447 1 1 0 .553-.447 1-1 1zm1.841 7H475c-.553 0-1-.447-1-1 0-.553.447-1 1-1h24.91c.553 0 1 .447 1 1 0 .553-.447 1-1 1zM489 28h-14c-.553 0-1-.447-1-1 0-.553.447-1 1-1h14c.553 0 1 .447 1 1 0 .553-.447 1-1 1zm15 0h-7c-.553 0-1-.447-1-1 0-.553.447-1 1-1h7c.553 0 1 .447 1 1 0 .553-.447 1-1 1zm-11 0c-.271 0-.521-.101-.71-.29-.181-.19-.29-.45-.29-.71 0-.271.1-.521.29-.71.38-.38 1.04-.37 1.42 0 .189.189.29.439.29.71 0 .27-.11.52-.29.71-.19.18-.44.29-.71.29z"
              fill="#d5d0bb"/>
        <path d="M508 34c-2.534 0-5.004.802-7.053 2.292-2.05 1.489-3.577 3.59-4.36 6-.783 2.41-.783 5.006 0 7.416s2.31 4.511 4.36 6C502.996 57.198 505.466 58 508 58s5.004-.802 7.053-2.292c2.05-1.489 3.577-3.59 4.36-6 .783-2.41.783-5.006 0-7.416s-2.31-4.511-4.36-6C513.004 34.802 510.534 34 508 34z"
              fill="#26b999"/>
        <path d="M514.571 40.179c-.455-.316-1.077-.204-1.392.25l-5.596 8.04-3.949-3.242c-.426-.351-1.057-.288-1.407.139-.351.427-.289 1.057.139 1.407l4.786 3.929c.18.147.404.227.634.227.045 0 .091-.003.137-.009.276-.039.524-.19.684-.419l6.214-8.929c.315-.454.203-1.077-.25-1.393z"
              fill="#ffffff"/>
    </g>
    <g>
        <path d="M556 2h-4v3h-9V2h-19v56h47V2z" fill="#545e73"/>
        <path d="M543 0h9v5h-9z" fill="#404656"/>
        <path d="M559 5v3h-23V5h-9v50h41V5z" fill="#efebde"/>
        <path d="M552 2v3h-9V2h-7v6h23V2z" fill="#8697cb"/>
        <path d="M546 16h-13c-.553 0-1-.447-1-1 0-.553.447-1 1-1h29.785c.553 0 1 .447 1 1 0 .553-.447 1-1 1zm-1.608 31H533c-.553 0-1-.447-1-1 0-.553.447-1 1-1h11.392c.553 0 1 .447 1 1 0 .553-.447 1-1 1zm13.589-25H533c-.553 0-1-.447-1-1 0-.553.447-1 1-1h24.981c.553 0 1 .447 1 1 0 .553-.447 1-1 1zm-.643 12H533c-.553 0-1-.447-1-1 0-.553.447-1 1-1h24.338c.553 0 1 .447 1 1 0 .553-.447 1-1 1zm1.447 7H533c-.553 0-1-.447-1-1 0-.553.447-1 1-1h25.785c.553 0 1 .447 1 1 0 .553-.447 1-1 1zM547 28h-14c-.553 0-1-.447-1-1 0-.553.447-1 1-1h14c.553 0 1 .447 1 1 0 .553-.447 1-1 1zm15 0h-7c-.553 0-1-.447-1-1 0-.553.447-1 1-1h7c.553 0 1 .447 1 1 0 .553-.447 1-1 1zm-11 0c-.271 0-.521-.101-.71-.29-.181-.19-.29-.45-.29-.71 0-.271.1-.521.29-.71.38-.38 1.04-.37 1.42 0 .189.189.29.439.29.71 0 .27-.11.52-.29.71-.19.18-.44.29-.71.29z"
              fill="#d5d0bb"/>
        <path d="M566 34c-2.534 0-5.004.802-7.053 2.292-2.05 1.489-3.577 3.59-4.36 6-.783 2.41-.783 5.006 0 7.416s2.31 4.511 4.36 6C560.996 57.198 563.466 58 566 58s5.004-.802 7.053-2.292c2.05-1.489 3.577-3.59 4.36-6 .783-2.41.783-5.006 0-7.416s-2.31-4.511-4.36-6C571.004 34.802 568.534 34 566 34z"
              fill="#26b999"/>
        <path d="M572.571 40.179c-.455-.316-1.077-.204-1.392.25l-5.596 8.04-3.949-3.242c-.426-.351-1.057-.288-1.407.139-.351.427-.289 1.057.139 1.407l4.786 3.929c.18.147.404.227.634.227.045 0 .091-.003.137-.009.276-.039.524-.19.684-.419l6.214-8.929c.315-.454.203-1.077-.25-1.393z"
              fill="#ffffff"/>
    </g>
    <g>
        <path d="M614 2h-4v3h-9V2h-19v56h47V2z" fill="#545e73"/>
        <path d="M601 0h9v5h-9z" fill="#404656"/>
        <path d="M617 5v3h-23V5h-9v50h41V5z" fill="#efebde"/>
        <path d="M610 2v3h-9V2h-7v6h23V2z" fill="#8697cb"/>
        <path d="M604 16h-13c-.553 0-1-.447-1-1 0-.553.447-1 1-1h30.53c.553 0 1 .447 1 1 0 .553-.447 1-1 1zm-1.235 31H591c-.553 0-1-.447-1-1 0-.553.447-1 1-1h11.765c.553 0 1 .447 1 1 0 .553-.447 1-1 1zm14.148-25H591c-.553 0-1-.447-1-1 0-.553.447-1 1-1h25.913c.553 0 1 .447 1 1 0 .553-.447 1-1 1zm-.494 12H591c-.553 0-1-.447-1-1 0-.553.447-1 1-1h25.419c.553 0 1 .447 1 1 0 .553-.447 1-1 1zm1.111 7H591c-.553 0-1-.447-1-1 0-.553.447-1 1-1h26.53c.553 0 1 .447 1 1 0 .553-.447 1-1 1zM605 28h-14c-.553 0-1-.447-1-1 0-.553.447-1 1-1h14c.553 0 1 .447 1 1 0 .553-.447 1-1 1zm15 0h-7c-.553 0-1-.447-1-1 0-.553.447-1 1-1h7c.553 0 1 .447 1 1 0 .553-.447 1-1 1zm-11 0c-.271 0-.521-.101-.71-.29-.181-.19-.29-.45-.29-.71 0-.271.1-.521.29-.71.38-.38 1.04-.37 1.42 0 .189.189.29.439.29.71 0 .27-.11.52-.29.71-.19.18-.44.29-.71.29z"
              fill="#d5d0bb"/>
        <path d="M624 34c-2.534 0-5.004.802-7.053 2.292-2.05 1.489-3.577 3.59-4.36 6-.783 2.41-.783 5.006 0 7.416s2.31 4.511 4.36 6C618.996 57.198 621.466 58 624 58s5.004-.802 7.053-2.292c2.05-1.489 3.577-3.59 4.36-6 .783-2.41.783-5.006 0-7.416s-2.31-4.511-4.36-6C629.004 34.802 626.534 34 624 34z"
              fill="#26b999"/>
        <path d="M630.571 40.179c-.455-.316-1.077-.204-1.392.25l-5.596 8.04-3.949-3.242c-.426-.351-1.057-.288-1.407.139-.351.427-.289 1.057.139 1.407l4.786 3.929c.18.147.404.227.634.227.045 0 .091-.003.137-.009.276-.039.524-.19.684-.419l6.214-8.929c.315-.454.203-1.077-.25-1.393z"
              fill="#ffffff"/>
    </g>
    <g>
        <path d="M672 2h-4v3h-9V2h-19v56h47V2z" fill="#545e73"/>
        <path d="M659 0h9v5h-9z" fill="#404656"/>
        <path d="M675 5v3h-23V5h-9v50h41V5z" fill="#efebde"/>
        <path d="M668 2v3h-9V2h-7v6h23V2z" fill="#8697cb"/>
        <path d="M662 16h-13c-.553 0-1-.447-1-1 0-.553.447-1 1-1h31.159c.553 0 1 .447 1 1 0 .553-.447 1-1 1zm-.92 31H649c-.553 0-1-.447-1-1 0-.553.447-1 1-1h12.08c.553 0 1 .447 1 1 0 .553-.447 1-1 1zm14.619-25H649c-.553 0-1-.447-1-1 0-.553.447-1 1-1h26.699c.553 0 1 .447 1 1 0 .553-.447 1-1 1zm-.368 12H649c-.553 0-1-.447-1-1 0-.553.447-1 1-1h26.331c.553 0 1 .447 1 1 0 .553-.447 1-1 1zm.828 7H649c-.553 0-1-.447-1-1 0-.553.447-1 1-1h27.159c.553 0 1 .447 1 1 0 .553-.447 1-1 1zM663 28h-14c-.553 0-1-.447-1-1 0-.553.447-1 1-1h14c.553 0 1 .447 1 1 0 .553-.447 1-1 1zm15 0h-7c-.553 0-1-.447-1-1 0-.553.447-1 1-1h7c.553 0 1 .447 1 1 0 .553-.447 1-1 1zm-11 0c-.271 0-.521-.101-.71-.29-.181-.19-.29-.45-.29-.71 0-.271.1-.521.29-.71.38-.38 1.04-.37 1.42 0 .189.189.29.439.29.71 0 .27-.11.52-.29.71-.19.18-.44.29-.71.29z"
              fill="#d5d0bb"/>
        <path d="M682 34c-2.534 0-5.004.802-7.053 2.292-2.05 1.489-3.577 3.59-4.36 6-.783 2.41-.783 5.006 0 7.416s2.31 4.511 4.36 6C676.996 57.198 679.466 58 682 58s5.004-.802 7.053-2.292c2.05-1.489 3.577-3.59 4.36-6 .783-2.41.783-5.006 0-7.416s-2.31-4.511-4.36-6C687.004 34.802 684.534 34 682 34z"
              fill="#26b999"/>
        <path d="M688.571 40.179c-.455-.316-1.077-.204-1.392.25l-5.596 8.04-3.949-3.242c-.426-.351-1.057-.288-1.407.139-.351.427-.289 1.057.139 1.407l4.786 3.929c.18.147.404.227.634.227.045 0 .091-.003.137-.009.276-.039.524-.19.684-.419l6.214-8.929c.315-.454.203-1.077-.25-1.393z"
              fill="#ffffff"/>
    </g>
    <g>
        <path d="M730 2h-4v3h-9V2h-19v56h47V2z" fill="#545e73"/>
        <path d="M717 0h9v5h-9z" fill="#404656"/>
        <path d="M733 5v3h-23V5h-9v50h41V5z" fill="#efebde"/>
        <path d="M726 2v3h-9V2h-7v6h23V2z" fill="#8697cb"/>
        <path d="M720 16h-13c-.553 0-1-.447-1-1 0-.553.447-1 1-1h31.681c.553 0 1 .447 1 1 0 .553-.447 1-1 1zm-.659 31H707c-.553 0-1-.447-1-1 0-.553.447-1 1-1h12.341c.553 0 1 .447 1 1 0 .553-.447 1-1 1zm15.011-25H707c-.553 0-1-.447-1-1 0-.553.447-1 1-1h27.352c.553 0 1 .447 1 1 0 .553-.447 1-1 1zm-.264 12H707c-.553 0-1-.447-1-1 0-.553.447-1 1-1h27.088c.553 0 1 .447 1 1 0 .553-.447 1-1 1zm.593 7H707c-.553 0-1-.447-1-1 0-.553.447-1 1-1h27.681c.553 0 1 .447 1 1 0 .553-.447 1-1 1zM721 28h-14c-.553 0-1-.447-1-1 0-.553.447-1 1-1h14c.553 0 1 .447 1 1 0 .553-.447 1-1 1zm15 0h-7c-.553 0-1-.447-1-1 0-.553.447-1 1-1h7c.553 0 1 .447 1 1 0 .553-.447 1-1 1zm-11 0c-.271 0-.521-.101-.71-.29-.181-.19-.29-.45-.29-.71 0-.271.1-.521.29-.71.38-.38 1.04-.37 1.42 0 .189.189.29.439.29.71 0 .27-.11.52-.29.71-.19.18-.44.29-.71.29z"
              fill="#d5d0bb"/>
        <path d="M740 34c-2.534 0-5.004.802-7.053 2.292-2.05 1.489-3.577 3.59-4.36 6-.783 2.41-.783 5.006 0 7.416s2.31 4.511 4.36 6C734.996 57.198 737.466 58 740 58s5.004-.802 7.053-2.292c2.05-1.489 3.577-3.59 4.36-6 .783-2.41.783-5.006 0-7.416s-2.31-4.511-4.36-6C745.004 34.802 742.534 34 740 34z"
              fill="#26b999"/>
        <path d="M746.571 40.179c-.455-.316-1.077-.204-1.392.25l-5.596 8.04-3.949-3.242c-.426-.351-1.057-.288-1.407.139-.351.427-.289 1.057.139 1.407l4.786 3.929c.18.147.404.227.634.227.045 0 .091-.003.137-.009.276-.039.524-.19.684-.419l6.214-8.929c.315-.454.203-1.077-.25-1.393z"
              fill="#ffffff"/>
    </g>
    <g>
        <path d="M788 2h-4v3h-9V2h-19v56h47V2z" fill="#545e73"/>
        <path d="M775 0h9v5h-9z" fill="#404656"/>
        <path d="M791 5v3h-23V5h-9v50h41V5z" fill="#efebde"/>
        <path d="M784 2v3h-9V2h-7v6h23V2z" fill="#8697cb"/>
        <path d="M778 16h-13c-.553 0-1-.447-1-1 0-.553.447-1 1-1h32.106c.553 0 1 .447 1 1 0 .553-.447 1-1 1zm-.447 31H765c-.553 0-1-.447-1-1 0-.553.447-1 1-1h12.553c.553 0 1 .447 1 1 0 .553-.447 1-1 1zm15.33-25H765c-.553 0-1-.447-1-1 0-.553.447-1 1-1h27.883c.553 0 1 .447 1 1 0 .553-.447 1-1 1zm-.179 12H765c-.553 0-1-.447-1-1 0-.553.447-1 1-1h27.704c.553 0 1 .447 1 1 0 .553-.447 1-1 1zm.402 7H765c-.553 0-1-.447-1-1 0-.553.447-1 1-1h28.106c.553 0 1 .447 1 1 0 .553-.447 1-1 1zM779 28h-14c-.553 0-1-.447-1-1 0-.553.447-1 1-1h14c.553 0 1 .447 1 1 0 .553-.447 1-1 1zm15 0h-7c-.553 0-1-.447-1-1 0-.553.447-1 1-1h7c.553 0 1 .447 1 1 0 .553-.447 1-1 1zm-11 0c-.271 0-.521-.101-.71-.29-.181-.19-.29-.45-.29-.71 0-.271.1-.521.29-.71.38-.38 1.04-.37 1.42 0 .189.189.29.439.29.71 0 .27-.11.52-.29.71-.19.18-.44.29-.71.29z"
              fill="#d5d0bb"/>
        <path d="M798 34c-2.534 0-5.004.802-7.053 2.292-2.05 1.489-3.577 3.59-4.36 6-.783 2.41-.783 5.006 0 7.416s2.31 4.511 4.36 6C792.996 57.198 795.466 58 798 58s5.004-.802 7.053-2.292c2.05-1.489 3.577-3.59 4.36-6 .783-2.41.783-5.006 0-7.416s-2.31-4.511-4.36-6C803.004 34.802 800.534 34 798 34z"
              fill="#26b999"/>
        <path d="M804.571 40.179c-.455-.316-1.077-.204-1.392.25l-5.596 8.04-3.949-3.242c-.426-.351-1.057-.288-1.407.139-.351.427-.289 1.057.139 1.407l4.786 3.929c.18.147.404.227.634.227.045 0 .091-.003.137-.009.276-.039.524-.19.684-.419l6.214-8.929c.315-.454.203-1.077-.25-1.393z"
              fill="#ffffff"/>
    </g>
    <g>
        <path d="M846 2h-4v3h-9V2h-19v56h47V2z" fill="#545e73"/>
        <path d="M833 0h9v5h-9z" fill="#404656"/>
        <path d="M849 5v3h-23V5h-9v50h41V5z" fill="#efebde"/>
        <path d="M842 2v3h-9V2h-7v6h23V2z" fill="#8697cb"/>
        <path d="M836 16h-13c-.553 0-1-.447-1-1 0-.553.447-1 1-1h32.441c.553 0 1 .447 1 1 0 .553-.447 1-1 1zm-.28 31H823c-.553 0-1-.447-1-1 0-.553.447-1 1-1h12.72c.553 0 1 .447 1 1 0 .553-.447 1-1 1zm15.581-25H823c-.553 0-1-.447-1-1 0-.553.447-1 1-1h28.301c.553 0 1 .447 1 1 0 .553-.447 1-1 1zm-.112 12H823c-.553 0-1-.447-1-1 0-.553.447-1 1-1h28.189c.553 0 1 .447 1 1 0 .553-.447 1-1 1zm.252 7H823c-.553 0-1-.447-1-1 0-.553.447-1 1-1h28.441c.553 0 1 .447 1 1 0 .553-.447 1-1 1zM837 28h-14c-.553 0-1-.447-1-1 0-.553.447-1 1-1h14c.553 0 1 .447 1 1 0 .553-.447 1-1 1zm15 0h-7c-.553 0-1-.447-1-1 0-.553.447-1 1-1h7c.553 0 1 .447 1 1 0 .553-.447 1-1 1zm-11 0c-.271 0-.521-.101-.71-.29-.181-.19-.29-.45-.29-.71 0-.271.1-.521.29-.71.38-.38 1.04-.37 1.42 0 .189.189.29.439.29.71 0 .27-.11.52-.29.71-.19.18-.44.29-.71.29z"
              fill="#d5d0bb"/>
        <path d="M856 34c-2.534 0-5.004.802-7.053 2.292-2.05 1.489-3.577 3.59-4.36 6-.783 2.41-.783 5.006 0 7.416s2.31 4.511 4.36 6C850.996 57.198 853.466 58 856 58s5.004-.802 7.053-2.292c2.05-1.489 3.577-3.59 4.36-6 .783-2.41.783-5.006 0-7.416s-2.31-4.511-4.36-6C861.004 34.802 858.534 34 856 34z"
              fill="#26b999"/>
        <path d="M862.571 40.179c-.455-.316-1.077-.204-1.392.25l-5.596 8.04-3.949-3.242c-.426-.351-1.057-.288-1.407.139-.351.427-.289 1.057.139 1.407l4.786 3.929c.18.147.404.227.634.227.045 0 .091-.003.137-.009.276-.039.524-.19.684-.419l6.214-8.929c.315-.454.203-1.077-.25-1.393z"
              fill="#ffffff"/>
    </g>
    <g>
        <path d="M904 2h-4v3h-9V2h-19v56h47V2z" fill="#545e73"/>
        <path d="M891 0h9v5h-9z" fill="#404656"/>
        <path d="M907 5v3h-23V5h-9v50h41V5z" fill="#efebde"/>
        <path d="M900 2v3h-9V2h-7v6h23V2z" fill="#8697cb"/>
        <path d="M894 16h-13c-.553 0-1-.447-1-1 0-.553.447-1 1-1h32.692c.553 0 1 .447 1 1 0 .553-.447 1-1 1zm-.154 31H881c-.553 0-1-.447-1-1 0-.553.447-1 1-1h12.846c.553 0 1 .447 1 1 0 .553-.447 1-1 1zm15.769-25H881c-.553 0-1-.447-1-1 0-.553.447-1 1-1h28.615c.553 0 1 .447 1 1 0 .553-.447 1-1 1zm-.061 12H881c-.553 0-1-.447-1-1 0-.553.447-1 1-1h28.554c.553 0 1 .447 1 1 0 .553-.447 1-1 1zm.138 7H881c-.553 0-1-.447-1-1 0-.553.447-1 1-1h28.692c.553 0 1 .447 1 1 0 .553-.447 1-1 1zM895 28h-14c-.553 0-1-.447-1-1 0-.553.447-1 1-1h14c.553 0 1 .447 1 1 0 .553-.447 1-1 1zm15 0h-7c-.553 0-1-.447-1-1 0-.553.447-1 1-1h7c.553 0 1 .447 1 1 0 .553-.447 1-1 1zm-11 0c-.271 0-.521-.101-.71-.29-.181-.19-.29-.45-.29-.71 0-.271.1-.521.29-.71.38-.38 1.04-.37 1.42 0 .189.189.29.439.29.71 0 .27-.11.52-.29.71-.19.18-.44.29-.71.29z"
              fill="#d5d0bb"/>
        <path d="M914 34c-2.534 0-5.004.802-7.053 2.292-2.05 1.489-3.577 3.59-4.36 6-.783 2.41-.783 5.006 0 7.416s2.31 4.511 4.36 6C908.996 57.198 911.466 58 914 58s5.004-.802 7.053-2.292c2.05-1.489 3.577-3.59 4.36-6 .783-2.41.783-5.006 0-7.416s-2.31-4.511-4.36-6C919.004 34.802 916.534 34 914 34z"
              fill="#26b999"/>
        <path d="M920.571 40.179c-.455-.316-1.077-.204-1.392.25l-5.596 8.04-3.949-3.242c-.426-.351-1.057-.288-1.407.139-.351.427-.289 1.057.139 1.407l4.786 3.929c.18.147.404.227.634.227.045 0 .091-.003.137-.009.276-.039.524-.19.684-.419l6.214-8.929c.315-.454.203-1.077-.25-1.393z"
              fill="#ffffff"/>
    </g>
    <g>
        <path d="M962 2h-4v3h-9V2h-19v56h47V2z" fill="#545e73"/>
        <path d="M949 0h9v5h-9z" fill="#404656"/>
        <path d="M965 5v3h-23V5h-9v50h41V5z" fill="#efebde"/>
        <path d="M958 2v3h-9V2h-7v6h23V2z" fill="#8697cb"/>
        <path d="M952 16h-13c-.553 0-1-.447-1-1 0-.553.447-1 1-1h32.866c.553 0 1 .447 1 1 0 .553-.447 1-1 1zm-.067 31H939c-.553 0-1-.447-1-1 0-.553.447-1 1-1h12.933c.553 0 1 .447 1 1 0 .553-.447 1-1 1zm15.9-25H939c-.553 0-1-.447-1-1 0-.553.447-1 1-1h28.833c.553 0 1 .447 1 1 0 .553-.447 1-1 1zm-.027 12H939c-.553 0-1-.447-1-1 0-.553.447-1 1-1h28.806c.553 0 1 .447 1 1 0 .553-.447 1-1 1zm.06 7H939c-.553 0-1-.447-1-1 0-.553.447-1 1-1h28.866c.553 0 1 .447 1 1 0 .553-.447 1-1 1zM953 28h-14c-.553 0-1-.447-1-1 0-.553.447-1 1-1h14c.553 0 1 .447 1 1 0 .553-.447 1-1 1zm15 0h-7c-.553 0-1-.447-1-1 0-.553.447-1 1-1h7c.553 0 1 .447 1 1 0 .553-.447 1-1 1zm-11 0c-.271 0-.521-.101-.71-.29-.181-.19-.29-.45-.29-.71 0-.271.1-.521.29-.71.38-.38 1.04-.37 1.42 0 .189.189.29.439.29.71 0 .27-.11.52-.29.71-.19.18-.44.29-.71.29z"
              fill="#d5d0bb"/>
        <path d="M972 34c-2.534 0-5.004.802-7.053 2.292-2.05 1.489-3.577 3.59-4.36 6-.783 2.41-.783 5.006 0 7.416s2.31 4.511 4.36 6C966.996 57.198 969.466 58 972 58s5.004-.802 7.053-2.292c2.05-1.489 3.577-3.59 4.36-6 .783-2.41.783-5.006 0-7.416s-2.31-4.511-4.36-6C977.004 34.802 974.534 34 972 34z"
              fill="#26b999"/>
        <path d="M978.571 40.179c-.455-.316-1.077-.204-1.392.25l-5.596 8.04-3.949-3.242c-.426-.351-1.057-.288-1.407.139-.351.427-.289 1.057.139 1.407l4.786 3.929c.18.147.404.227.634.227.045 0 .091-.003.137-.009.276-.039.524-.19.684-.419l6.214-8.929c.315-.454.203-1.077-.25-1.393z"
              fill="#ffffff"/>
    </g>
    <g>
        <path d="M1020 2h-4v3h-9V2h-19v56h47V2z" fill="#545e73"/>
        <path d="M1007 0h9v5h-9z" fill="#404656"/>
        <path d="M1023 5v3h-23V5h-9v50h41V5z" fill="#efebde"/>
        <path d="M1016 2v3h-9V2h-7v6h23V2z" fill="#8697cb"/>
        <path d="M1010 16h-13c-.553 0-1-.447-1-1 0-.553.447-1 1-1h32.967c.553 0 1 .447 1 1 0 .553-.447 1-1 1zm-.016 31H997c-.553 0-1-.447-1-1 0-.553.447-1 1-1h12.984c.553 0 1 .447 1 1 0 .553-.447 1-1 1zm15.975-25H997c-.553 0-1-.447-1-1 0-.553.447-1 1-1h28.959c.553 0 1 .447 1 1 0 .553-.447 1-1 1zm-.007 12H997c-.553 0-1-.447-1-1 0-.553.447-1 1-1h28.952c.553 0 1 .447 1 1 0 .553-.447 1-1 1zm.015 7H997c-.553 0-1-.447-1-1 0-.553.447-1 1-1h28.967c.553 0 1 .447 1 1 0 .553-.447 1-1 1zM1011 28h-14c-.553 0-1-.447-1-1 0-.553.447-1 1-1h14c.553 0 1 .447 1 1 0 .553-.447 1-1 1zm15 0h-7c-.553 0-1-.447-1-1 0-.553.447-1 1-1h7c.553 0 1 .447 1 1 0 .553-.447 1-1 1zm-11 0c-.271 0-.521-.101-.71-.29-.181-.19-.29-.45-.29-.71 0-.271.1-.521.29-.71.38-.38 1.04-.37 1.42 0 .189.189.29.439.29.71 0 .27-.11.52-.29.71-.19.18-.44.29-.71.29z"
              fill="#d5d0bb"/>
        <path d="M1030 34c-2.534 0-5.004.802-7.053 2.292-2.05 1.489-3.577 3.59-4.36 6-.783 2.41-.783 5.006 0 7.416s2.31 4.511 4.36 6c2.049 1.49 4.519 2.292 7.053 2.292s5.004-.802 7.053-2.292c2.05-1.489 3.577-3.59 4.36-6 .783-2.41.783-5.006 0-7.416s-2.31-4.511-4.36-6c-2.049-1.49-4.519-2.292-7.053-2.292z"
              fill="#26b999"/>
        <path d="M1036.571 40.179c-.455-.316-1.077-.204-1.392.25l-5.596 8.04-3.949-3.242c-.426-.351-1.057-.288-1.407.139-.351.427-.289 1.057.139 1.407l4.786 3.929c.18.147.404.227.634.227.045 0 .091-.003.137-.009.276-.039.524-.19.684-.419l6.214-8.929c.315-.454.203-1.077-.25-1.393z"
              fill="#ffffff"/>
    </g>
    <g>
        <path d="M1078 2h-4v3h-9V2h-19v56h47V2z" fill="#545e73"/>
        <path d="M1065 0h9v5h-9z" fill="#404656"/>
        <path d="M1081 5v3h-23V5h-9v50h41V5z" fill="#efebde"/>
        <path d="M1074 2v3h-9V2h-7v6h23V2z" fill="#8697cb"/>
        <path d="M1068 16h-13c-.553 0-1-.447-1-1 0-.553.447-1 1-1h33c.553 0 1 .447 1 1 0 .553-.447 1-1 1zm0 31h-13c-.553 0-1-.447-1-1 0-.553.447-1 1-1h13c.553 0 1 .447 1 1 0 .553-.447 1-1 1zm16-25h-29c-.553 0-1-.447-1-1 0-.553.447-1 1-1h29c.553 0 1 .447 1 1 0 .553-.447 1-1 1zm0 12h-29c-.553 0-1-.447-1-1 0-.553.447-1 1-1h29c.553 0 1 .447 1 1 0 .553-.447 1-1 1zm0 7h-29c-.553 0-1-.447-1-1 0-.553.447-1 1-1h29c.553 0 1 .447 1 1 0 .553-.447 1-1 1zm-15-13h-14c-.553 0-1-.447-1-1 0-.553.447-1 1-1h14c.553 0 1 .447 1 1 0 .553-.447 1-1 1zm15 0h-7c-.553 0-1-.447-1-1 0-.553.447-1 1-1h7c.553 0 1 .447 1 1 0 .553-.447 1-1 1zm-11 0c-.271 0-.521-.101-.71-.29-.181-.19-.29-.45-.29-.71 0-.271.1-.521.29-.71.38-.38 1.04-.37 1.42 0 .189.189.29.439.29.71 0 .27-.11.52-.29.71-.19.18-.44.29-.71.29z"
              fill="#d5d0bb"/>
        <path d="M1088 34c-2.534 0-5.004.802-7.053 2.292-2.05 1.489-3.577 3.59-4.36 6-.783 2.41-.783 5.006 0 7.416s2.31 4.511 4.36 6c2.049 1.49 4.519 2.292 7.053 2.292s5.004-.802 7.053-2.292c2.05-1.489 3.577-3.59 4.36-6 .783-2.41.783-5.006 0-7.416s-2.31-4.511-4.36-6c-2.049-1.49-4.519-2.292-7.053-2.292z"
              fill="#26b999"/>
        <path d="M1094.571 40.179c-.455-.316-1.077-.204-1.392.25l-5.596 8.04-3.949-3.242c-.426-.351-1.057-.288-1.407.139-.351.427-.289 1.057.139 1.407l4.786 3.929c.18.147.404.227.634.227.045 0 .091-.003.137-.009.276-.039.524-.19.684-.419l6.214-8.929c.315-.454.203-1.077-.25-1.393z"
              fill="#ffffff"/>
    </g>
</svg>